<svg xmlns="http://www.w3.org/2000/svg" xmlns:xlink="http://www.w3.org/1999/xlink" width="223.234" height="119.787" viewBox="0 0 223.234 119.787"><defs><clipPath id="clip-path"><rect id="Rectangle_2065" data-name="Rectangle 2065" width="223.234" height="88.341" transform="translate(3451.343 89.42)" fill="none"/></clipPath></defs><g id="Group_880" data-name="Group 880" transform="translate(-3451.343 -57.974)"><g id="Group_867" data-name="Group 867"><g id="Group_866" data-name="Group 866"><rect id="Rectangle_2060" data-name="Rectangle 2060" width="58" height="58" rx="12.981" transform="translate(3530.603 93.584)" fill="#0c322c" stroke="#ff6a52" stroke-width="2.993"/></g><path id="Path_635" data-name="Path 635" d="M3539.905,93.236,3540,76.343c.051-9.333,8.382-16.925,18.515-16.869l2.235.012c10.132.055,18.381,7.737,18.33,17.071" fill="none" stroke="#ff6a52" stroke-linecap="round" stroke-width="3"/><circle id="Ellipse_4277" data-name="Ellipse 4277" cx="8" cy="8" r="8" transform="translate(3551.603 114.584)" fill="#ff6a52"/></g><g id="Group_878" data-name="Group 878"><g id="Group_877" data-name="Group 877"><g id="Group_876" data-name="Group 876" clip-path="url(#clip-path)"><g id="Group_868" data-name="Group 868"><rect id="Rectangle_2061" data-name="Rectangle 2061" width="78" height="78" transform="translate(3617.497 64.62)" fill="none"/><circle id="Ellipse_5121" data-name="Ellipse 5121" cx="1.5" cy="1.5" r="1.5" transform="translate(3624.998 72.12)" fill="#30ba78"/><circle id="Ellipse_5122" data-name="Ellipse 5122" cx="1.5" cy="1.5" r="1.5" transform="translate(3644.998 72.12)" fill="#30ba78"/><circle id="Ellipse_5123" data-name="Ellipse 5123" cx="1.5" cy="1.5" r="1.5" transform="translate(3664.998 72.12)" fill="#30ba78"/><circle id="Ellipse_5124" data-name="Ellipse 5124" cx="1.5" cy="1.5" r="1.5" transform="translate(3684.998 72.12)" fill="#30ba78"/><circle id="Ellipse_5125" data-name="Ellipse 5125" cx="1.5" cy="1.5" r="1.5" transform="translate(3624.998 92.12)" fill="#30ba78"/><circle id="Ellipse_5126" data-name="Ellipse 5126" cx="1.5" cy="1.5" r="1.5" transform="translate(3644.998 92.12)" fill="#30ba78"/><circle id="Ellipse_5127" data-name="Ellipse 5127" cx="1.5" cy="1.5" r="1.5" transform="translate(3664.998 92.12)" fill="#30ba78"/><circle id="Ellipse_5128" data-name="Ellipse 5128" cx="1.5" cy="1.5" r="1.5" transform="translate(3684.998 92.12)" fill="#30ba78"/><circle id="Ellipse_5129" data-name="Ellipse 5129" cx="1.5" cy="1.5" r="1.5" transform="translate(3624.998 112.12)" fill="#30ba78"/><circle id="Ellipse_5130" data-name="Ellipse 5130" cx="1.5" cy="1.5" r="1.5" transform="translate(3644.998 112.12)" fill="#30ba78"/><circle id="Ellipse_5131" data-name="Ellipse 5131" cx="1.5" cy="1.5" r="1.5" transform="translate(3664.998 112.12)" fill="#30ba78"/><circle id="Ellipse_5132" data-name="Ellipse 5132" cx="1.5" cy="1.5" r="1.5" transform="translate(3684.998 112.12)" fill="#30ba78"/><circle id="Ellipse_5133" data-name="Ellipse 5133" cx="1.5" cy="1.5" r="1.5" transform="translate(3624.998 132.12)" fill="#30ba78"/><circle id="Ellipse_5134" data-name="Ellipse 5134" cx="1.5" cy="1.5" r="1.5" transform="translate(3644.998 132.12)" fill="#30ba78"/><circle id="Ellipse_5135" data-name="Ellipse 5135" cx="1.5" cy="1.5" r="1.5" transform="translate(3664.998 132.12)" fill="#30ba78"/><circle id="Ellipse_5136" data-name="Ellipse 5136" cx="1.5" cy="1.5" r="1.5" transform="translate(3684.998 132.12)" fill="#30ba78"/></g><g id="Group_869" data-name="Group 869"><circle id="Ellipse_5137" data-name="Ellipse 5137" cx="1.5" cy="1.5" r="1.5" transform="translate(3624.998 150.12)" fill="#30ba78"/><circle id="Ellipse_5138" data-name="Ellipse 5138" cx="1.5" cy="1.5" r="1.5" transform="translate(3644.998 150.12)" fill="#30ba78"/><circle id="Ellipse_5139" data-name="Ellipse 5139" cx="1.5" cy="1.5" r="1.5" transform="translate(3664.998 150.12)" fill="#30ba78"/><circle id="Ellipse_5140" data-name="Ellipse 5140" cx="1.5" cy="1.5" r="1.5" transform="translate(3684.998 150.12)" fill="#30ba78"/></g><g id="Group_870" data-name="Group 870"><rect id="Rectangle_2062" data-name="Rectangle 2062" width="78" height="78" transform="translate(3539.497 64.62)" fill="none"/><circle id="Ellipse_5141" data-name="Ellipse 5141" cx="1.5" cy="1.5" r="1.5" transform="translate(3546.998 72.12)" fill="#30ba78"/><circle id="Ellipse_5142" data-name="Ellipse 5142" cx="1.5" cy="1.5" r="1.5" transform="translate(3566.998 72.12)" fill="#30ba78"/><circle id="Ellipse_5143" data-name="Ellipse 5143" cx="1.5" cy="1.5" r="1.5" transform="translate(3586.998 72.12)" fill="#30ba78"/><circle id="Ellipse_5144" data-name="Ellipse 5144" cx="1.5" cy="1.5" r="1.5" transform="translate(3606.998 72.12)" fill="#30ba78"/><circle id="Ellipse_5145" data-name="Ellipse 5145" cx="1.5" cy="1.5" r="1.5" transform="translate(3606.998 92.12)" fill="#30ba78"/><circle id="Ellipse_5146" data-name="Ellipse 5146" cx="1.5" cy="1.5" r="1.5" transform="translate(3606.998 112.12)" fill="#30ba78"/><circle id="Ellipse_5147" data-name="Ellipse 5147" cx="1.5" cy="1.5" r="1.5" transform="translate(3606.998 132.12)" fill="#30ba78"/></g><g id="Group_871" data-name="Group 871"><circle id="Ellipse_5148" data-name="Ellipse 5148" cx="1.5" cy="1.5" r="1.5" transform="translate(3606.998 150.12)" fill="#30ba78"/></g><g id="Group_872" data-name="Group 872"><rect id="Rectangle_2063" data-name="Rectangle 2063" width="78" height="78" transform="translate(3461.497 64.62)" fill="none"/><circle id="Ellipse_5149" data-name="Ellipse 5149" cx="1.5" cy="1.5" r="1.5" transform="translate(3468.998 72.12)" fill="#30ba78"/><circle id="Ellipse_5150" data-name="Ellipse 5150" cx="1.5" cy="1.5" r="1.5" transform="translate(3488.998 72.12)" fill="#30ba78"/><circle id="Ellipse_5151" data-name="Ellipse 5151" cx="1.5" cy="1.5" r="1.5" transform="translate(3508.998 72.12)" fill="#30ba78"/><circle id="Ellipse_5152" data-name="Ellipse 5152" cx="1.5" cy="1.5" r="1.5" transform="translate(3528.998 72.12)" fill="#30ba78"/><circle id="Ellipse_5153" data-name="Ellipse 5153" cx="1.5" cy="1.5" r="1.5" transform="translate(3468.998 92.12)" fill="#30ba78"/><circle id="Ellipse_5154" data-name="Ellipse 5154" cx="1.5" cy="1.5" r="1.5" transform="translate(3488.998 92.12)" fill="#30ba78"/><circle id="Ellipse_5155" data-name="Ellipse 5155" cx="1.5" cy="1.5" r="1.5" transform="translate(3508.998 92.12)" fill="#30ba78"/><circle id="Ellipse_5156" data-name="Ellipse 5156" cx="1.5" cy="1.5" r="1.5" transform="translate(3468.998 112.12)" fill="#30ba78"/><circle id="Ellipse_5157" data-name="Ellipse 5157" cx="1.5" cy="1.5" r="1.5" transform="translate(3488.998 112.12)" fill="#30ba78"/><circle id="Ellipse_5158" data-name="Ellipse 5158" cx="1.5" cy="1.5" r="1.5" transform="translate(3508.998 112.12)" fill="#30ba78"/><circle id="Ellipse_5159" data-name="Ellipse 5159" cx="1.5" cy="1.5" r="1.5" transform="translate(3468.998 132.12)" fill="#30ba78"/><circle id="Ellipse_5160" data-name="Ellipse 5160" cx="1.5" cy="1.5" r="1.5" transform="translate(3488.998 132.12)" fill="#30ba78"/><circle id="Ellipse_5161" data-name="Ellipse 5161" cx="1.5" cy="1.5" r="1.5" transform="translate(3508.998 132.12)" fill="#30ba78"/></g><g id="Group_873" data-name="Group 873"><circle id="Ellipse_5162" data-name="Ellipse 5162" cx="1.5" cy="1.5" r="1.5" transform="translate(3468.998 150.12)" fill="#30ba78"/><circle id="Ellipse_5163" data-name="Ellipse 5163" cx="1.5" cy="1.5" r="1.5" transform="translate(3488.998 150.12)" fill="#30ba78"/><circle id="Ellipse_5164" data-name="Ellipse 5164" cx="1.5" cy="1.5" r="1.5" transform="translate(3508.998 150.12)" fill="#30ba78"/></g><g id="Group_874" data-name="Group 874"><rect id="Rectangle_2064" data-name="Rectangle 2064" width="78" height="78" transform="translate(3383.497 64.62)" fill="none"/><circle id="Ellipse_5165" data-name="Ellipse 5165" cx="1.5" cy="1.5" r="1.5" transform="translate(3390.998 72.12)" fill="#30ba78"/><circle id="Ellipse_5166" data-name="Ellipse 5166" cx="1.5" cy="1.5" r="1.5" transform="translate(3410.998 72.12)" fill="#30ba78"/><circle id="Ellipse_5167" data-name="Ellipse 5167" cx="1.5" cy="1.5" r="1.5" transform="translate(3430.998 72.12)" fill="#30ba78"/><circle id="Ellipse_5168" data-name="Ellipse 5168" cx="1.5" cy="1.5" r="1.5" transform="translate(3450.998 72.12)" fill="#30ba78"/><circle id="Ellipse_5169" data-name="Ellipse 5169" cx="1.5" cy="1.5" r="1.5" transform="translate(3390.998 92.12)" fill="#30ba78"/><circle id="Ellipse_5170" data-name="Ellipse 5170" cx="1.5" cy="1.5" r="1.5" transform="translate(3410.998 92.12)" fill="#30ba78"/><circle id="Ellipse_5171" data-name="Ellipse 5171" cx="1.5" cy="1.5" r="1.5" transform="translate(3430.998 92.12)" fill="#30ba78"/><circle id="Ellipse_5172" data-name="Ellipse 5172" cx="1.5" cy="1.5" r="1.5" transform="translate(3450.998 92.12)" fill="#30ba78"/><circle id="Ellipse_5173" data-name="Ellipse 5173" cx="1.5" cy="1.5" r="1.5" transform="translate(3390.998 112.12)" fill="#30ba78"/><circle id="Ellipse_5174" data-name="Ellipse 5174" cx="1.5" cy="1.5" r="1.5" transform="translate(3410.998 112.12)" fill="#30ba78"/><circle id="Ellipse_5175" data-name="Ellipse 5175" cx="1.5" cy="1.5" r="1.5" transform="translate(3430.998 112.12)" fill="#30ba78"/><circle id="Ellipse_5176" data-name="Ellipse 5176" cx="1.5" cy="1.5" r="1.5" transform="translate(3450.998 112.12)" fill="#30ba78"/><circle id="Ellipse_5177" data-name="Ellipse 5177" cx="1.5" cy="1.5" r="1.5" transform="translate(3390.998 132.12)" fill="#30ba78"/><circle id="Ellipse_5178" data-name="Ellipse 5178" cx="1.5" cy="1.5" r="1.5" transform="translate(3410.998 132.12)" fill="#30ba78"/><circle id="Ellipse_5179" data-name="Ellipse 5179" cx="1.5" cy="1.5" r="1.5" transform="translate(3430.998 132.12)" fill="#30ba78"/><circle id="Ellipse_5180" data-name="Ellipse 5180" cx="1.5" cy="1.5" r="1.5" transform="translate(3450.998 132.12)" fill="#30ba78"/></g><g id="Group_875" data-name="Group 875"><circle id="Ellipse_5181" data-name="Ellipse 5181" cx="1.5" cy="1.5" r="1.5" transform="translate(3450.998 150.12)" fill="#30ba78"/></g></g></g></g></g></svg>