<svg xmlns="http://www.w3.org/2000/svg" width="70.917" height="62.04" viewBox="0 0 70.917 62.04"><g id="Group_271" data-name="Group 271" transform="translate(-2151.086 -921.086)"><g id="Path_362" data-name="Path 362"><path id="Path_633" data-name="Path 633" d="M2220.32,980.421h-7.837a1.1,1.1,0,0,1-1.1-1.1v-3.977h7.563a1.183,1.183,0,0,0,0-2.365h-7.563v-3.915a1.1,1.1,0,0,1,1.1-1.1h7.836a1.241,1.241,0,0,0,0-2.482h-7.836a3.578,3.578,0,0,0-3.566,3.583v10.256a3.578,3.578,0,0,0,3.566,3.582h7.836a1.241,1.241,0,0,0,0-2.482m-23.044-7.411a10.42,10.42,0,0,1-3.454-1.064,1.9,1.9,0,0,1-.968-1.669,2.2,2.2,0,0,1,.994-1.852,4.7,4.7,0,0,1,2.8-.723,5.342,5.342,0,0,1,2.931.71,4.31,4.31,0,0,1,1.078,1.017,1.335,1.335,0,0,0,1.872.251c.03-.023.059-.047.087-.072a1.355,1.355,0,0,0,.1-1.9,6.99,6.99,0,0,0-2.028-1.584,8.818,8.818,0,0,0-4.068-.867,8.409,8.409,0,0,0-3.57.71,5.525,5.525,0,0,0-2.343,1.919,4.688,4.688,0,0,0-.811,2.68,4.185,4.185,0,0,0,.641,2.365,4.784,4.784,0,0,0,2.053,1.63,16.313,16.313,0,0,0,3.8,1.1,10.885,10.885,0,0,1,3.335,1.025,1.734,1.734,0,0,1,.956,1.524,2.026,2.026,0,0,1-1.061,1.827,5.594,5.594,0,0,1-2.917.644,6.661,6.661,0,0,1-3.284-.736,4.967,4.967,0,0,1-1.353-1.115,1.327,1.327,0,0,0-1.873-.121c-.025.022-.049.044-.072.068l-.005.005a1.339,1.339,0,0,0-.065,1.832q2.238,2.512,6.677,2.51a9.7,9.7,0,0,0,3.6-.618,5.434,5.434,0,0,0,2.42-1.774,4.367,4.367,0,0,0,.863-2.681,4.26,4.26,0,0,0-.628-2.378,4.671,4.671,0,0,0-2-1.6,15.354,15.354,0,0,0-3.7-1.065m-38.636.005a10.42,10.42,0,0,1-3.453-1.064,1.9,1.9,0,0,1-.969-1.67,2.2,2.2,0,0,1,.995-1.853,4.7,4.7,0,0,1,2.8-.722,5.337,5.337,0,0,1,2.93.71,4.276,4.276,0,0,1,1.078,1.018,1.338,1.338,0,0,0,1.875.248c.029-.023.057-.046.084-.071a1.351,1.351,0,0,0,.1-1.9,7,7,0,0,0-2.028-1.585,8.815,8.815,0,0,0-4.069-.866,8.423,8.423,0,0,0-3.571.709,5.555,5.555,0,0,0-2.341,1.919,4.713,4.713,0,0,0-.81,2.68,4.19,4.19,0,0,0,.64,2.365,4.792,4.792,0,0,0,2.055,1.631,16.374,16.374,0,0,0,3.793,1.1,10.89,10.89,0,0,1,3.337,1.025,1.732,1.732,0,0,1,.953,1.524,2.024,2.024,0,0,1-1.059,1.827,5.615,5.615,0,0,1-2.918.643,6.667,6.667,0,0,1-3.284-.736,4.96,4.96,0,0,1-1.352-1.115,1.328,1.328,0,0,0-1.875-.119c-.025.021-.049.044-.072.067h0a1.343,1.343,0,0,0-.066,1.833q2.239,2.512,6.679,2.51a9.716,9.716,0,0,0,3.6-.617,5.421,5.421,0,0,0,2.421-1.775,4.351,4.351,0,0,0,.863-2.681,4.25,4.25,0,0,0-.628-2.378,4.671,4.671,0,0,0-2-1.6,15.355,15.355,0,0,0-3.7-1.064m25.768-6.339v9.54a6.868,6.868,0,0,1-1.8,5.164,8.785,8.785,0,0,1-10.517,0,6.869,6.869,0,0,1-1.8-5.164v-9.54a1.412,1.412,0,1,1,2.824-.012v9.212a5.391,5.391,0,0,0,1.035,3.641,4.976,4.976,0,0,0,6.409,0,5.39,5.39,0,0,0,1.033-3.641v-9.2a1.413,1.413,0,1,1,2.826-.008v.008" fill="#fff" fill-rule="evenodd"/></g><g id="Path_363" data-name="Path 363"><path id="Path_634" data-name="Path 634" d="M2218.189,932.006a1.126,1.126,0,0,0-1.592-.039l-.039.039a1.168,1.168,0,0,0,.012,1.653,1.114,1.114,0,0,0,.169.138,1.15,1.15,0,0,0,1.268,0,1.171,1.171,0,0,0,.318-1.625,1.154,1.154,0,0,0-.136-.167m-1.491-3.946a4.291,4.291,0,1,0,3.182,3.2,4.293,4.293,0,0,0-3.182-3.2m-20.337,17.46c-2.007-.747-2.783-.6-5.35-.562-1.778.023-1.843-.038-3.873-.038-.627,0-.859,3.026,1.41,3.655a5.794,5.794,0,0,1,2.815,1.217c.33.341.516.854-.248.854h-5.632a3.816,3.816,0,0,1-2.67-.618,9.127,9.127,0,0,1-2.238-3.622,38.121,38.121,0,0,0-1.976-4.022,16.1,16.1,0,0,0-6.094-6.326c-3.3-1.779-8.887-2.662-13.314.761-4.666,3.608-3.666,10.364.415,13.669a8.376,8.376,0,0,0,5.778,1.73c4.036-.236,7.013-3.232,6.274-6.917a4.561,4.561,0,0,0-2.038-3.037,5.074,5.074,0,0,0-2.561-.613,3.745,3.745,0,0,0-2.651.863,2.5,2.5,0,0,0-.294,3.118c.359.516.942.95.844,1.622a1.118,1.118,0,0,1-.886.892,2.15,2.15,0,0,1-1.96-.8,5.03,5.03,0,0,1-1-5.277,6.262,6.262,0,0,1,6.034-3.473,8.748,8.748,0,0,1,7.474,5.137,9.635,9.635,0,0,1-.882,9.148c-3.99,5.87-13.842,5.177-18.419.226-2.872-3.106-4.432-6.12-4.213-11.733.153-3.966,2.427-7.872,5.325-10.621a36.092,36.092,0,0,1,17.264-8.863,38.681,38.681,0,0,1,11.71-.6,51.322,51.322,0,0,1,10.165,2.01,40.154,40.154,0,0,1,4.817,1.848,14.578,14.578,0,0,1,4.254,2.429c0-1.99-.077-4.178-.077-5.7a.8.8,0,0,1,.8-.795.813.813,0,0,1,.322.07c2.237,1.044,7.536,3.566,11.07,5.192,4.737,2.179,5.073,7.32,5.237,11.878a.612.612,0,0,1-.037.3c-.149.313-.947.228-1.24.232-.566.006-1.421,0-1.986.028-1.132.05-2.233.03-3.364-.028a9.537,9.537,0,0,1-5.466-2.182c-.135-.114-.573-.239-.779-.024a.542.542,0,0,0-.024.689,9.368,9.368,0,0,0,6.572,2.694,27.141,27.141,0,0,0,4.425-.086c1.227-.126,1.545-.211.335.7a12.777,12.777,0,0,1-3.55,1.791,18.879,18.879,0,0,1-5.583.972,21.993,21.993,0,0,1-3.432-.177c-.588-.074-1.172-.182-1.763-.243a4.7,4.7,0,0,0-1.454-.035,1.907,1.907,0,0,0-1.108.687,3.438,3.438,0,0,0-.287,2.428,4.823,4.823,0,0,0,2.306,2.376c1.051.628,2.432.843,2.7,2.046.055.252-2.177.259-2.431.254h-2.973a9.239,9.239,0,0,1-2.245-.191.252.252,0,0,1-.056-.025,1.674,1.674,0,0,1-.608-1,6.178,6.178,0,0,0-.81-1.493,6.692,6.692,0,0,0-2.776-2.421m22.51-13.281a3.152,3.152,0,1,1-3.153-3.172,3.152,3.152,0,0,1,3.153,3.172" fill="#30ba78" fill-rule="evenodd"/></g></g></svg>