<svg xmlns="http://www.w3.org/2000/svg" width="64.804" height="56.333" viewBox="0 0 64.804 56.333"><g id="Group_886" data-name="Group 886" transform="translate(-27.115 -27.141)"><path id="Path_646" data-name="Path 646" d="M57.557,100.141v8.676a6.231,6.231,0,0,1-1.648,4.7,6.655,6.655,0,0,1-4.8,1.59,6.656,6.656,0,0,1-4.8-1.59,6.229,6.229,0,0,1-1.648-4.7v-8.676a1.29,1.29,0,0,1,2.58,0v8.364a4.885,4.885,0,0,0,.944,3.31,3.72,3.72,0,0,0,2.928,1.063,3.721,3.721,0,0,0,2.927-1.063,4.888,4.888,0,0,0,.943-3.31v-8.364a1.29,1.29,0,0,1,2.581,0Zm-23.538,5.764a9.553,9.553,0,0,1-3.154-.968,1.723,1.723,0,0,1-.884-1.519,2,2,0,0,1,.908-1.684,4.31,4.31,0,0,1,2.558-.657,4.9,4.9,0,0,1,2.677.645,3.908,3.908,0,0,1,.985.926,1.225,1.225,0,1,0,1.883-1.564,6.371,6.371,0,0,0-1.853-1.441,8.075,8.075,0,0,0-3.716-.789,7.71,7.71,0,0,0-3.262.646,5.052,5.052,0,0,0-2.139,1.744,4.269,4.269,0,0,0-.741,2.437,3.8,3.8,0,0,0,.586,2.151,4.368,4.368,0,0,0,1.876,1.482,14.988,14.988,0,0,0,3.465,1,9.959,9.959,0,0,1,3.047.932,1.574,1.574,0,0,1,.872,1.386,1.839,1.839,0,0,1-.968,1.661,5.14,5.14,0,0,1-2.664.586,6.114,6.114,0,0,1-3-.669,4.533,4.533,0,0,1-1.235-1.014,1.218,1.218,0,0,0-1.778-.048l0,0a1.216,1.216,0,0,0-.06,1.667q2.045,2.283,6.1,2.283a8.906,8.906,0,0,0,3.286-.562,4.958,4.958,0,0,0,2.21-1.613,3.952,3.952,0,0,0,.789-2.438,3.858,3.858,0,0,0-.573-2.163,4.275,4.275,0,0,0-1.829-1.458A14.067,14.067,0,0,0,34.019,105.905Zm35.293-.005a9.531,9.531,0,0,1-3.154-.968,1.721,1.721,0,0,1-.884-1.517,2,2,0,0,1,.908-1.685,4.307,4.307,0,0,1,2.558-.657,4.894,4.894,0,0,1,2.677.645,3.945,3.945,0,0,1,.985.925,1.224,1.224,0,1,0,1.883-1.563,6.346,6.346,0,0,0-1.853-1.441,8.071,8.071,0,0,0-3.716-.788,7.7,7.7,0,0,0-3.262.645,5.045,5.045,0,0,0-2.139,1.744,4.262,4.262,0,0,0-.741,2.437,3.8,3.8,0,0,0,.586,2.151,4.368,4.368,0,0,0,1.876,1.482,14.976,14.976,0,0,0,3.466,1,9.972,9.972,0,0,1,3.047.932,1.575,1.575,0,0,1,.874,1.386,1.839,1.839,0,0,1-.97,1.661,5.127,5.127,0,0,1-2.663.586,6.112,6.112,0,0,1-3-.669,4.544,4.544,0,0,1-1.236-1.014,1.217,1.217,0,0,0-1.777-.048l0,0a1.215,1.215,0,0,0-.06,1.667q2.045,2.283,6.1,2.283a8.91,8.91,0,0,0,3.287-.562,4.962,4.962,0,0,0,2.21-1.613,3.953,3.953,0,0,0,.788-2.438,3.855,3.855,0,0,0-.573-2.162,4.274,4.274,0,0,0-1.828-1.458A14.1,14.1,0,0,0,69.312,105.9Zm21.05,6.739H83.2a1,1,0,0,1-1-1v-3.616h6.909a1.076,1.076,0,0,0,0-2.151H82.2v-3.558a1,1,0,0,1,1-1h7.158a1.128,1.128,0,1,0,0-2.256H83.2a3.261,3.261,0,0,0-3.257,3.258v9.326A3.262,3.262,0,0,0,83.2,114.9h7.158a1.129,1.129,0,1,0,0-2.257Z" transform="translate(0 -31.631)" fill="#0c322c"/><path id="Path_647" data-name="Path 647" d="M71.052,51.509a5.542,5.542,0,0,1,.74,1.355,1.519,1.519,0,0,0,.555.9.344.344,0,0,0,.051.023,8.456,8.456,0,0,0,2.051.173h2.716c.231,0,2.271,0,2.22-.23-.244-1.091-1.507-1.286-2.467-1.856a4.391,4.391,0,0,1-2.106-2.156,3.109,3.109,0,0,1,.262-2.2,1.754,1.754,0,0,1,1.012-.624,4.3,4.3,0,0,1,1.33.032c.539.055,1.073.153,1.61.22a20.21,20.21,0,0,0,3.135.162,17.345,17.345,0,0,0,5.1-.882A11.657,11.657,0,0,0,90.5,44.8c1.105-.822.817-.744-.3-.63a25.109,25.109,0,0,1-4.043.078,8.6,8.6,0,0,1-6-2.445.49.49,0,0,1,.022-.625c.188-.2.587-.082.711.022a8.756,8.756,0,0,0,4.994,1.979c1.033.051,2.039.071,3.073.025.516-.023,1.3-.02,1.814-.025.268,0,1,.074,1.134-.21a.566.566,0,0,0,.034-.271c-.151-4.135-.457-8.8-4.784-10.777-3.229-1.476-8.07-3.763-10.115-4.712A.727.727,0,0,0,76,27.869c0,1.382.071,3.366.071,5.172a13.31,13.31,0,0,0-3.886-2.2,36.555,36.555,0,0,0-4.4-1.677A47.18,47.18,0,0,0,58.5,27.336a35.577,35.577,0,0,0-10.7.54,33.069,33.069,0,0,0-15.772,8.042c-2.647,2.495-4.724,6.039-4.865,9.638-.2,5.093,1.226,7.828,3.849,10.646C35.2,60.694,44.2,61.323,47.845,56a8.7,8.7,0,0,0,.806-8.3,7.988,7.988,0,0,0-6.827-4.661,5.726,5.726,0,0,0-5.512,3.152,4.543,4.543,0,0,0,.914,4.788,1.97,1.97,0,0,0,1.791.721,1.014,1.014,0,0,0,.809-.809c.09-.609-.443-1-.771-1.472a2.26,2.26,0,0,1,.269-2.829,3.424,3.424,0,0,1,2.422-.783,4.639,4.639,0,0,1,2.339.556,4.136,4.136,0,0,1,1.861,2.756c.675,3.344-2.043,6.061-5.731,6.276a7.684,7.684,0,0,1-5.278-1.57c-3.728-3-4.642-9.13-.379-12.4,4.045-3.106,9.152-2.305,12.163-.691a14.667,14.667,0,0,1,5.567,5.741,34.622,34.622,0,0,1,1.805,3.649A8.276,8.276,0,0,0,56.138,53.4a3.5,3.5,0,0,0,2.439.562h5.147c.7,0,.529-.466.226-.774a5.3,5.3,0,0,0-2.57-1.105c-2.073-.57-1.862-3.316-1.288-3.316,1.854,0,1.914.055,3.538.034,2.346-.032,3.054-.168,4.887.511A6.094,6.094,0,0,1,71.052,51.509ZM90,36.375a3.9,3.9,0,1,1-2.907-2.9A3.9,3.9,0,0,1,90,36.375Zm-1.658,2.3a1.054,1.054,0,0,1-1.325-1.626,1.034,1.034,0,0,1,1.489,0A1.059,1.059,0,0,1,88.343,38.677Z" transform="translate(-0.016)" fill="#30ba78"/></g></svg>