<svg xmlns="http://www.w3.org/2000/svg" xmlns:xlink="http://www.w3.org/1999/xlink" aria-hidden="true" focusable="false" width="1em" height="1em" style="-ms-transform: rotate(360deg); -webkit-transform: rotate(360deg); transform: rotate(360deg);" preserveAspectRatio="xMidYMid meet" viewBox="0 0 32 32"><path d="M7.288 23.292l7.997-7.997l1.415 1.414l-7.998 7.997z" fill="#626262"/><path d="M17 30a1 1 0 0 1-.37-.07a1 1 0 0 1-.62-.79l-1-7l2-.28l.75 5.27L21 24.52V17a1 1 0 0 1 .29-.71l4.07-4.07A8.94 8.94 0 0 0 28 5.86V4h-1.86a8.94 8.94 0 0 0-6.36 2.64l-4.07 4.07A1 1 0 0 1 15 11H7.48l-2.61 3.26l5.27.75l-.28 2l-7-1a1 1 0 0 1-.79-.62a1 1 0 0 1 .15-1l4-5A1 1 0 0 1 7 9h7.59l3.77-3.78A10.92 10.92 0 0 1 26.14 2H28a2 2 0 0 1 2 2v1.86a10.92 10.92 0 0 1-3.22 7.78L23 17.41V25a1 1 0 0 1-.38.78l-5 4A1 1 0 0 1 17 30z" fill="#626262"/></svg>