<?xml version="1.0" standalone="no"?>
<!DOCTYPE svg PUBLIC "-//W3C//DTD SVG 1.1//EN" "http://www.w3.org/Graphics/SVG/1.1/DTD/svg11.dtd" >
<svg xmlns="http://www.w3.org/2000/svg" xmlns:xlink="http://www.w3.org/1999/xlink" version="1.1">
<metadata>
Created by FontForge 20160407 at Thu Jun 16 14:27:34 2016
 By Jimmy Wärting
</metadata>
<defs>
<font id="helion-icons" horiz-adv-x="1024" >
  <font-face 
    font-family="helion-icons"
    font-weight="400"
    font-stretch="normal"
    units-per-em="1024"
    panose-1="0 0 0 0 0 0 0 0 0 0"
    ascent="960"
    descent="-64"
    bbox="-0.902439 -66 1028 962"
    underline-thickness="0"
    underline-position="0"
    unicode-range="U+0001-FFFD"
  />
<missing-glyph 
 />
    <glyph glyph-name=".notdef" unicode="&#xfffd;" 
 />
    <glyph glyph-name="glyph1" horiz-adv-x="0" 
d="M0 0v0v0v0z" />
    <glyph glyph-name="glyph1" horiz-adv-x="0" 
d="M0 0v0v0v0z" />
    <glyph glyph-name="nonmarkingreturn" horiz-adv-x="341" 
 />
    <glyph glyph-name="uni0001" horiz-adv-x="0" 
d="M0 0v0v0v0z" />
    <glyph glyph-name="space" unicode=" " horiz-adv-x="512" 
d="M0 0v0v0v0z" />
    <glyph glyph-name="uniE900" unicode="&#xe900;" 
d="M512 958l-469 -189v-642l469 -189l469 189v642l-469 189v0zM824 741l-312 -126l-312 126l312 125l312 -125v0zM896 184l-384 -154l-384 154v493l384 -154l384 154v-493zM555 405h116q-24 -20 -64.5 -44t-91.5 -34t-110 2.5t-121 65.5l-56 -65q60 -51 120 -72.5t116 -21.5
q80 0 147.5 32t113.5 71v-104h86v256h-256v-86z" />
    <glyph glyph-name="uniE901" unicode="&#xe901;" 
d="M827 402l-137 -137l-70 69l-60 -60l130 -130l198 198zM1024 277q0 75 -33.5 138t-89.5 104q18 23 28 51t10 61v209h-195v77h-550v-77h-194v-209q0 -80 56.5 -133t140.5 -53h25q14 -30 35 -55.5t48 -44.5q-27 -26 -44 -58.5t-24 -68.5h-82v-239h586h-1q60 3 111.5 27.5
t90 65t60.5 93t22 112.5v0zM84 631v124h110v-190q0 -10 1 -18.5t2 -17.5q-42 0 -77.5 26t-35.5 76v0zM855 755v-124q0 -24 -9 -41.5t-23 -30.5q-18 7 -38 11t-41 5v180h111v0zM278 565v268h382v-264q-76 -17 -133.5 -69t-83.5 -125q-69 9 -117 63t-48 127v0zM433 218h-110
q8 26 24 47.5t39 36.5q10 -3 20.5 -5.5t20.5 -3.5v-8v-8q0 -15 1.5 -29.5t4.5 -29.5v0zM240 63v71h223q11 -20 25 -38t30 -33h-278v0zM725 64q-44 0 -82.5 17t-67.5 46t-46 67.5t-17 82.5t17 83t46 68t67.5 46t82.5 17t83 -17t68 -46t46 -68t17 -83t-17 -82.5t-46 -67.5
t-68 -46t-83 -17z" />
    <glyph glyph-name="uniE902" unicode="&#xe902;" 
d="M73 -51l-60 60l101 102q-38 44 -55.5 98t-15.5 109.5t24 108t64 94.5l72 73l455 -457l-68 -67q-43 -44 -99.5 -67.5t-118.5 -23.5q-55 0 -105.5 18.5t-91.5 52.5l-102 -101v0zM214 130q32 -32 72.5 -49t85.5 -17t85.5 17t72.5 49l7 7l-334 336l-12 -12q-31 -32 -47 -72
t-16 -82t16 -82t47 -72l23 -23v0zM821 302l-106 107l-100 -100l-60 61l99 99l-120 122l-100 -100l-61 60l101 100l-108 108l68 67q43 44 99.5 67.5t118.5 23.5q55 0 105.5 -18.5t91.5 -52.5l102 102l60 -61l-101 -102q38 -44 55.5 -98t15.5 -109.5t-24 -108t-64 -94.5
l-72 -73v0zM487 759l334 -336l12 12q32 32 47.5 72t15.5 82t-15.5 82t-47.5 72l-23 23q-32 32 -72.5 49t-85.5 17t-85.5 -17t-72.5 -49v0l-7 -7v0z" />
    <glyph glyph-name="uniE903" unicode="&#xe903;" 
d="M555 -64h-86v130q-55 7 -105 28t-92 54l-92 -92l-60 60l92 92q-33 42 -54 92t-28 105h-130v86h130q7 55 28 105t54 92l-92 92l60 60l92 -92q42 33 92 54t105 28v130h86v-130q55 -7 105 -28t92 -54l92 92l60 -60l-92 -92q33 -42 54 -92t28 -105h130v-86h-130
q-7 -55 -28 -105t-54 -92l92 -92l-60 -60l-92 92q-42 -33 -92 -54t-105 -28v-130v0zM512 747q-62 0 -116.5 -23.5t-95 -64t-64 -95t-23.5 -116.5t23.5 -116.5t64 -95t95 -64t116.5 -23.5t116.5 23.5t95 64t64 95t23.5 116.5t-23.5 116.5t-64 95t-95 64t-116.5 23.5v0z
M512 277q-71 0 -121 50t-50 121t50 121t121 50t121 -50t50 -121t-50 -121t-121 -50zM512 533q-35 0 -60 -25t-25 -60t25 -60t60 -25t60 25t25 60t-25 60t-60 25v0z" />
    <glyph glyph-name="uniE904" unicode="&#xe904;" 
d="M1004 448q0 102 -38.5 191.5t-105.5 156.5t-156.5 105.5t-191.5 38.5v0q-102 0 -191.5 -38.5t-156.5 -105.5t-105.5 -156.5t-38.5 -191.5v0q0 -102 38.5 -191.5t105.5 -156.5t156.5 -105.5t191.5 -38.5v0q102 0 191.5 38.5t156.5 105.5t105.5 156.5t38.5 191.5v0z
M459 237l-197 199l57 57l138 -139l295 299l57 -58l-350 -358v0z" />
    <glyph glyph-name="uniE905" unicode="&#xe905;" 
d="M922 448q0 84 -32.5 159t-88 130.5t-130.5 88t-159 32.5v0q-84 0 -159 -32.5t-130.5 -88t-88 -130.5t-32.5 -159v0q0 -84 32.5 -159t88 -130.5t130.5 -88t159 -32.5v0q84 0 159 32.5t130.5 88t88 130.5t32.5 159v0zM447 281l-164 164l48 47l116 -116l246 249l48 -47
l-294 -297v0z" />
    <glyph glyph-name="uniE906" unicode="&#xe906;" 
d="M967 448q0 -94 -36 -177t-97.5 -144.5t-144.5 -97.5t-177 -36v0q-94 0 -177 36t-144.5 97.5t-97.5 144.5t-36 177v0q0 94 36 177t97.5 144.5t144.5 97.5t177 36v0q94 0 177 -36t144.5 -97.5t97.5 -144.5t36 -177v0z" />
    <glyph glyph-name="uniE907" unicode="&#xe907;" 
d="M896 533v128h-85v-128h-128v-85h128v-128h85v128h128v85h-128zM539 458q46 35 73.5 88t27.5 115q0 53 -20 100t-55 81.5t-81.5 54.5t-99.5 20t-99.5 -20t-81.5 -54.5t-55 -81.5t-20 -100q0 -62 27.5 -115t73.5 -88q-50 -23 -92.5 -58.5t-72.5 -81t-47 -99.5t-17 -112
v-171h768v171q0 58 -17 112t-47 99.5t-72.5 81t-92.5 58.5v0z" />
    <glyph glyph-name="uniE908" unicode="&#xe908;" 
d="M768 -64h-85v171q0 61 -23.5 115.5t-64 95t-95 64t-116.5 23.5t-116.5 -23.5t-95 -64t-64 -95t-23.5 -115.5v-171h-85v171q0 58 17 112t47 99.5t72 81t93 58.5q-46 35 -73.5 88t-27.5 115q0 53 20 100t55 81.5t81.5 54.5t99.5 20t99.5 -20t81.5 -54.5t55 -81.5t20 -100
q0 -62 -27.5 -115t-73.5 -88q51 -23 93 -58.5t72 -81t47 -99.5t17 -112v-171v0zM384 832q-71 0 -121 -50t-50 -121q0 -70 50 -120t121 -50t121 50t50 120q0 71 -50 121t-121 50zM597 -64h-85v171h85v-171zM256 -64h-85v171h85v-171zM896 320h-85v128h-128v85h128v128h85
v-128h128v-85h-128v-128z" />
    <glyph glyph-name="uniE909" unicode="&#xe909;" 
d="M555 -64h-86v469h-469v86h469v469h86v-469h469v-86h-469v-469z" />
    <glyph glyph-name="uniE90A" unicode="&#xe90a;" 
d="M546 -64q-62 0 -105.5 44t-43.5 105q0 62 43.5 106t105.5 44q19 0 37 -5t34 -13l249 249l158 -159l-60 -60l-98 98l-47 -46l98 -98l-60 -61l-98 98l-82 -82q9 -16 13.5 -33.5t4.5 -37.5q0 -61 -43.5 -105t-105.5 -44v0zM546 149q-27 0 -45.5 -18.5t-18.5 -45.5
q0 -26 18.5 -45t45.5 -19q26 0 45 19t19 45q0 27 -19 45.5t-45 18.5zM341 -64h-341v213q0 59 17 113t47 99.5t72 81t93 58.5q-46 35 -73.5 88t-27.5 115q0 53 20 99.5t55 81.5t81.5 55t99.5 20t99.5 -20t81.5 -55t55 -81.5t20 -99.5q0 -62 -27.5 -115t-73.5 -88
q38 -17 71.5 -41.5t61.5 -56.5l-64 -56q-42 48 -101 74.5t-123 26.5q-62 0 -116.5 -23.5t-95 -64t-64 -95t-23.5 -116.5v-128h256v-85v0zM384 875q-71 0 -121 -50t-50 -121t50 -121t121 -50t121 50t50 121t-50 121t-121 50z" />
    <glyph glyph-name="uniE90B" unicode="&#xe90b;" 
d="M845 -36l-237 236q-46 -37 -103.5 -57.5t-120.5 -20.5q-75 0 -141 28.5t-115.5 77.5t-78 115t-28.5 141t28.5 141t78 115.5t115.5 78t141 28.5t141 -28.5t115.5 -78t78 -115.5t28.5 -141q0 -63 -21 -120.5t-57 -103.5l236 -236l-60 -60v0zM384 762q-57 0 -107.5 -22
t-88.5 -59.5t-59.5 -88t-21.5 -108.5q0 -57 21.5 -107.5t59.5 -88t88.5 -59.5t107.5 -22t107.5 22t88.5 59.5t59.5 88t21.5 107.5q0 58 -21.5 108.5t-59.5 88t-88.5 59.5t-107.5 22v0zM917 676h-85v86h-85v85h85v85h85v-85h86v-85h-86v-86z" />
    <glyph glyph-name="uniE90C" unicode="&#xe90c;" 
d="M720 656q-10 65 -42 120.5t-79.5 96.5t-108 64t-127.5 23q-75 0 -141 -28.5t-115.5 -78t-78 -115.5t-28.5 -141q0 -67 23 -127.5t64 -108t96.5 -79.5t119.5 -42q11 -65 43 -120.5t79.5 -96.5t108 -64t127.5 -23q75 0 141 28.5t115.5 78t78 115.5t28.5 141q0 67 -23 127.5
t-64 108t-96.5 79.5t-120.5 42zM85 597q0 58 22 108.5t59.5 88t88 59.5t108.5 22q49 0 93 -16.5t79.5 -45t60.5 -67.5t36 -85h-333v-333q-46 11 -85 36t-67.5 60.5t-45 79.5t-16.5 93zM640 576v-256h-256v256h256zM661 21q-49 0 -93 16.5t-79.5 45t-61 67.5t-36.5 85h334
v334q46 -11 85 -36.5t67.5 -61t45 -79.5t16.5 -93q0 -58 -22 -108.5t-59.5 -88t-88 -59.5t-108.5 -22v0z" />
    <glyph glyph-name="uniE90D" unicode="&#xe90d;" 
d="M512 917l-512 -938h1024zM555 149h-86v86h86v-86zM469 277v256h86v-256h-86v0z" />
    <glyph glyph-name="uniE90E" unicode="&#xe90e;" 
d="M512 739l368 -675h-736zM512 917l-512 -938h1024zM469 533h86v-256h-86v256v0zM469 235h86v-86h-86v86v0z" />
    <glyph glyph-name="uniE90F" unicode="&#xe90f;" 
d="M512 -64q-97 0 -182.5 37t-149 100.5t-100.5 149t-37 182.5q0 92 33 173.5t90.5 144t135.5 102.5t167 48v87h43q65 0 127.5 -15t120 -43.5t107 -70t89.5 -93.5l25 -34l-69 -52q34 -56 51.5 -118.5t17.5 -128.5q0 -97 -37 -182.5t-100.5 -149t-149 -100.5t-182.5 -37v0z
M469 787q-72 -8 -134 -41t-108 -84t-72.5 -117t-26.5 -140q0 -79 30 -149t82.5 -122t122.5 -82.5t149 -30.5t149 30.5t122.5 82.5t82.5 122t30 149q0 52 -13.5 101.5t-39.5 93.5l-374 -280v467v0zM555 873v-382l305 229q-29 33 -64 59t-74 45.5t-81.5 32t-85.5 16.5v0z" />
    <glyph glyph-name="uniE910" unicode="&#xe910;" 
d="M512 -64h-256v299q-53 0 -99.5 20t-81.5 55t-55 81.5t-20 99.5t20 99.5t55 81.5t81.5 55t99.5 20h213q57 0 113 22.5t100 50t71.5 50.5t28.5 24l71 66v-298q71 0 121 -50t50 -121t-50 -121t-121 -50v-292l-71 64q0 1 -23 19.5t-60.5 42.5t-86 46.5t-100.5 30.5v-295v0z
M341 21h86v214h-86v-214v0zM512 317q75 -9 142.5 -42t113.5 -65v564q-46 -32 -113.5 -66t-142.5 -44v-347zM256 320h171v342h-171q-71 0 -121 -50t-50 -121t50 -121t121 -50zM853 491v-85q36 0 61 25t25 60t-25 60t-61 25v-85z" />
    <glyph glyph-name="uniE911" unicode="&#xe911;" 
d="M256 704h-171v171h171v-171zM597 875h-170v-171h170v171zM939 875h-171v-171h171v171zM256 533h-171v-170h171v170zM597 533h-170v-170h170v170zM939 533h-171v-170h171v170zM256 192h-171v-171h171v171zM597 192h-170v-171h170v171zM939 192h-171v-171h171v171z" />
    <glyph glyph-name="uniE912" unicode="&#xe912;" 
d="M791 416q1 -58 22.5 -97.5t47 -64t46.5 -35t22 -10.5q-1 -3 -17.5 -47.5t-53.5 -98.5q-32 -47 -68 -86t-89 -40q-51 -1 -80.5 20t-88.5 21q-58 0 -88.5 -20t-78.5 -22q-51 -2 -90.5 40.5t-71.5 89.5q-33 47 -60 111.5t-39.5 135t-6 140.5t40.5 129q34 58 90.5 92.5
t121.5 35.5q49 1 93.5 -22t75.5 -23q30 0 83 26.5t113 20.5q25 -1 83.5 -18t103.5 -83q-4 -2 -57.5 -50t-53.5 -145v0zM663 796q26 33 42 76t11 88q-39 -2 -81 -23.5t-70 -54.5q-25 -28 -42.5 -71t-11.5 -87q43 -3 84 18.5t68 53.5z" />
    <glyph glyph-name="uniE913" unicode="&#xe913;" 
d="M939 -64h-854v725h-85v299h1024v-299h-85v-725v0zM171 21h682v640h-682v-640v0zM939 747v128h-854v-128h854zM683 320h-342v256h342v-256zM427 405h170v86h-170v-86v0z" />
    <glyph glyph-name="uniE914" unicode="&#xe914;" 
d="M875 21h-704q-2 0 -4 0.5t-4 0.5q-3 0 -6.5 -0.5t-7.5 -0.5q-61 0 -105 44t-44 106v533h213v171h811v-704q0 -62 -44 -106t-105 -44zM284 107h591q26 0 45 18.5t19 45.5v618h-640v-618q0 -17 -4 -33.5t-11 -30.5v0zM85 619v-448q0 -27 19 -45.5t45 -18.5q27 0 45.5 18.5
t18.5 45.5v448h-128zM640 704h213v-256h-213v256zM384 704h171v-85h-171v85zM384 533h171v-85h-171v85v0zM384 363h469v-86h-469v86v0z" />
    <glyph glyph-name="uniE915" unicode="&#xe915;" 
d="M469 21h555v-85h-555v85v0zM342 -64h-87v875l-188 -157l-56 66l288 240l287 -240l-55 -66l-189 157v-875zM469 192h470v-85h-470v85zM469 363h384v-86h-384v86v0zM469 535h304v-87h-304v87v0z" />
    <glyph glyph-name="uniE916" unicode="&#xe916;" 
d="M355 -64q-59 0 -113 22.5t-96 64.5l-3 3q-42 42 -64.5 96t-22.5 113t22.5 113t64.5 96l454 454q30 30 68.5 46t80.5 16q43 0 81.5 -16t68.5 -46q31 -32 47.5 -70.5t16.5 -80.5q0 -43 -16 -81.5t-46 -68.5l-453 -453q-37 -37 -89.5 -37t-90.5 37q-38 38 -38 91t37 90
l403 402l60 -60l-403 -402q-12 -13 -12 -30t12 -29q14 -14 31 -14t30 12l453 453q18 18 27.5 41t9.5 49q0 25 -9.5 48t-27.5 41q-40 39 -92.5 38.5t-88.5 -36.5l-454 -454q-30 -30 -46 -68.5t-16 -80.5t16 -80.5t46 -68.5l3 -3q30 -30 68.5 -46t80.5 -16t80.5 16t68.5 46
l404 404l60 -61l-404 -403q-42 -42 -96 -64.5t-113 -22.5v0z" />
    <glyph glyph-name="uniE917" unicode="&#xe917;" 
d="M1024 -21h-1024v85h1024v-85zM981 149h-256v768h256v-768zM811 235h85v597h-85v-597zM640 149h-256v427h256v-427zM469 235h86v256h-86v-256v0zM299 149h-256v598h256v-598zM128 235h85v426h-85v-426z" />
    <glyph glyph-name="uniE918" unicode="&#xe918;" 
d="M192 -43q-71 0 -121 50t-50 121v341h86v-193q19 11 40.5 17t44.5 6q71 0 121 -50t50 -121t-50 -121t-121 -50v0zM192 213q-35 0 -60 -25t-25 -60t25 -60t60 -25t60 25t25 60t-25 60t-60 25v0zM1003 128h-86q0 150 -57 282t-155.5 230.5t-230.5 155.5t-282 57v86
q168 0 315.5 -64t257.5 -174t174 -257.5t64 -315.5v0zM789 128h-85q0 106 -40.5 199t-110 162.5t-162.5 110t-199 40.5v85q124 0 232.5 -47t189.5 -128t128 -189.5t47 -232.5zM576 128h-85q0 62 -23.5 116.5t-64 95t-95 64t-116.5 23.5v85q79 0 149 -30t122.5 -82.5
t82.5 -122.5t30 -149v0z" />
    <glyph glyph-name="uniE919" unicode="&#xe919;" 
d="M939 -64h-704q-57 0 -98.5 37t-49.5 91h-2v747q0 61 44 105t106 44h704v-811h-64q-27 0 -45.5 -18.5t-18.5 -45.5q0 -26 18.5 -45t45.5 -19h64v-85zM235 149q-27 0 -45.5 -18.5t-18.5 -45.5q0 -26 18.5 -45t45.5 -19h505q-7 15 -11 31t-4 33t4 33.5t11 30.5h-505v0z
M235 875q-27 0 -45.5 -19t-18.5 -45v-591q14 7 30.5 11t33.5 4h618v640h-128v-464l-170 114l-171 -114v464h-149v0zM555 627l85 -57v305h-171v-305l86 57v0z" />
    <glyph glyph-name="uniE91A" unicode="&#xe91a;" 
d="M170 960v-1024l342 244l342 -244v1024h-684z" />
    <glyph glyph-name="uniE91B" unicode="&#xe91b;" 
d="M853 -64l-341 244l-341 -244v1024h682v-1024v0zM512 285l256 -183v772h-512v-772z" />
    <glyph glyph-name="uniE91C" unicode="&#xe91c;" 
d="M939 21h-512v86h426v426h86v-512z" />
    <glyph glyph-name="uniE91D" unicode="&#xe91d;" 
d="M939 -21h-854v85h854v-85zM512 132l-329 329l60 60l226 -226v622h86v-622l226 226l60 -60l-329 -329v0z" />
    <glyph glyph-name="uniE91E" unicode="&#xe91e;" 
d="M853 363h171v85h-171v100q38 12 82 42t87 89l-69 50q-44 -61 -88 -82.5t-69 -25.5q-8 4 -17 9.5t-19 10.5q4 15 6 31t2 32q0 53 -20 99.5t-55 81.5t-81.5 55t-99.5 20t-99.5 -20t-81.5 -55t-55 -81.5t-20 -99.5q0 -16 2 -32t6 -31q-10 -5 -19 -10.5t-17 -9.5
q-26 4 -69.5 25.5t-87.5 82.5l-69 -50q43 -59 87.5 -89t81.5 -42v-100h-171v-85h171v-89v-5.5v-5.5q-35 -12 -80.5 -42t-88.5 -89l69 -50q30 40 59.5 62t54.5 33q16 -52 47.5 -96.5t74 -76.5t95 -50t110.5 -18t110.5 18t95 50t74 76.5t47.5 96.5q25 -11 54.5 -33t59.5 -62
l69 50q-43 59 -88.5 89t-80.5 42v5.5v5.5v89v0zM341 704q0 71 50 121t121 50t121 -50t50 -121q0 -7 -1 -14l-2 -14q-35 12 -77 20t-91 8t-91 -8t-77 -20l-2 14t-1 14zM768 274q0 -47 -16.5 -89t-45 -75t-67.5 -55t-84 -30v423h-86v-423q-45 8 -84 30t-67.5 55t-45 75
t-16.5 89v263q35 22 99 52t158 30q94 -1 157 -30.5t98 -51.5v-263v0z" />
    <glyph glyph-name="uniE91F" unicode="&#xe91f;" 
d="M768 -21h-512v42h-256v854h256v42h512v-42h256v-854h-256v-42zM341 64h342v299h-342v-299zM768 107h171v85h-171v-85zM85 107h171v85h-171v-85zM768 277h171v86h-171v-86zM85 277h171v86h-171v-86zM768 448h171v341h-171v-341zM341 448h342v384h-342v-384zM85 448h171
v341h-171v-341z" />
    <glyph glyph-name="uniE920" unicode="&#xe920;" 
d="M981 -64h-896v1024h896v-1024zM171 21h725v854h-725v-854v0zM256 448h128v-128h-128v128zM469 448h128v-128h-128v128v0zM683 448h128v-128h-128v128zM256 235h128v-128h-128v128zM469 235h128v-128h-128v128v0zM683 235h128v-128h-128v128zM811 533h-555v256h555v-256z
M341 619h384v85h-384v-85v0z" />
    <glyph glyph-name="uniE921" unicode="&#xe921;" 
d="M1024 -64h-1024v896h213v128h86v-128h426v128h86v-128h213v-896v0zM85 21h854v470h-854v-470v0zM85 576h854v171h-854v-171v0z" />
    <glyph glyph-name="uniE922" unicode="&#xe922;" 
d="M794 747l-85 170h-394l-85 -170h-230v-768h1024v768h-230v0zM512 171q-49 0 -91.5 18.5t-74.5 50t-50.5 74.5t-18.5 91q0 49 18.5 91.5t50.5 74.5t74.5 50.5t91.5 18.5t91.5 -18.5t74.5 -50.5t50.5 -74.5t18.5 -91.5q0 -48 -18.5 -91t-50.5 -74.5t-74.5 -50t-91.5 -18.5z
" />
    <glyph glyph-name="uniE923" unicode="&#xe923;" 
d="M1024 -21h-1024v768h230l85 170h394l85 -170h230v-768v0zM85 64h854v597h-197l-86 171h-288l-86 -171h-197v-597v0zM512 149q-53 0 -99.5 20.5t-81.5 55t-55 81t-20 99.5t20 100t55 81.5t81.5 54.5t99.5 20t99.5 -20t81.5 -54.5t55 -81.5t20 -100t-20 -99.5t-55 -81
t-81.5 -55t-99.5 -20.5zM512 576q-71 0 -121 -50t-50 -121q0 -70 50 -120t121 -50t121 50t50 120q0 71 -50 121t-121 50z" />
    <glyph glyph-name="uniE924" unicode="&#xe924;" 
d="M1024 107h-1024v682h1024v-682zM85 192h854v512h-854v-512v0zM683 235h-256v426h256v-426zM512 320h85v256h-85v-256zM384 235h-256v426h256v-426zM213 320h86v256h-86v-256z" />
    <glyph glyph-name="uniE925" unicode="&#xe925;" 
d="M427 841v-314h-308v314h308zM119 369v-314h308v314h-308v0zM597 841v-314h308v314h-308v0zM597 369v-314h308v314h-308v0z" />
    <glyph glyph-name="uniE926" unicode="&#xe926;" 
d="M512 -29l-512 140v727l171 -43v130l341 -97l341 97v-130l171 43v-727l-512 -140v0zM85 176l427 -117l427 117v552l-86 -21v-468l-341 -98l-341 98v468l-86 21v-552v0zM555 751v-509l213 61v509l-213 -61v0zM256 303l213 -61v509l-213 61v-509v0z" />
    <glyph glyph-name="uniE927" unicode="&#xe927;" 
d="M213 -64h-85v128h-128v85h128v128h85v-128h128v-85h-128v-128v0zM811 64h-384v85h298v555h-512v-341h-85v426h171v171h682v-725h-170v-171v0zM811 320h85v555h-512v-86h427v-469v0z" />
    <glyph glyph-name="uniE928" unicode="&#xe928;" 
d="M85 -59v166h-85v554h341v299h683v-555h-85v-165l-247 165h-9v-298h-351zM85 192h86v-91l135 91h291v384h-512v-384v0zM683 491h35l135 -91v91h86v384h-512v-214h256v-170v0z" />
    <glyph glyph-name="uniE929" unicode="&#xe929;" 
d="M102 858v-820h820v820h-820v0zM850 113h-673v670h673v-670zM775 608l-48 48l-307 -317l-123 129l-48 -47l171 -181z" />
    <glyph glyph-name="uniE92A" unicode="&#xe92a;" 
d="M922 38h-820v820h820v-820zM177 113h670v670h-670v-670v0z" />
    <glyph glyph-name="uniE92B" unicode="&#xe92b;" 
d="M922 38h-820v820h820v-820zM177 113h670v670h-670v-670v0zM324 636h372v-372h-372v372v0z" />
    <glyph glyph-name="uniE92C" unicode="&#xe92c;" 
d="M372 83l-324 327l58 58l266 -269l546 553l58 -58z" />
    <glyph glyph-name="uniE92D" unicode="&#xe92d;" 
d="M258 513l-146 254q35 44 79 80t95 61t108 38.5t118 13.5q70 0 135 -18t122 -51t103.5 -79.5t80.5 -102.5h-418q-6 0 -11.5 0.5t-11.5 0.5q-46 0 -87 -15t-74.5 -41t-57.5 -62t-35 -79v0zM695 635h294q17 -43 26 -90.5t9 -96.5q0 -105 -39.5 -198t-108.5 -162.5t-161 -110
t-197 -41.5l209 363q22 31 34.5 69t12.5 80q0 55 -21 103t-58 84v0zM326 448q0 77 54.5 131.5t131.5 54.5t131.5 -54.5t54.5 -131.5t-54.5 -131.5t-131.5 -54.5t-131.5 54.5t-54.5 131.5zM582 195l-146 -253q-93 13 -172.5 58t-138 112.5t-92 153.5t-33.5 182q0 68 17 131.5
t49 119.5l209 -362q31 -67 94.5 -109t142.5 -42q18 0 35.5 2.5t34.5 6.5v0z" />
    <glyph glyph-name="uniE92E" unicode="&#xe92e;" 
d="M512 -64q-62 0 -105.5 44t-43.5 105q0 62 43.5 106t105.5 44t105.5 -44t43.5 -106q0 -61 -43.5 -105t-105.5 -44zM512 149q-26 0 -45 -18.5t-19 -45.5q0 -26 19 -45t45 -19t45 19t19 45q0 27 -19 45.5t-45 18.5zM853 107q-61 0 -105 43.5t-44 105.5t44 105.5t105 43.5
q62 0 106 -43.5t44 -105.5t-44 -105.5t-106 -43.5zM853 320q-26 0 -45 -19t-19 -45t19 -45t45 -19q27 0 45.5 19t18.5 45t-18.5 45t-45.5 19zM171 107q-62 0 -106 43.5t-44 105.5t44 105.5t106 43.5q61 0 105 -43.5t44 -105.5t-44 -105.5t-105 -43.5zM171 320
q-27 0 -45.5 -19t-18.5 -45t18.5 -45t45.5 -19q26 0 45 19t19 45t-19 45t-45 19zM853 491q-61 0 -105 43.5t-44 105.5t44 105.5t105 43.5q62 0 106 -43.5t44 -105.5t-44 -105.5t-106 -43.5v0zM853 704q-26 0 -45 -19t-19 -45t19 -45t45 -19q27 0 45.5 19t18.5 45t-18.5 45
t-45.5 19zM171 491q-62 0 -106 43.5t-44 105.5t44 105.5t106 43.5q61 0 105 -43.5t44 -105.5t-44 -105.5t-105 -43.5v0zM171 704q-27 0 -45.5 -19t-18.5 -45t18.5 -45t45.5 -19q26 0 45 19t19 45t-19 45t-45 19zM512 661q-62 0 -105.5 44t-43.5 106q0 61 43.5 105t105.5 44
t105.5 -44t43.5 -105q0 -62 -43.5 -106t-105.5 -44zM512 875q-26 0 -45 -19t-19 -45q0 -27 19 -45.5t45 -18.5t45 18.5t19 45.5q0 26 -19 45t-45 19z" />
    <glyph glyph-name="uniE92F" unicode="&#xe92f;" 
d="M939 -64h-854v939h214v85h426v-85h214v-939zM171 21h682v768h-128v-128h-426v128h-128v-768v0zM384 747h256v128h-256v-128z" />
    <glyph glyph-name="uniE930" unicode="&#xe930;" 
d="M939 427q0 27 -4 54t-10 53q46 32 72.5 82.5t26.5 108.5q0 49 -18.5 91.5t-50.5 74.5t-74.5 50.5t-91.5 18.5q-62 0 -115.5 -30.5t-84.5 -83.5q-19 3 -38 5t-39 2t-39 -2t-38 -5q-31 53 -84.5 83.5t-115.5 30.5q-49 0 -91.5 -18.5t-74.5 -50.5t-50.5 -74.5t-18.5 -91.5
q0 -58 26.5 -108.5t72.5 -82.5q-6 -26 -10 -53t-4 -54q0 -83 30 -156.5t82 -130.5l-142 -142l60 -60l145 145q53 -39 117 -61t135 -22t135 22t117 61l145 -145l60 60l-142 142q52 57 82 130.5t30 156.5v0zM789 875q62 0 106 -44t44 -106q0 -31 -12 -59t-34 -48
q-34 68 -90.5 120.5t-127.5 82.5q21 25 51 39.5t63 14.5v0zM85 725q0 62 44 106t106 44q33 0 63 -14.5t51 -39.5q-71 -30 -127.5 -82.5t-90.5 -120.5q-22 20 -34 48t-12 59v0zM171 427q0 70 26.5 132.5t73 108.5t108.5 73t133 27t133 -27t108.5 -73t73 -108.5t26.5 -132.5
q0 -71 -26.5 -133t-73 -108.5t-108.5 -73.5t-133 -27t-133 27t-108.5 73.5t-73 108.5t-26.5 133v0zM555 640h-86v-231l141 -140l60 60l-115 115v196z" />
    <glyph glyph-name="uniE931" unicode="&#xe931;" 
d="M642 257l-164 164v232h68v-205l143 -143zM864 434q0 71 -27 133t-73.5 108.5t-108.5 73.5t-133 27q-70 0 -132 -27t-108.5 -73.5t-73.5 -108.5t-27 -133q0 -70 27 -132t73.5 -108.5t108.5 -73.5t132 -27q71 0 133 27t108.5 73.5t73.5 108.5t27 132v0zM795 434
q0 -56 -21.5 -105.5t-58.5 -87t-86.5 -59t-106.5 -21.5q-56 0 -105.5 21.5t-87 59t-59 87t-21.5 105.5q0 57 21.5 106.5t59 86.5t87 58.5t105.5 21.5q57 0 106.5 -21.5t86.5 -58.5t58.5 -86.5t21.5 -106.5z" />
    <glyph glyph-name="uniE932" unicode="&#xe932;" 
d="M1024 -64h-764v764h764v-764zM345 23h594v594h-594v-594zM171 192h-171v171h85v-86h86v-85v0zM85 448h-85v256h85v-256zM768 789h-85v86h-86v85h171v-171v0zM85 789h-85v171h171v-85h-86v-86v0zM512 875h-256v85h256v-85z" />
    <glyph glyph-name="uniE933" unicode="&#xe933;" 
d="M866 34l-354 354l-354 -354l-60 60l354 354l-354 354l60 60l354 -354l354 354l60 -60l-354 -354l354 -354z" />
    <glyph glyph-name="uniE934" unicode="&#xe934;" 
d="M811 747v4q0 44 -16.5 82t-45.5 66.5t-68 44.5t-84 16h-128q-45 0 -83.5 -16t-67.5 -44.5t-45.5 -66.5t-16.5 -82v-4h-3q-53 0 -99.5 -20t-80.5 -54.5t-53.5 -81t-19.5 -100.5q0 -49 16 -92t44.5 -76.5t67.5 -55.5t85 -29v87q-55 13 -91.5 59t-36.5 107q0 72 48.5 121
t119.5 49h297v86h-209v4q0 52 37.5 88t90.5 36h128q54 0 91 -36t37 -88v-85h43q71 0 121 -50.5t50 -121.5q0 -60 -37 -107t-91 -63v-87q45 7 84 30t67.5 57.5t45 78t16.5 91.5t-16.5 90.5t-45 76t-67.5 56.5t-84 30v0zM725 107v384h-426v-384h170v-86h-85v-85h256v85h-85v86
h170v0zM384 192v213h256v-213h-256z" />
    <glyph glyph-name="uniE935" unicode="&#xe935;" 
d="M512 4l-201 201l60 60l98 -98v281h86v-281l98 98l60 -60l-201 -201v0zM769 107l-4 85h4q71 0 120 49.5t49 121.5q0 74 -48.5 122t-124.5 48h-42v86q0 53 -36 90.5t-88 37.5h-129q-54 0 -93 -38t-39 -90h171v-86h-252q-71 0 -121.5 -50t-50.5 -121q0 -70 50.5 -120
t121.5 -50v-85q-54 0 -100.5 20t-81.5 54.5t-55 81t-20 99.5t20 99t54 80.5t80 55.5t98 22v0q0 44 17.5 82.5t47 67.5t69 46t84.5 17h129q44 0 82 -16.5t66.5 -45.5t44.5 -67.5t16 -83.5v-3q47 -8 86.5 -29.5t68.5 -55t45 -76.5t16 -92q0 -53 -20 -99.5t-55 -81.5t-81 -55
t-99 -20v0z" />
    <glyph glyph-name="uniE936" unicode="&#xe936;" 
d="M811 747v4q0 44 -16.5 82t-45.5 66.5t-68 44.5t-84 16h-128q-45 0 -83.5 -16t-67.5 -44.5t-45.5 -66.5t-16.5 -82v-4h-3q-53 0 -99.5 -20t-80.5 -54.5t-53.5 -81t-19.5 -100.5q0 -49 16 -92t44.5 -76.5t67.5 -55.5t85 -29v87q-55 13 -91.5 59t-36.5 107q0 72 48.5 121
t119.5 49h297v86h-209v4q0 52 37.5 88t90.5 36h128q54 0 91 -36t37 -88v-85h43q71 0 121 -50.5t50 -121.5q0 -60 -37 -107t-91 -63v-87q45 7 84 30t67.5 57.5t45 78t16.5 91.5t-16.5 90.5t-45 76t-67.5 56.5t-84 30v0zM299 491v-555h426v555h-426v0zM640 320h-85v85h85v-85z
M469 405v-85h-85v85h85v0zM384 21v214h256v-214h-256z" />
    <glyph glyph-name="uniE937" unicode="&#xe937;" 
d="M555 21h-86v281l-98 -97l-60 60l201 201l201 -201l-60 -60l-98 97v-281v0zM257 107q-54 0 -100.5 20t-81.5 54.5t-55 81t-20 99.5t20 99t54 80.5t80 55.5t98 22v0q0 44 17.5 82.5t47 67.5t69 46t84.5 17h129q44 0 82 -16.5t66.5 -45.5t44.5 -67.5t16 -83.5v-3
q47 -8 86.5 -29.5t68.5 -55t45 -76.5t16 -92q0 -53 -20 -99.5t-55 -81.5t-81 -55t-99 -20h-86v85h86q71 0 120 49.5t49 121.5q0 74 -48.5 122t-124.5 48h-42v86q0 53 -36 90.5t-88 37.5h-129q-54 0 -93 -38t-39 -90h174v-86h-255q-71 0 -121.5 -50t-50.5 -121
q0 -70 50.5 -120t121.5 -50v-85v0z" />
    <glyph glyph-name="uniE938" unicode="&#xe938;" 
d="M1024 450q0 48 -16.5 90t-45 75.5t-67.5 56t-84 29.5v4q0 44 -17 82.5t-46 67.5t-68 45.5t-83 16.5h-128q-44 0 -82.5 -16.5t-67.5 -45.5t-46 -67.5t-17 -82.5q-53 0 -99.5 -20.5t-81.5 -55t-55 -81t-20 -98.5q0 -47 16.5 -89.5t45 -76t67.5 -56t84 -29.5v-8
q0 -44 17 -82.5t46 -67.5t68 -45.5t83 -16.5h128q44 0 82.5 16.5t67.5 46t46 69t17 84.5v0q53 0 99.5 20.5t81.5 55t55 81t20 98.5v0zM767 280h-285v-85h201v-4q0 -53 -37.5 -90t-90.5 -37h-128q-53 0 -90.5 37t-37.5 90v89h-43q-71 0 -121 50t-50 120t50.5 120t121.5 50
h281v85h-197q0 53 37.5 90t90.5 37h128q53 0 90.5 -37t37.5 -90v-85h43q71 0 121 -49.5t50 -120.5q0 -70 -50.5 -120t-121.5 -50v0z" />
    <glyph glyph-name="uniE939" unicode="&#xe939;" 
d="M871 363l-171 170h25v427h-426v-427h25l-171 -170h-153v-427h427v171h170v-171h427v427h-153v0zM384 875h256v-256h-256v256zM341 21h-256v256h256v-256zM427 192v171h-153l170 170h136l170 -170h-153v-171h-170v0zM939 21h-256v256h256v-256z" />
    <glyph glyph-name="uniE93A" unicode="&#xe93a;" 
d="M425 9l-82 25l256 853l82 -25zM757 163l-63 58l208 227l-208 227l63 58l261 -285l-261 -285v0zM267 163l-261 285l261 285l63 -58l-208 -227l208 -227z" />
    <glyph glyph-name="uniE93B" unicode="&#xe93b;" 
d="M0 960v-1024h1024v1024h-1024zM256 875h683v-86h-683v86zM85 875h86v-86h-86v86zM939 21h-854v683h854v-683zM243 290l159 158l-159 158l-60 -60l98 -98l-98 -98zM427 363h256v-86h-256v86v0z" />
    <glyph glyph-name="uniE93C" unicode="&#xe93c;" 
d="M1 192h298v512h-298v-512v0zM86 619h127v-342h-127v342zM725 704v-512h298v512h-298zM938 277h-127v342h127v-342zM469 491l171 170l-171 171v-128h-128v-85h128v-128zM555 405l-171 -170l171 -171v128h128v85h-128v128z" />
    <glyph glyph-name="uniE93D" unicode="&#xe93d;" 
d="M512 -64q-106 0 -199 40.5t-162.5 110t-110 162.5t-40.5 199t40.5 199t110 162.5t162.5 110t199 40.5t199 -40.5t162.5 -110t110 -162.5t40.5 -199t-40.5 -199t-110 -162.5t-162.5 -110t-199 -40.5zM512 875q-88 0 -166 -33.5t-135.5 -91.5t-91.5 -136t-34 -166t34 -166
t91.5 -135.5t135.5 -91.5t166 -34t166 34t135.5 91.5t91.5 135.5t34 166t-34 166t-91.5 136t-135.5 91.5t-166 33.5v0zM361 599l-105 -407l407 105l105 407l-407 -105v0zM512 363q-35 0 -60 25t-25 60t25 60t60 25t60 -25t25 -60t-25 -60t-60 -25z" />
    <glyph glyph-name="uniE93E" unicode="&#xe93e;" 
d="M939 -64h-854v939h214v85h426v-85h214v-939zM171 21h682v768h-128v-128h-426v128h-128v-768v0zM384 747h256v128h-256v-128zM469 174l-158 159l60 60l98 -98l226 226l60 -60l-286 -287v0z" />
    <glyph glyph-name="uniE93F" unicode="&#xe93f;" 
d="M1004 752l-24 61l-195 -195l-104 103l196 195l-61 24q-27 10 -55 15t-57 5q-66 0 -124.5 -25t-102 -68.5t-68.5 -102t-25 -124.5q0 -18 2 -36t6 -35l-342 -342q-50 -50 -50 -120.5t50 -120.5q24 -24 55 -37t66 -13q34 0 65 13t55 37l342 342q17 -4 35 -6t36 -2
q66 0 124.5 25t102 68.5t68.5 102t25 124.5q0 29 -5 57.5t-15 54.5v0z" />
    <glyph glyph-name="uniE940" unicode="&#xe940;" 
d="M171 -64q-35 0 -66 13t-55 37q-50 50 -50 120.5t50 120.5l342 342q-4 17 -6 35t-2 36q0 66 25 124.5t68.5 102t102 68.5t124.5 25q29 0 57 -5t55 -15l61 -24l-195 -195l103 -103l195 195l24 -61q10 -26 15 -54.5t5 -57.5q0 -66 -25 -124.5t-68.5 -102t-102 -68.5
t-124.5 -25q-18 0 -36 2t-35 6l-342 -342q-23 -24 -54.5 -37t-65.5 -13v0zM704 875q-49 0 -91.5 -18.5t-74.5 -50.5t-50.5 -74.5t-18.5 -91.5q0 -19 3 -36.5t8 -34.5l8 -24l-378 -378q-25 -25 -25 -60.5t25 -60.5q24 -24 60.5 -24t60.5 24l378 378l24 -8q17 -5 34.5 -8
t36.5 -3q49 0 91.5 18.5t74.5 50.5t50.5 74.5t18.5 91.5v5.5t-1 5.5l-153 -154l-224 224l154 153q-3 1 -5.5 1h-5.5v0z" />
    <glyph glyph-name="uniE941" unicode="&#xe941;" 
d="M253 -64q-51 0 -97 19t-82 55t-55 82t-19 97t19 97t55 82l161 161l84 -85l120 119l60 -60l-119 -119l67 -68l120 119l60 -60l-119 -120l84 -84l-160 -161q-36 -36 -82 -55t-97 -19v0zM235 408l-101 -100q-23 -24 -36 -54.5t-13 -64.5q0 -33 13 -64t36 -55q48 -47 119 -47
t119 47l99 101zM789 367l-357 358l160 161q36 36 82 55t97 19t97 -19t82 -55t55 -82t19 -97t-19 -97t-55 -82l-161 -161v0zM553 725l236 -237l101 100q23 24 36 54.5t13 64.5q0 33 -13 64t-36 55q-48 47 -119 47t-119 -47l-99 -101v0z" />
    <glyph glyph-name="uniE942" unicode="&#xe942;" 
d="M512 107h-512v151q0 77 37.5 141t97.5 100q-23 23 -36.5 54t-13.5 66q0 70 50 120t121 50t121 -50t50 -120q0 -35 -13.5 -66t-36.5 -54q60 -36 97.5 -100.5t37.5 -140.5v-151v0zM85 192h342v66q0 75 -51.5 132t-119.5 58q-69 -1 -120 -58t-51 -132v-66v0zM256 704
q-35 0 -60 -25t-25 -60q0 -36 25 -61t60 -25t60 25t25 61q0 35 -25 60t-60 25v0zM1024 235h-427v85h427v-85zM896 405h-299v86h299v-86zM1024 576h-427v85h427v-85z" />
    <glyph glyph-name="uniE943" unicode="&#xe943;" 
d="M43 960v-811h170v-195l415 195h396v811h-981v0zM384 491h-128v128h128v-128zM597 491h-128v128h128v-128zM811 491h-128v128h128v-128z" />
    <glyph glyph-name="uniE944" unicode="&#xe944;" 
d="M213 -46v195h-170v811h981v-811h-396l-415 -195v0zM128 235h171v-146l310 146h330v640h-811v-640v0zM256 619h128v-128h-128v128zM469 619h128v-128h-128v128v0zM683 619h128v-128h-128v128z" />
    <glyph glyph-name="uniE945" unicode="&#xe945;" 
d="M512 533l426 213l-426 213l-427 -213zM555 459v-501l426 213v501zM469 459l-426 213v-501l426 -213v501z" />
    <glyph glyph-name="uniE946" unicode="&#xe946;" 
d="M512 -63l-469 234v554l469 234l469 -234v-554zM555 459v-406l341 171v405l-341 -170v0zM128 224l341 -171v406l-341 170v-405zM181 698l331 -165l331 165l-331 166l-331 -166v0z" />
    <glyph glyph-name="uniE947" unicode="&#xe947;" 
d="M73 -51l-60 60l311 311h-239v85h384v-384h-85v239l-311 -311v0zM939 491h-384v384h85v-239l311 311l60 -60l-311 -311h239v-85v0z" />
    <glyph glyph-name="uniE948" unicode="&#xe948;" 
d="M811 -64h-768v853h170v171h530l238 -238v-615h-170v-171v0zM128 21h597v86h-512v597h-85v-683v0zM299 192h597v427h-256v256h-341v-683zM725 704h153l-153 153v-153v0zM725 277h-341v86h341v-86zM811 448h-427v85h427v-85zM555 619h-171v85h171v-85v0z" />
    <glyph glyph-name="uniE949" unicode="&#xe949;" 
d="M510 -54l-492 492l492 491l491 -491zM702 573l-57 57l-135 -135l-135 135l-58 -57l136 -135l-136 -135l58 -58l135 135l135 -135l57 58l-135 135z" />
    <glyph glyph-name="uniE94A" unicode="&#xe94a;" 
d="M512 38l-410 410l410 410l410 -410zM672 561l-47 47l-113 -112l-113 112l-47 -47l112 -113l-112 -113l47 -47l113 112l113 -112l47 47l-112 113z" />
    <glyph glyph-name="uniE94B" unicode="&#xe94b;" 
d="M505 877l454 -455l-454 -454l-455 454l455 455v0z" />
    <glyph glyph-name="uniE94C" unicode="&#xe94c;" 
d="M517 -61l-103 242l-201 -167v942l694 -644l-270 -34l104 -243l-224 -96v0z" />
    <glyph glyph-name="uniE94D" unicode="&#xe94d;" 
d="M517 -61l-103 242l-201 -167v942l694 -644l-270 -34l104 -243l-224 -96v0zM447 320l115 -269l67 29l-115 269l201 25l-416 386v-563l148 123v0z" />
    <glyph glyph-name="uniE94E" unicode="&#xe94e;" 
d="M200 -64q-80 0 -136 56.5t-56 135.5t56 135.5t136 56.5q32 0 61 -10t53 -28l199 166l-199 166q-24 -18 -53 -28t-61 -10q-80 0 -136 56.5t-56 135.5t56 135.5t136 56.5q79 0 135.5 -56.5t56.5 -135.5q0 -24 -6 -46.5t-16 -42.5l209 -175l383 318l54 -65l-370 -309
l370 -309l-54 -65l-383 318l-209 -175q10 -20 16 -42.5t6 -46.5q0 -79 -56.5 -135.5t-135.5 -56.5v0zM200 235q-44 0 -75.5 -31.5t-31.5 -75.5t31.5 -75.5t75.5 -31.5t75 31.5t31 75.5t-31 75.5t-75 31.5zM200 875q-44 0 -75.5 -31.5t-31.5 -75.5t31.5 -75.5t75.5 -31.5
t75 31.5t31 75.5t-31 75.5t-75 31.5v0z" />
    <glyph glyph-name="uniE94F" unicode="&#xe94f;" 
d="M1024 492q0 26 -3 51t-8 50l-84 -19q4 -20 6.5 -40.5t2.5 -41.5q0 -62 -19.5 -118.5t-54 -104t-83 -83t-106.5 -53.5l51 90l-75 42l-116 -205l201 -119l44 74l-67 40q68 24 125.5 67.5t98.5 101t64 126t23 142.5v0zM184 492q0 23 2.5 45.5t8.5 44.5l50 -88l75 42
l-117 207l-203 -120l44 -74l63 38q-4 -24 -7 -47.5t-3 -47.5q0 -76 23.5 -146.5t66.5 -128.5t103 -101.5t133 -65.5l25 82q-59 18 -108 53.5t-83.5 83t-54 104.5t-19.5 119h1zM561 869q69 0 134 -25t117 -71l-95 1v-86l233 -2l2 238l-86 1l-1 -84q-31 27 -67 48.5t-74.5 36
t-79.5 22t-83 7.5t-82.5 -7t-79 -21.5t-74 -35.5t-67.5 -48l56 -65q52 44 115.5 67.5t131.5 23.5v0z" />
    <glyph glyph-name="uniE950" unicode="&#xe950;" 
d="M512 960q-106 0 -199 -40.5t-162.5 -110t-110 -162.5t-40.5 -199t40.5 -199t110 -162.5t162.5 -110t199 -40.5t199 40.5t162.5 110t110 162.5t40.5 199t-40.5 199t-110 162.5t-162.5 110t-199 40.5zM176 709l50 -50l60 61l-52 51q49 42 108.5 68.5t126.5 32.5v-83h86v83
q64 -6 121.5 -30.5t105.5 -63.5l-59 -58l61 -61l58 59q39 -48 63.5 -105.5t31.5 -121.5h-84v-86h83q-2 -22 -6.5 -43t-10.5 -42h-236q0 59 -36.5 104.5t-91.5 60.5v219h-86v-219q-55 -15 -91.5 -60.5t-36.5 -104.5h-236q-6 21 -10.5 42t-6.5 43h83v86h-83q6 61 28.5 116.5
t59.5 101.5v0zM512 405q35 0 60 -25t25 -60h-170q0 35 25 60t60 25v0zM512 21q-59 0 -113.5 15.5t-102 43.5t-86.5 67.5t-67 87.5h738q-28 -48 -67 -87.5t-86.5 -67.5t-102 -43.5t-113.5 -15.5v0z" />
    <glyph glyph-name="uniE951" unicode="&#xe951;" 
d="M0 917v-981h1024v981h-1024zM939 21h-854v214h854v-214zM939 320h-854v213h854v-213zM85 619v213h854v-213h-854v0zM128 789h128v-128h-128v128zM128 491h128v-128h-128v128v0zM128 192h128v-128h-128v128z" />
    <glyph glyph-name="uniE952" unicode="&#xe952;" 
d="M747 43q-57 0 -98.5 36.5t-49.5 91.5h-217q-7 -55 -49 -91.5t-98 -36.5q-57 0 -98.5 36.5t-49.5 91.5h-87v682h683v-170h145l196 -196v-316h-129q-8 -55 -50 -91.5t-98 -36.5v0zM683 192q0 -26 18.5 -45t45.5 -19q26 0 45 19t19 45t-19 45t-45 19q-27 0 -45.5 -19
t-18.5 -45zM235 256q-27 0 -45.5 -19t-18.5 -45t18.5 -45t45.5 -19q26 0 45 19t19 45t-19 45t-45 19v0zM882 256h57v196l-146 145h-110v-270q14 7 30.5 10.5t33.5 3.5q44 0 80.5 -23.5t54.5 -61.5v0zM370 256h227v512h-512v-512h15q18 38 54 61.5t81 23.5q44 0 80.5 -23.5
t54.5 -61.5v0z" />
    <glyph glyph-name="uniE953" unicode="&#xe953;" 
d="M530 -64q-28 0 -49.5 18t-27.5 45l-28 144q-3 14 -10 27t-18 23l-139 140q-11 11 -24 18t-27 10l-144 28q-21 5 -37 19.5t-22 34.5q-7 21 -1.5 42t20.5 36l112 113q26 25 60 39.5t71 14.5h133q24 28 50 56.5t54 56.5q49 49 97 80t92 48.5t83 24t70 6.5q58 0 93.5 -12
t39.5 -14l14 -6l6 -14q2 -3 15 -43.5t10.5 -106t-35.5 -150t-124 -175.5q-27 -28 -55.5 -54t-57.5 -50v-133q0 -37 -14 -71t-40 -60l-112 -112q-11 -11 -25 -17t-30 -6v0zM93 470l130 -26q27 -5 51 -18t44 -32l140 -140q19 -20 32 -44t18 -51l26 -130l103 103
q14 13 21.5 31.5t7.5 38.5v172l16 13q30 26 61 54t61 58q62 63 91.5 121t38 106t3.5 83.5t-10 53.5q-12 4 -33 8t-49 4q-50 0 -124 -25.5t-158 -109.5q-30 -30 -58 -61t-54 -61l-13 -16h-172q-20 0 -38 -7.5t-32 -21.5l-103 -103v0zM85 -64q-26 0 -41.5 4t-25.5 14
q-5 5 -14.5 29.5t1.5 101.5q5 35 17.5 76.5t38.5 67.5q47 46 116.5 46t115.5 -46q48 -48 48 -116t-48 -116q-36 -36 -103 -48.5t-105 -12.5v0zM177 192q-15 0 -29.5 -6t-25.5 -17q-18 -18 -27.5 -67t-9.5 -81q45 0 89.5 11t58.5 25q23 23 23 56t-23 56q-11 11 -25.5 17
t-30.5 6v0zM810 661q0 -35 -25 -60t-60 -25t-60 25t-25 60t25 60t60 25t60 -25t25 -60v0z" />
    <glyph glyph-name="uniE954" unicode="&#xe954;" 
d="M469 960h555v-85h-555v85v0zM342 85l189 157l55 -66l-287 -240l-288 240l56 66l188 -157v875h87v-875zM469 789h470v-85h-470v85zM469 619h384v-86h-384v86v0zM469 448h304v-87h-304v87v0z" />
    <glyph glyph-name="uniE955" unicode="&#xe955;" 
d="M811 -64h-598v85h598v-85zM1024 107h-1024v853h1024v-853zM85 192h854v683h-854v-683v0z" />
    <glyph glyph-name="uniE956" unicode="&#xe956;" 
d="M349 -64q-59 0 -113 22.5t-96 64.5l-2 1q-44 44 -66 99t-22 112t21.5 111.5t64.5 97.5l106 106l61 -60l-106 -107q-31 -30 -46.5 -69t-15.5 -79t15.5 -79t46.5 -70l1 -1q32 -31 70.5 -47.5t80.5 -16.5t80.5 16t68.5 46l106 106l60 -61l-106 -106q-42 -41 -96 -63.5
t-113 -22.5v0zM831 71l-681 681l60 60l148 -147l233 233q30 30 68 46t81 16v0v0q42 0 81 -16t69 -46q31 -32 47.5 -71t16.5 -81t-16.5 -80.5t-45.5 -68.5l-233 -233l60 -60l183 182l60 -60l-183 -183l112 -112l-60 -60v0zM538 484l60 -60l233 234q18 17 27.5 40t9.5 48
t-9.5 48.5t-27.5 41.5q-19 19 -42.5 29t-48.5 10v0v0q-25 0 -48 -9.5t-41 -27.5l-233 -233l60 -60l183 182l60 -60l-183 -183v0zM349 107q-24 0 -47.5 9t-42.5 28t-28.5 42t-9.5 49q0 25 9.5 48.5t27.5 41.5l105 104l60 -60l-105 -105q-6 -6 -9 -13.5t-3 -15.5t3 -16t9 -13
q13 -14 30.5 -14t29.5 12l105 105l60 -60l-104 -105q-19 -19 -42.5 -28t-47.5 -9v0z" />
    <glyph glyph-name="uniE957" unicode="&#xe957;" 
d="M555 -63h-86v309q0 44 -16.5 83t-45.5 68t-68 46t-83 17h-95l141 -141l-60 -60l-242 243l242 244l60 -61l-141 -140h95q63 0 118 -24t95 -66v5q0 61 23.5 115.5t64 95t95 64t116.5 23.5h93l-141 141l61 60l243 -243l-243 -244l-61 60l141 141h-93q-44 0 -83 -17t-68 -46
t-45.5 -67.5t-16.5 -82.5v-523v0z" />
    <glyph glyph-name="uniE958" unicode="&#xe958;" 
d="M1004 38q0 -33 -24.5 -57.5t-57.5 -24.5h-820q-33 0 -57.5 24.5t-24.5 57.5v820q0 33 24.5 57.5t57.5 24.5h820q33 0 57.5 -24.5t24.5 -57.5v-820zM758 489h-492v-82h492v82z" />
    <glyph glyph-name="uniE959" unicode="&#xe959;" 
d="M922 141q0 -44 -29.5 -73.5t-73.5 -29.5h-614q-44 0 -73.5 29.5t-29.5 73.5v614q0 44 29.5 73.5t73.5 29.5h614q44 0 73.5 -29.5t29.5 -73.5v-614zM717 482h-410v-68h410v68z" />
    <glyph glyph-name="uniE95A" unicode="&#xe95a;" 
d="M967 107q0 -47 -33.5 -80.5t-80.5 -33.5h-682q-47 0 -80.5 33.5t-33.5 80.5v682q0 47 33.5 80.5t80.5 33.5h682q47 0 80.5 -33.5t33.5 -80.5v-682z" />
    <glyph glyph-name="uniE95B" unicode="&#xe95b;" 
d="M0 789v-469h299v-213q0 -72 48 -121.5t118 -49.5h132v346q0 34 24.5 57.5t61.5 23.5h85v597h-597q-71 0 -121 -50t-50 -121v0zM853 960h171v-597h-171v597z" />
    <glyph glyph-name="uniE95C" unicode="&#xe95c;" 
d="M171 960h853v-597h-341q-37 0 -61.5 -23.5t-24.5 -57.5v-346h-132q-70 0 -118 49.5t-48 121.5v213h-299v469q0 71 50 121t121 50v0zM683 875h-512q-36 0 -61 -25t-25 -61v-384h299v-298q0 -37 23 -61.5t58 -24.5h47v261q0 70 49.5 118t121.5 48v427v0zM939 875h-171v-427
h171v427v0z" />
    <glyph glyph-name="uniE95D" unicode="&#xe95d;" 
d="M1024 -21h-1024v938h1024v-938zM555 64h384v768h-384v-768zM85 64h384v768h-384v-768v0z" />
    <glyph glyph-name="uniE95E" unicode="&#xe95e;" 
d="M981 -21h-938v938h938v-938zM768 64h128v768h-128v-768zM555 64h128v768h-128v-768zM341 64h128v768h-128v-768zM128 64h128v768h-128v-768z" />
    <glyph glyph-name="uniE95F" unicode="&#xe95f;" 
d="M1024 -21h-1024v938h1024v-938zM725 64h214v768h-214v-768zM85 64h555v768h-555v-768v0z" />
    <glyph glyph-name="uniE960" unicode="&#xe960;" 
d="M981 -21h-981v938h981v-938zM683 64h213v768h-213v-768zM384 64h213v768h-213v-768zM85 64h214v768h-214v-768z" />
    <glyph glyph-name="uniE961" unicode="&#xe961;" 
d="M786 960h-615v-256h85v171h427v-256h256v-598h-256v-85h341v786l-238 238v0zM768 857l153 -153h-153v153zM853 277q0 71 -50 121t-120 50q0 71 -50 121t-121 50h-155q-70 0 -120 -50t-50 -121h-16q-71 0 -121 -50t-50 -121q0 -70 50 -120t121 -50q0 -71 50 -121t120 -50
h128q71 0 121 50t50 121h43q70 0 120 50t50 120v0zM683 192h-256v-85h128q0 -36 -25 -61t-61 -25h-128q-35 0 -60 25t-25 61v85h-85q-36 0 -61 25t-25 60q0 36 25 61t61 25h272v85h-171q0 35 25 60t60 25h155q35 0 60 -25t25 -60v-85h86q35 0 60 -25t25 -61q0 -35 -25 -60
t-60 -25z" />
    <glyph glyph-name="uniE962" unicode="&#xe962;" 
d="M981 -64h-384v85h299v598h-256v256h-427v-384h-85v469h615l238 -238v-786v0zM725 704h153l-153 153v-153v0zM341 -64h-85v91q-12 3 -23 7.5t-21 10.5l-64 -64l-60 60l64 64q-6 11 -11 22t-8 22h-90v86h90q3 11 8 22t11 22l-64 64l60 60l64 -64q10 6 21 10.5t23 7.5v91h85
v-91q12 -3 23 -7.5t21 -10.5l65 64l60 -60l-64 -64q6 -11 10.5 -22t7.5 -22h91v-86h-91q-3 -11 -7.5 -22t-10.5 -22l64 -64l-60 -60l-65 64q-10 -6 -21 -10.5t-23 -7.5v-91v0zM299 277q-36 0 -61 -25t-25 -60t25 -60t61 -25q35 0 60 25t25 60t-25 60t-60 25v0z" />
    <glyph glyph-name="uniE963" unicode="&#xe963;" 
d="M786 960h-615v-384h85v299h427v-256h256v-598h-768v-85h853v786l-238 238v0zM768 857l153 -153h-153v153zM213 235h-128v170h128v86h-213v-342h213v86zM256 235v-86h213v214h-128v42h128v86h-213v-214h128v-42h-128zM841 491h-90l-68 -207l-69 207h-90l114 -342h89z" />
    <glyph glyph-name="uniE964" unicode="&#xe964;" 
d="M981 -64h-256v85h171v598h-256v256h-427v-214h-85v299h615l238 -238v-786v0zM725 704h153l-153 153v-153v0zM341 -64q-55 0 -109 9.5t-96 28.5t-67.5 47t-25.5 64v150h2q-1 5 -1.5 10t-0.5 11v149h2q-1 5 -1.5 10.5t-0.5 11.5q0 36 25.5 64t67.5 47t96 28.5t109 9.5
q56 0 109.5 -9.5t95.5 -28.5t68 -47t26 -64q0 -6 -0.5 -11.5t-1.5 -10.5h2v-149q0 -6 -0.5 -11t-1.5 -10h2v-150q0 -36 -26 -64t-68 -47t-95.5 -28.5t-109.5 -9.5zM128 148v-63q0 -12 54 -38t159 -26t159.5 26t54.5 38v63q-43 -20 -99 -30.5t-114.5 -10.5t-114.5 10.5
t-99 30.5v0zM128 319v-63q0 -12 54 -38t159 -26t159.5 26t54.5 38v63q-43 -21 -99 -31t-114.5 -10t-114.5 10t-99 31v0zM341 491q-105 0 -159 -26t-54 -38q0 -13 54 -38.5t159 -25.5t159.5 25.5t54.5 38.5q0 12 -54.5 38t-159.5 26v0z" />
    <glyph glyph-name="uniE965" unicode="&#xe965;" 
d="M939 -64h-854v1024h615l239 -238v-786v0zM171 21h682v598h-256v256h-426v-854v0zM683 704h153l-153 153v-153v0zM512 89l-201 201l60 60l98 -98v281h86v-281l98 98l60 -60l-201 -201v0z" />
    <glyph glyph-name="uniE966" unicode="&#xe966;" 
d="M939 -64h-854v1024h573l281 -281v-743v0zM171 21h682v555h-298v299h-384v-854v0zM640 661h196l-196 196v-196z" />
    <glyph glyph-name="uniE967" unicode="&#xe967;" 
d="M786 960h-615v-341h85v256h427v-256h256v-598h-214v-85h299v786l-238 238v0zM768 704v153l153 -153h-153zM0 -64h640v597h-640v-597zM85 448h470v-394l-130 180l-118 -171l-93 129l-118 -171h-11v427v0zM299 320q0 -35 -25 -60t-61 -25q-35 0 -60 25t-25 60t25 60t60 25
q36 0 61 -25t25 -60z" />
    <glyph glyph-name="uniE968" unicode="&#xe968;" 
d="M743 960h-615v-341h85v256h427v-256h256v-598h-256v-85h341v786l-238 238v0zM725 857l153 -153h-153v153v0zM256 192h85v-85h-85v85v0zM469 405q0 71 -50 121t-120 50q-71 0 -121 -50t-50 -121v-42h-85v-427h512v427h-86v42v0zM213 405q0 36 25 61t61 25q35 0 60 -25
t25 -61v-42h-171v42v0zM469 21h-341v256h341v-256z" />
    <glyph glyph-name="uniE969" unicode="&#xe969;" 
d="M743 960h-615v-384h85v299h427v-256h256v-598h-768v-85h853v786l-238 238v0zM725 857l153 -153h-153v153v0zM168 109l87 131l86 -131h99l-134 196l128 188h-96l-81 -125l-81 125h-98l128 -189l-134 -195h96z" />
    <glyph glyph-name="uniE96A" unicode="&#xe96a;" 
d="M743 960h-615v-384h85v299h427v-256h256v-598h-768v-85h853v786l-238 238v0zM725 857l153 -153h-153v153v0zM169 353l186 -244h72v384h-84v-237l-180 237h-78v-384h84v244z" />
    <glyph glyph-name="uniE96B" unicode="&#xe96b;" 
d="M743 960h-615v-384h85v299h427v-256h256v-598h-768v-85h853v786l-238 238v0zM725 857l153 -153h-153v153v0zM255 98q79 0 127 59t48 144v1q0 85 -48 143t-125 58q-79 0 -127 -58.5t-48 -143.5v-1q0 -86 47.5 -144t125.5 -58v0zM170 302q0 54 23.5 89t61.5 35q39 0 63 -36
t24 -89v-1q0 -54 -23 -89t-62 -35t-63 35.5t-24 89.5v1v0z" />
    <glyph glyph-name="uniE96C" unicode="&#xe96c;" 
d="M743 960h-615v-384h85v299h427v-256h256v-598h-768v-85h853v786l-238 238v0zM725 857l153 -153h-153v153v0zM170 222h64q65 0 110 34t45 101v1q0 59 -39 96t-108 37h-157v-384h85v115v0zM170 414h65q32 0 50.5 -14.5t18.5 -43.5v-1q0 -25 -18 -41.5t-49 -16.5h-67v117v0z
" />
    <glyph glyph-name="uniE96D" unicode="&#xe96d;" 
d="M786 960h-615v-384h85v299h427v-256h256v-598h-768v-85h853v786l-238 238v0zM768 857l153 -153h-153v153zM299 340l99 -233h59l128 384h-90l-73 -222l-95 222h-57l-94 -222l-74 222h-90l128 -384h59z" />
    <glyph glyph-name="uniE96E" unicode="&#xe96e;" 
d="M128 448h-128v-341h85v85h43q53 0 90.5 37.5t37.5 90.5t-37.5 90.5t-90.5 37.5v0zM128 277h-43v86h43q18 0 30.5 -12.5t12.5 -30.5t-12.5 -30.5t-30.5 -12.5v0zM469 448h-170v-341h170q52 0 90 40.5t38 96.5v67q0 54 -38.5 95.5t-89.5 41.5v0zM512 244q0 -20 -13.5 -36
t-29.5 -16h-85v171h85q16 0 29.5 -16.5t13.5 -35.5v-67v0zM896 363v85h-256v-341h85v85h128v85h-128v86h171zM786 960h-615v-384h85v299h427v-256h256v-598h-768v-85h853v786l-238 238v0zM768 857l153 -153h-153v153z" />
    <glyph glyph-name="uniE96F" unicode="&#xe96f;" 
d="M743 960h-615v-384h85v299h427v-256h256v-598h-768v-85h853v786l-238 238v0zM725 704v153l153 -153h-153v0zM427 132l222 222l76 -77l43 256l-256 -42l77 -77l-162 -162l-171 171l-244 -243l61 -61l183 183z" />
    <glyph glyph-name="uniE970" unicode="&#xe970;" 
d="M786 960h-615v-384h85v299h427v-256h256v-598h-768v-85h853v786l-238 238v0zM768 857l153 -153h-153v153zM119 192l62 -85l94 -1l-78 107q27 17 43 45t16 62q0 53 -37.5 90.5t-90.5 37.5h-128v-341h85v85h34v0zM171 320q0 -18 -12.5 -30.5t-30.5 -12.5h-43v86h43
q18 0 30.5 -12.5t12.5 -30.5v0zM450 107v256h86v85h-256v-85h85v-256h85zM834 363v85h-256v-341h86v85h128v85h-128v86h170z" />
    <glyph glyph-name="uniE971" unicode="&#xe971;" 
d="M786 962h-615v-342h85v256h427v-256h256v-597h-128v-85h213v785l-238 239v0zM768 859l153 -153h-153v153zM491 194v-86q70 0 120 50t50 121t-50 121t-120 50v-86q35 0 60 -25t25 -60t-25 -60t-60 -25v0zM491 620v-85q53 0 99.5 -20t81 -55t55 -81.5t20.5 -99.5
t-20.5 -99.5t-55 -81.5t-81 -55t-99.5 -20v-85q70 0 132.5 26.5t108.5 73t73 108.5t27 133t-27 133t-73 108.5t-108.5 73t-132.5 26.5v0zM0 407v-256h156l271 -217v690l-271 -217h-156v0zM341 446v-334l-155 124h-101v86h101z" />
    <glyph glyph-name="uniE972" unicode="&#xe972;" 
d="M786 960h-615v-256h85v171h427v-256h256v-598h-171v-85h256v786l-238 238v0zM768 857l153 -153h-153v153zM469 533h43v86h-341v-86h42v-149l-213 -349v-99h683v99l-214 349v149v0zM384 533v-173l47 -77q-33 1 -59.5 -8t-49.5 -18q-26 -11 -46.5 -16.5t-47.5 3.5l71 116
v173h85v0zM341 21h-250l92 150q21 -10 40 -14t36 -4q29 0 52.5 8.5t44.5 16.5q31 14 61 19.5t77 -16.5l97 -160h-250v0z" />
    <glyph glyph-name="uniE973" unicode="&#xe973;" 
d="M939 -64h-854v1024h573l281 -281v-743v0zM171 21h682v555h-298v299h-384v-854v0zM640 661h196l-196 196v-196zM683 235h-427v85h427v-85zM768 405h-512v86h512v-86zM469 576h-213v85h213v-85v0z" />
    <glyph glyph-name="uniE974" unicode="&#xe974;" 
d="M1024 -64h-427v85h342v598h-256v256h-427v-86h-85v171h615l238 -238v-786zM768 704h153l-153 153v-153zM276 -64q-57 0 -107.5 21.5t-88 58t-59 85.5t-21.5 105q0 78 36.5 141t100.5 97v89h85v103q0 44 31.5 75t75.5 31h28q44 0 75.5 -31t31.5 -75q0 -9 6.5 -15.5
t14.5 -6.5h15q8 0 14.5 6.5t6.5 15.5h85q0 -44 -31 -75.5t-75 -31.5h-15q-44 0 -75 31.5t-31 75.5q0 9 -6.5 15t-15.5 6h-28q-9 0 -15 -6t-6 -15v-103h85v-88q68 -36 108.5 -100.5t40.5 -138.5q0 -57 -20.5 -106t-56.5 -85.5t-84.5 -57.5t-104.5 -21v0zM222 448v-60l-27 -10
q-51 -21 -80.5 -67t-29.5 -105q0 -75 56.5 -130t134.5 -55q76 0 128.5 53.5t52.5 131.5q0 55 -34 102.5t-89 69.5l-26 10v60h-86v0z" />
    <glyph glyph-name="uniE975" unicode="&#xe975;" 
d="M1024 -64h-853v85h768v598h-256v256h-427v-342h-85v427h615l238 -238v-786v0zM768 704h153l-153 153v-153zM226 77l-201 200l201 201l60 -60l-98 -98h367v-85h-367l98 -98l-60 -61v1z" />
    <glyph glyph-name="uniE976" unicode="&#xe976;" 
d="M939 -64h-854v1024h615l239 -238v-786v0zM171 21h682v598h-256v256h-426v-854v0zM683 704h153l-153 153v-153v0zM555 107h-86v281l-98 -98l-60 60l201 201l201 -201l-60 -60l-98 98v-281v0z" />
    <glyph glyph-name="uniE977" unicode="&#xe977;" 
d="M786 960h-615v-299h85v214h427v-256h256v-598h-342v-85h427v786l-238 238v0zM768 704v153l153 -153h-153zM379 291q21 23 33.5 53t12.5 63q0 70 -49.5 119.5t-119.5 49.5t-119.5 -49.5t-49.5 -119.5q0 -33 12.5 -62.5t33.5 -52.5q-59 -30 -96 -87t-37 -125v-144h512v144
q0 68 -37 124.5t-96 86.5zM256 491q34 0 58.5 -24.5t24.5 -59.5q0 -34 -24.5 -58.5t-58.5 -24.5t-58.5 24.5t-24.5 58.5q0 35 24.5 59.5t58.5 24.5v0zM427 21h-342v58q0 65 48.5 110.5t116.5 45.5h9q68 0 118 -46t50 -109v-59v0z" />
    <glyph glyph-name="uniE978" unicode="&#xe978;" 
d="M786 960h-615v-384h85v299h427v-256h256v-598h-128v-85h213v786l-238 238v0zM768 857l153 -153h-153v153zM512 491h-512v-512h512v95l213 -128v577l-213 -128v96zM427 64h-342v341h342v-341zM640 373v-276l-128 77v122l128 77v0z" />
    <glyph glyph-name="uniE979" unicode="&#xe979;" 
d="M981 -64h-853v85h768v598h-256v256h-427v-299h-85v384h615l238 -238v-786v0zM725 704h153l-153 153v-153v0zM597 149h-85v342h171q53 0 90.5 -37.5t37.5 -90.5t-37.5 -90.5t-90.5 -37.5h-86v-86v0zM597 320h86q17 0 29.5 12.5t12.5 30.5q0 17 -12.5 29.5t-29.5 12.5h-86
v-85v0zM427 149h-86v342h86v-342v0zM256 149h-256v103l153 153h-153v86h256v-103l-153 -153h153v-86z" />
    <glyph glyph-name="uniE97A" unicode="&#xe97a;" 
d="M1024 21h-1024v854h1024v-854zM85 107h854v512h-854v-512v0zM597 704h342v85h-342v-85v0zM427 704h85v85h-85v-85v0zM256 704h85v85h-85v-85v0zM85 704h86v85h-86v-85z" />
    <glyph glyph-name="uniE97B" unicode="&#xe97b;" 
d="M883 375l-371 -371l-371 371l60 60l268 -268v708h86v-708l268 268z" />
    <glyph glyph-name="uniE97C" unicode="&#xe97c;" 
d="M12 668l500 -500l499 500l-60 60l-439 -439l-439 439z" />
    <glyph glyph-name="uniE97D" unicode="&#xe97d;" 
d="M1024 619h-85v256h-854v-256h-85v341h1024v-341zM555 101l226 226l60 -60l-329 -329l-329 329l61 60l225 -226v604h86v-604z" />
    <glyph glyph-name="uniE97E" unicode="&#xe97e;" 
d="M427 704h-171v171h171v-171zM768 875h-171v-171h171v171zM427 533h-171v-170h171v170zM768 533h-171v-170h171v170zM427 192h-171v-171h171v171zM768 192h-171v-171h171v171z" />
    <glyph glyph-name="uniE97F" unicode="&#xe97f;" 
d="M768 789h85v-85h-85v85zM768 533h85v-85h-85v85v0zM768 277h85v-85h-85v85zM1024 -21h-85v85h-854v-85h-85v938h1024v-938v0zM85 149h854v171h-854v-171v0zM85 405h854v171h-854v-171v0zM85 661h854v171h-854v-171v0zM725 192h-554v85h554v-85zM725 448h-554v85h554v-85z
M725 704h-554v85h554v-85z" />
    <glyph glyph-name="uniE980" unicode="&#xe980;" 
d="M124 704l388 -543l388 543h-776z" />
    <glyph glyph-name="uniE981" unicode="&#xe981;" 
d="M519 178l-365 366l51 47l314 -317l317 317l51 -47z" />
    <glyph glyph-name="uniE982" unicode="&#xe982;" 
d="M683 917l-171 -85l342 -171l170 85zM683 334l-29 14l-142 71l-170 -85l-29 14l-142 71v-232l341 -170v0l342 171v231l-143 -71zM342 405l170 86l-341 170l341 170l-170 86l-342 -171l170 -85l-170 -85zM512 490l171 -85l341 171l-170 85z" />
    <glyph glyph-name="uniE983" unicode="&#xe983;" 
d="M597 149h86v128h128v86h-128v128h-86v-128h-128v-86h128v-128zM768 704v256h-768v-768h256v-256h768v768h-256zM85 277v598h598v-171h-427v-427h-171v0zM939 21h-598v598h598v-598z" />
    <glyph glyph-name="uniE984" unicode="&#xe984;" 
d="M747 960l-747 -747v-277h277l747 747z" />
    <glyph glyph-name="uniE985" unicode="&#xe985;" 
d="M277 -64h-277v277l747 747l277 -277zM85 21h157l524 524l-157 157l-524 -524v-157v0zM670 763l157 -157l76 77l-156 156l-77 -76v0z" />
    <glyph glyph-name="uniE986" unicode="&#xe986;" 
d="M1024 -64h-1024v299h1024v-299zM1024 320h-1024l512 640z" />
    <glyph glyph-name="uniE987" unicode="&#xe987;" 
d="M1024 -64h-1024v299h1024v-299zM85 21h854v128h-854v-128v0zM1024 320h-1024l512 640zM178 405h668l-334 417l-334 -417v0z" />
    <glyph glyph-name="uniE988" unicode="&#xe988;" 
d="M512 401l512 427v4h-1024v-4zM512 290l-512 427v-653h1024v653z" />
    <glyph glyph-name="uniE989" unicode="&#xe989;" 
d="M853 789v-682h-682v682h682zM922 858h-820v-820h820v820z" />
    <glyph glyph-name="uniE98A" unicode="&#xe98a;" 
d="M747 -49l-235 115l-235 -115l-277 136v331l235 115v276l277 136l277 -136v-276l235 -115v-331l-277 -136v0zM789 249v-182l150 73v182zM555 140l149 -73v182l-149 73v-182zM320 249v-182l149 73v182zM85 140l150 -73v182l-150 73v-182zM610 390l137 -67l138 68l-137 67
l-138 -68v0zM139 391l138 -68l137 67l-138 68l-137 -67v0zM555 640v-180l149 73v181zM320 533l149 -73v180l-149 74v-181zM374 782l138 -68l138 68l-138 68z" />
    <glyph glyph-name="uniE98B" unicode="&#xe98b;" 
d="M384 -64h-384v384h85v-238l312 311l60 -60l-311 -312h238v-85zM627 503l-60 60l311 312h-238v85h384v-384h-85v238z" />
    <glyph glyph-name="uniE98C" unicode="&#xe98c;" 
d="M585 -21v428h143l22 167h-165v106q0 37 15 59.5t67 22.5h89v149q-12 1 -47.5 3.5t-81.5 2.5q-48 0 -87.5 -14t-67.5 -42t-44 -69.5t-16 -94.5v-123h-144v-167h144v-428h173v0z" />
    <glyph glyph-name="uniE98D" unicode="&#xe98d;" 
d="M0 956v-1016l341 243v-247l598 458v-372h85v852h-85v-372l-598 458v-247l-341 243v0z" />
    <glyph glyph-name="uniE98E" unicode="&#xe98e;" 
d="M0 956v-1016l341 243v-247l598 458v-372h85v852h-85v-372l-598 458v-247l-341 243v0zM85 791l342 -243v239l442 -339l-442 -339v239l-342 -243v686v0z" />
    <glyph glyph-name="uniE98F" unicode="&#xe98f;" 
d="M683 713v247l-598 -458v373h-85v-854h85v373l598 -458v247l341 -243v1016z" />
    <glyph glyph-name="uniE990" unicode="&#xe990;" 
d="M683 713v247l-598 -458v372h-85v-852h85v372l598 -458v247l341 -243v1016l-341 -243v0zM939 105l-342 243v-239l-442 339l442 339v-239l342 243v-686v0z" />
    <glyph glyph-name="uniE991" unicode="&#xe991;" 
d="M747 923q-72 0 -134 -33.5t-101 -91.5v-1v1q-39 58 -101 91.5t-134 33.5q-57 0 -107.5 -21t-88 -58t-59.5 -85.5t-22 -104.5q0 -100 60 -203t140.5 -194t161.5 -161t124 -103l26 -20l26 20q43 33 124 103t161.5 160.5t140.5 194t60 203.5q0 55 -22 104t-59.5 86t-88 58
t-107.5 21v0z" />
    <glyph glyph-name="uniE992" unicode="&#xe992;" 
d="M512 -27l-26 20q-43 33 -124 103t-161.5 161t-140.5 194t-60 203q0 56 22 104.5t59.5 85.5t88 58t107.5 21q72 0 134 -33.5t101 -91.5v-1v1q39 58 101 91.5t134 33.5q57 0 107.5 -21t88 -58t59.5 -85.5t22 -104.5q0 -100 -60 -203.5t-140.5 -194t-161.5 -160.5t-124 -103
l-26 -20v0zM277 838q-79 0 -135.5 -54t-56.5 -130q0 -65 37 -139t97.5 -149.5t137 -148.5t155.5 -136q79 63 155.5 135.5t137 148t97.5 150t37 139.5q0 76 -56.5 130t-135.5 54q-50 0 -93.5 -23t-69.5 -64l-72 -110l-72 110q-26 41 -69.5 64t-93.5 23v0z" />
    <glyph glyph-name="uniE993" unicode="&#xe993;" 
d="M789 355q45 22 69 45t26 25l31 38l-42 26q-1 0 -56.5 52.5t-55.5 162.5q0 52 -20 98.5t-54.5 81t-80.5 55t-99 21.5v0h-2h-2v0q-52 -1 -98 -21.5t-80.5 -55t-54.5 -81t-20 -98.5q0 -107 -54.5 -160t-57.5 -55l-29 -18l11 -32q1 -3 20 -36t72 -58q-42 -35 -66.5 -86
t-24.5 -110v-213h768v213q0 64 -27 117.5t-73 88.5z" />
    <glyph glyph-name="uniE994" unicode="&#xe994;" 
d="M889 -64h-85v213q0 72 -48 121.5t-118 49.5v0h-3h-2v85q53 0 91 15t61 31q-34 32 -71.5 94.5t-37.5 158.5q0 70 -50 120t-121 51q-70 -1 -119.5 -51t-49.5 -120q0 -101 -42.5 -166t-75.5 -95q13 -13 40.5 -25.5t76.5 -12.5h42v-85q-70 0 -120 -50t-50 -121v-213h-86v213
q0 59 24.5 110t66.5 86q-53 25 -72 58t-20 36l-11 32l29 17q3 3 57.5 56t54.5 160q0 52 20 98.5t54.5 81t80.5 55t98 21.5v0h2h2v0q53 -1 99 -21.5t80.5 -55t54.5 -81t20 -98.5q0 -110 55.5 -162.5t56.5 -52.5l42 -26l-31 -38q-2 -2 -26 -25t-69 -45q46 -35 73 -88.5
t27 -117.5v-213v0zM719 -64h-86v171h86v-171zM377 -64h-85v171h85v-171z" />
    <glyph glyph-name="uniE995" unicode="&#xe995;" 
d="M0 960v-82l356 -446v-495l312 125v370l356 446v82h-1024z" />
    <glyph glyph-name="uniE996" unicode="&#xe996;" 
d="M356 -63v495l-356 446v82h1024v-82l-356 -446v-370l-312 -125v0zM119 871l326 -407v-395l134 53v342l326 407h-786v0z" />
    <glyph glyph-name="uniE997" unicode="&#xe997;" 
d="M1022 626l-11 -76l-11 77t-27 116q-24 61 -35 70.5l-11 9.5q16 -40 16.5 -61.5l0.5 -21.5l-31 55.5t-106 80.5q-83 27 -128 26.5t-50 -2.5h-1.5h-1.5h1.5h1.5h-1q1 -1 64.5 -15t79.5 -36l-32 -2t-71 -13q-1 0 29 -7t69.5 -29.5t77.5 -65t53 -114.5l-14 23t-33 29
q13 -39 10.5 -101t-14.5 -99q-1 -5 -6.5 13t-29.5 29q8 -56 -3 -127.5t-49 -95.5q-3 -2 11.5 51t-4.5 19q-53 -82 -109.5 -107.5t-108.5 -19t-96 32t-73 45.5q29 -7 75 0t70 25h1v0q26 19 43.5 30t31.5 8t21 8t-4 24q-11 12 -37 24t-62 3q-25 -7 -58.5 -22t-81.5 14
q-37 21 -45.5 39t-9.5 31q1 4 2 8.5t3 8.5q4 11 14.5 16t17.5 8q13 -2 23.5 -6t21.5 -9v8v10q1 2 0.5 8t-1.5 14t-3 15.5t-4 15.5v0v0v0v0v0v0v0v0v0q1 4 8.5 10l17.5 14q9 6 19.5 12.5t18.5 11.5t13 8t7 4q0 1 0.5 1.5t1.5 0.5v0v0v0.5t1 0.5q4 3 8.5 9.5t6.5 19.5v0v0v1v1
v0.5v0.5v0.5v0.5v0.5v1.5v0v0v2.5v2.5v1.5v1.5v0v0v0v0q-1 0 -1 0.5v0.5v0v0v0v0q-1 3 -8 4.5t-27 1.5v0q-9 1 -20 1t-25 -1q-25 0 -39 18t-18 28q6 33 23 57t46 40q1 1 0.5 1h-0.5q5 4 -48.5 -5t-86.5 -52q-30 8 -56 8t-49 -6q-4 1 -9.5 1.5t-11.5 1.5q-15 14 -32 37.5
t-18 53.5h-0.5h-0.5v0.5v0.5l-29 -39t-22 -135v-2.5v-3.5q-13 -16 -19 -29t-7 -16q-11 -22 -21.5 -56.5t-19.5 -85.5l6.5 17.5t18.5 39.5q-9 -28 -14.5 -73.5t-1.5 -112.5l1.5 13.5t5.5 34.5q3 -41 18.5 -92t50.5 -110q33 -58 75 -101.5t90 -73.5t101.5 -47t109.5 -21
q21 -2 41 -2t41 2h3.5h3.5q24 2 47 5.5t47 9.5q159 38 238 139t110.5 207t31 188l-0.5 82h-1z" />
    <glyph glyph-name="uniE998" unicode="&#xe998;" 
d="M1024 -21h-1024v768h299v170h426v-170h299v-768v0zM85 64h854v597h-854v-597v0zM384 747h256v85h-256v-85zM555 192h-86v128h-128v85h128v128h86v-128h128v-85h-128v-128z" />
    <glyph glyph-name="uniE999" unicode="&#xe999;" 
d="M913 910q-63 -47 -121.5 -63t-113 -12.5t-107.5 22t-107 40.5q-48 19 -96.5 36t-98.5 23.5t-101.5 -2.5t-104.5 -43l-20 -12v-963h85v402q74 38 148 19.5t156 -51.5q57 -23 117.5 -44t126.5 -25t138 15t150 77l17 12v618l-68 -49v0z" />
    <glyph glyph-name="uniE99A" unicode="&#xe99a;" 
d="M128 -64h-85v963l20 13q53 33 104.5 42.5t101.5 3t98.5 -24t96.5 -36.5q54 -22 107 -40t107.5 -22t113 12t121.5 63l68 50v-619l-17 -12q-78 -58 -150 -77.5t-138 -15t-126.5 25.5t-117.5 43q-82 34 -156 52.5t-148 -19.5v-402v0zM226 448q61 0 120.5 -20t117.5 -43
q52 -21 103 -39t104 -23t108.5 8t116.5 54v413q-67 -36 -129 -45t-119.5 -1.5t-111.5 27t-104 39.5q-82 33 -156 51.5t-148 -18.5v-420q25 9 49.5 13t48.5 4z" />
    <glyph glyph-name="uniE99B" unicode="&#xe99b;" 
d="M888 -21h-752l-136 597h127v341h326l86 -170h358v-171h127l-136 -597v0zM204 64h616l97 427h-810l97 -427v0zM213 576h598v85h-325l-86 171h-187v-256v0z" />
    <glyph glyph-name="uniE99C" unicode="&#xe99c;" 
d="M341 661q0 -35 -25 -60t-60 -25t-60 25t-25 60q0 36 25 61t60 25t60 -25t25 -61v0zM853 293v624h-853v-810h853v186zM768 832v-437l-172 206l-173 -217l-127 127l-211 -246v567h683v0zM939 704v-683h-726v-85h811v768h-85z" />
    <glyph glyph-name="uniE99D" unicode="&#xe99d;" 
d="M341 661q0 -35 -25 -60t-60 -25t-60 25t-25 60q0 36 25 61t60 25t60 -25t25 -61v0zM853 747v170h-853v-810h171v-171h853v811h-171zM85 832h683v-437l-172 206l-173 -217l-127 127l-211 -246v567v0zM135 192l166 193l129 -129l168 210l170 -204v-70h-633v0zM939 21h-683
v86h597v554h86v-640v0z" />
    <glyph glyph-name="uniE99E" unicode="&#xe99e;" 
d="M529 602q-72 0 -121.5 -49.5t-49.5 -121.5t49.5 -121.5t121.5 -49.5t121.5 49.5t49.5 121.5t-49.5 121.5t-121.5 49.5zM529 329q-43 0 -72.5 29t-29.5 73q0 43 29.5 72.5t72.5 29.5q44 0 73 -29.5t29 -72.5q0 -44 -29 -73t-73 -29zM922 414v68h-89q-8 39 -23.5 75.5
t-38.5 64.5l76 75l-48 48l-75 -75q-36 28 -81 45t-93 20v123h-69v-123q-38 -8 -73.5 -23.5t-66.5 -38.5l-78 72l-48 -48l75 -75q-25 -28 -41 -64.5t-24 -75.5h-123v-68h120q2 -49 19.5 -93.5t45.5 -80.5l-75 -75l47 -48l76 75q30 -23 65.5 -39.5t73.5 -21.5v-93h69v89
q48 3 93 20t81 45l75 -75l48 48l-75 75q28 36 45 80.5t19 93.5h93v0zM529 192q-50 0 -93.5 18.5t-76 51t-51 76t-18.5 93.5t18.5 93.5t51 76t76 51t93.5 18.5t93.5 -18.5t76 -51t51 -76t18.5 -93.5t-18.5 -93.5t-51 -76t-76 -51t-93.5 -18.5z" />
    <glyph glyph-name="uniE99F" unicode="&#xe99f;" 
d="M512 -64q-106 0 -199 40.5t-162.5 110t-110 162.5t-40.5 199t40.5 199t110 162.5t162.5 110t199 40.5t199 -40.5t162.5 -110t110 -162.5t40.5 -199t-40.5 -199t-110 -162.5t-162.5 -110t-199 -40.5zM94 534q-4 -21 -6.5 -42.5t-2.5 -43.5q0 -88 33.5 -166t91.5 -135.5
t136 -91.5t166 -34q5 0 10 0.5t10 0.5q-8 15 -14.5 36.5t-6.5 50.5q0 24 -9.5 33.5t-35.5 22.5q-41 20 -70 58t3 129q-1 2 -9.5 6t-14.5 6q-36 9 -48.5 33.5t-17.5 44.5q-3 14 -8 27.5t-16 25.5q-21 24 -82.5 32.5t-108.5 6.5v0zM397 446q10 -2 36.5 -14t41.5 -40
q9 -15 10 -32.5t-5 -35.5q-16 -45 -9.5 -57t34.5 -26q25 -13 58.5 -40t33.5 -92q0 -17 4 -31t11 -23q5 -6 11 -9t11 -3q12 0 15 11.5t3 17.5q0 53 19.5 92t38.5 69q15 22 25.5 41t10.5 37q0 24 -14 35.5t-48 26.5q-9 4 -18.5 8.5t-17.5 8.5q-11 6 -20 12.5t-17 12.5
q-20 15 -39.5 24t-59.5 9h-16l-12 11q-18 16 -52 62.5t-1 115.5q9 20 23.5 32t28.5 22q21 15 34 31.5t13 58.5q0 37 -23.5 63.5t-40.5 27.5q-58 -6 -110.5 -27t-97 -54t-79.5 -76.5t-58 -94.5q48 -1 118.5 -12.5t109.5 -55.5q21 -24 29.5 -47.5t13.5 -40.5q1 -5 2.5 -10
t2.5 -8v0zM529 533q53 -3 81.5 -18t50.5 -31q7 -5 13.5 -10t15.5 -9q6 -4 13.5 -7.5t14.5 -6.5q34 -15 73.5 -43.5t39.5 -96.5q0 -37 -15.5 -67t-33.5 -57q-15 -25 -28 -49t-16 -52q45 28 82 67t63.5 85.5t41 99.5t14.5 110q0 78 -26.5 147.5t-73 125t-109.5 94t-137 52.5
q11 -20 17 -42t6 -44q0 -74 -29.5 -107.5t-54.5 -51.5q-8 -6 -15 -11.5t-9 -10.5q-5 -10 -5.5 -25t26.5 -42z" />
    <glyph glyph-name="uniE9A0" unicode="&#xe9a0;" 
d="M966 682q-13 56 -32 110.5t-44 106.5q-13 28 -39.5 44.5t-56.5 16.5q-12 0 -23.5 -2.5t-22.5 -7.5q-40 -19 -54.5 -61t4.5 -81q30 -64 48.5 -130.5t26.5 -135.5q-26 42 -58 81.5t-68.5 75.5t-77.5 68t-86 59l-2.5 1.5l-2.5 1.5v0v0q-11 6 -23.5 9.5t-26.5 3.5
q-12 0 -19.5 -1.5t-16.5 -4.5q-9 -4 -18.5 -9.5t-17.5 -14.5q-9 -9 -14.5 -18.5t-9.5 -19.5q-7 -19 -5.5 -42.5t14.5 -43.5q26 -43 41.5 -90t21.5 -97q-43 60 -102 111.5t-128 87.5q-10 6 -22 9t-24 3q-27 0 -49.5 -14t-35.5 -38q-19 -35 -7.5 -73t47.5 -57q53 -28 96 -69
t74.5 -91.5t50 -108.5t22.5 -120v0q2 -23 14.5 -43.5t33.5 -33.5q6 -4 12 -6.5t11 -4.5q7 -2 14.5 -3t15.5 -1q26 0 49.5 13t37.5 36q21 34 37.5 71t28.5 75t19.5 78t9.5 80v0.5v0.5q19 -36 34 -74.5t24.5 -78.5t15 -82t5.5 -86v-19.5t1 -26.5v0v0q0 -4 0.5 -8.5t1.5 -8.5
q6 -23 20.5 -42t38.5 -31q11 -5 22 -7.5t23 -2.5q30 0 55 15t39 41q16 30 32 69.5t30 90.5l8 30t7 30q13 57 20 116t7 119q-1 59 -8 118.5t-19 116.5v0z" />
    <glyph glyph-name="uniE9A1" unicode="&#xe9a1;" 
d="M539 375l-48 38q-11 9 -22.5 22t-11.5 35t12 37.5t25 28.5q42 33 77 74t35 115q0 76 -36 119t-59 62h83l87 54h-263q-54 0 -124.5 -16.5t-127.5 -63.5q-43 -37 -64 -85t-21 -94q0 -39 14.5 -76.5t43 -67t69.5 -47.5t94 -18q10 0 21 0.5t22 1.5q-5 -12 -9.5 -23.5
t-4.5 -28.5q0 -31 13 -52t27 -39q-45 -3 -118.5 -13t-135.5 -48q-59 -35 -81 -81t-22 -82q0 -37 17.5 -71.5t53.5 -61t89.5 -42.5t126.5 -16q86 0 151.5 22t109.5 57.5t66.5 80.5t22.5 92q0 70 -34 110t-78 77v0zM365 529q-43 0 -74.5 24.5t-52 60.5t-30.5 77.5t-10 75.5
q0 26 6 51.5t23 46.5q16 21 42 33t52 12q41 0 72.5 -25t52.5 -62t32 -80t11 -79q0 -18 -5.5 -46.5t-28.5 -51.5q-16 -16 -40.5 -26.5t-49.5 -10.5v0zM366 -8q-107 0 -171 46t-64 117t46.5 100.5t68.5 37.5q42 14 86.5 17.5t53.5 3.5h16.5t14.5 -1q76 -55 110.5 -90.5
t34.5 -86.5q0 -62 -50 -103t-146 -41v0zM876 531v133h-66v-133h-133v-67h133v-134h66v134h134v67h-134z" />
    <glyph glyph-name="uniE9A2" unicode="&#xe9a2;" 
d="M1003 -43h-982v982h982v-982zM704 43h213v213h-213v-213zM405 43h214v213h-214v-213v0zM107 43h213v213h-213v-213zM704 341h213v214h-213v-214zM405 341h214v214h-214v-214v0zM107 341h213v214h-213v-214zM704 640h213v213h-213v-213zM405 640h214v213h-214v-213v0z
M107 640h213v213h-213v-213z" />
    <glyph glyph-name="uniE9A3" unicode="&#xe9a3;" 
d="M789 21h-554v118h-235v163q0 80 39 143.5t104 97.5q-30 28 -47.5 65.5t-17.5 81.5q0 41 16 77t43 63.5t63 43t77 15.5q63 0 112.5 -34.5t72.5 -89.5q24 6 50 6t50 -6q22 55 72 89.5t113 34.5q41 0 77 -15.5t63 -43t43 -63.5t16 -77q0 -44 -17.5 -81.5t-47.5 -65.5
q65 -34 104 -97.5t39 -143.5v-163h-235v-118v0zM320 107h384v78q0 81 -54 134t-137 54q-83 -1 -138 -54.5t-55 -133.5v-78zM787 224h152v78q0 82 -55 135.5t-139 53.5v0q-13 0 -25 1.5t-24 4.5q-8 -20 -20.5 -38t-28.5 -33q56 -30 93.5 -82.5t46.5 -119.5v0zM85 224h152
q9 67 46.5 119.5t94.5 82.5q-17 14 -29.5 32.5t-20.5 38.5q-12 -3 -24 -4.5t-24 -1.5h-0.5h-0.5v0q-84 0 -139 -53.5t-55 -135.5v-78v0zM512 459q47 0 80.5 33t33.5 80t-33.5 80.5t-80.5 33.5t-80.5 -33.5t-33.5 -80.5t33.5 -80t80.5 -33zM745 576h0.5h0.5q48 0 81 33.5
t33 80.5t-33 80.5t-80 33.5q-38 0 -67.5 -22t-40.5 -56q31 -26 50.5 -63.5t21.5 -80.5q8 -3 16.5 -4.5t17.5 -1.5zM277 804q-47 0 -80 -33.5t-33 -80.5t33 -80.5t80 -33.5q10 0 19 1.5t17 4.5q2 43 21.5 80.5t50.5 63.5q-11 34 -40.5 56t-67.5 22v0z" />
    <glyph glyph-name="uniE9A4" unicode="&#xe9a4;" 
d="M720 -64h-416l-42 299h-91v85h298v132q-60 -10 -119 5.5t-103 53.5q-55 46 -71 112t13 129l7 17l18 6q65 22 134 11t121 -51q-1 45 18.5 87.5t57.5 74.5q52 45 124 58t141 -9l18 -6l7 -17q29 -63 13 -129t-71 -113q-44 -38 -103 -53t-119 -5v-47v-8v-8v-240h298v-85h-91
l-42 -299v0zM378 21h268l30 214h-328l30 -214v0zM260 699q-9 -33 2 -66t40 -58q32 -27 76 -37t87 0q2 6 3 12t1 12v12q-1 24 -12.5 47t-33.5 41q-32 27 -75.5 37t-87.5 0v0zM559 709q43 -10 87 0t76 37q29 25 40 58t2 66q-44 10 -87.5 0t-75.5 -37q-30 -25 -41 -58t-1 -66z
" />
    <glyph glyph-name="uniE9A5" unicode="&#xe9a5;" 
d="M1024 619h-341l-171 341l-171 -341h-341l256 -270l-103 -413l359 218l359 -218l-103 413l256 270v0zM556 227l-44 26v516l118 -236h195l-151 -159l64 -258l-182 111v0z" />
    <glyph glyph-name="uniE9A6" unicode="&#xe9a6;" 
d="M627 -64h-230q-65 0 -121.5 25t-99 68t-67 100.5t-24.5 122.5v278h81q20 0 38.5 -5t34.5 -13v210q0 50 35 85.5t84 35.5q9 0 17.5 -1.5t17.5 -3.5v1q0 50 35 85.5t84 35.5t84.5 -35.5t35.5 -85.5v-1q8 2 16.5 3.5t17.5 1.5q49 0 84 -35.5t35 -85.5v-2q8 3 16.5 4t17.5 1
q50 0 85 -35.5t35 -85.5v-352q0 -65 -24.5 -122.5t-67 -100.5t-99 -68t-121.5 -25v0zM171 444v-192q0 -47 17.5 -89.5t48.5 -73.5t72 -49.5t88 -18.5h230q47 0 88 18.5t72 49.5t48.5 73.5t17.5 89.5v352q0 15 -10 25.5t-24 10.5t-24 -10.5t-10 -25.5v-234h-85v352
q0 14 -10 24.5t-24 10.5q-15 0 -24.5 -10.5t-9.5 -24.5v-313h-86v430q0 15 -10 25.5t-24 10.5t-24 -10.5t-10 -25.5v-430h-85v313q0 14 -10 24.5t-25 10.5q-14 0 -24 -10.5t-10 -24.5v-348v-2v-2v-157h-85v157q0 30 -20 51.5t-48 22.5v0z" />
    <glyph glyph-name="uniE9A7" unicode="&#xe9a7;" 
d="M554 191h-85v122q0 50 29 90.5t75 54.5q70 21 112 76t41 124q-1 43 -18.5 82t-46.5 69t-66.5 47.5t-79.5 18.5q-44 0 -84 -15.5t-71 -46.5q-30 -30 -46 -68t-16 -80h-85q0 59 22.5 113t65.5 95q43 43 99 65.5t116 21.5q59 -1 112.5 -25.5t93.5 -65.5t64 -95t25 -115
q1 -48 -14 -93t-43.5 -82.5t-68 -65t-87.5 -42.5q-19 -5 -31.5 -23t-12.5 -40v-122v0zM597 21q0 -35 -25 -60t-60 -25t-60 25t-25 60t25 60t60 25t60 -25t25 -60v0z" />
    <glyph glyph-name="uniE9A8" unicode="&#xe9a8;" 
d="M512 -64q-106 0 -199 40.5t-162.5 110t-110 162.5t-40.5 199h85q0 -88 33.5 -166t91.5 -135.5t136 -91.5t166 -34t166 34t135.5 91.5t91.5 135.5t34 166t-34 166t-91.5 136t-135.5 91.5t-166 33.5q-57 0 -111.5 -15t-102.5 -43t-87.5 -67.5t-68.5 -88.5h199v-85h-341v341
h85v-186q36 53 82.5 95.5t101.5 72t116.5 45.5t126.5 16q106 0 199 -40.5t162.5 -110t110 -162.5t40.5 -199t-40.5 -199t-110 -162.5t-162.5 -110t-199 -40.5v0zM651 201l-182 187v316h86v-281l157 -162l-61 -60v0z" />
    <glyph glyph-name="uniE9A9" unicode="&#xe9a9;" 
d="M539 937l-27 23l-27 -23l-483 -395l54 -66l72 59v-599h768v599l72 -59l54 66l-483 395v0zM597 21h-170v257h170v-257z" />
    <glyph glyph-name="uniE9AA" unicode="&#xe9aa;" 
d="M898 -64h-772v599l-72 -59l-54 66l512 418l512 -418l-54 -66l-72 59v-599zM683 21h129v584l-300 245l-300 -245v-584h129v342h342v-342v0zM426 21h172v257h-172v-257z" />
    <glyph glyph-name="uniE9AB" unicode="&#xe9ab;" 
d="M460 -64h-431v1024h768v-469h-85v85h-598v-128h559v-85h-559v-128h470v-86h-470v-128h346v-85v0zM114 661h598v214h-598v-214v0zM541 832h128v-128h-128v128zM982 330l-85 -85l-60 60l85 85q-36 18 -76 11.5t-70 -35.5q-29 -30 -35 -70t11 -76l-217 -216l60 -61l217 217
q36 -17 76 -11t69 36q30 29 36.5 69.5t-11.5 75.5v0z" />
    <glyph glyph-name="uniE9AC" unicode="&#xe9ac;" 
d="M85 960v-1024h854v1024h-854v0zM171 875h682v-214h-682v214v0zM171 576h682v-128h-682v128v0zM171 363h682v-128h-682v128v0zM853 21h-682v128h682v-128zM683 832h128v-128h-128v128z" />
    <glyph glyph-name="uniE9AD" unicode="&#xe9ad;" 
d="M1024 21v854h-1024v-854h1024zM725 551l-213 -213l-128 128l-299 -299v622h854v-451l-214 213v0zM384 619q0 -36 -25 -61t-60 -25q-36 0 -61 25t-25 61q0 35 25 60t61 25q35 0 60 -25t25 -60z" />
    <glyph glyph-name="uniE9AE" unicode="&#xe9ae;" 
d="M1024 21h-1024v854h1024v-854zM146 107h793v110l-214 213l-213 -213l-128 128l-238 -238v0zM85 789v-622l299 299l128 -128l213 213l214 -213v451h-854v0zM384 619q0 -36 -25 -61t-60 -25q-36 0 -61 25t-25 61q0 35 25 60t61 25q35 0 60 -25t25 -60z" />
    <glyph glyph-name="uniE9AF" unicode="&#xe9af;" 
d="M512 -62v1022l512 -228v-566l-512 -228v0zM597 493v-417l342 142v417l-342 -142v0zM597 828v-240l285 114l-285 126v0zM427 -21h-86v366l-225 -226l-61 60l226 226h-280v86h280l-226 226l61 60l225 -226v366h86v-938v0z" />
    <glyph glyph-name="uniE9B0" unicode="&#xe9b0;" 
d="M981 960h-938v-85h108q-25 -81 -17 -138.5t35.5 -99t65.5 -69.5t72 -50q30 -19 53.5 -36.5t23.5 -33.5t-24.5 -33.5t-53.5 -35.5q-34 -22 -73 -50.5t-67 -70t-36.5 -99t17.5 -138.5h-104v-85h938v85h-108q25 81 17 138.5t-35.5 99t-65.5 69.5t-72 50q-30 19 -53.5 36.5
t-23.5 33.5t24.5 33.5t53.5 35.5q34 22 73 50.5t67 70t36.5 99t-17.5 138.5h104v85v0zM673 590q-44 -28 -81 -59.5t-37 -82.5t36.5 -83t79.5 -59q69 -43 115 -99.5t-4 -185.5h-57q2 38 -20 64t-76 76q-25 24 -55.5 52t-59.5 68q-29 -40 -59.5 -67.5t-55.5 -50.5
q-50 -46 -73.5 -77.5t-26.5 -64.5h-62q-50 129 -2.5 185.5t116.5 99.5q44 28 81 59.5t37 82.5t-36.5 83t-79.5 59q-69 43 -115 99.5t4 185.5h545q50 -129 2.5 -185.5t-116.5 -99.5v0zM403 704q-23 -40 -17.5 -51.5t56.5 -36.5q15 -8 33 -17.5t36 -22.5q17 13 35.5 22.5
t33.5 17.5q53 26 58 37.5t-17 50.5h-218z" />
    <glyph glyph-name="uniE9B1" unicode="&#xe9b1;" 
d="M1024 -21h-1024v477l184 461h656l184 -461v-477zM85 64h854v341h-214v-170h-426v170h-214v-341zM384 320h256v171h278l-136 341h-540l-136 -341h278v-171v0z" />
    <glyph glyph-name="uniE9B2" unicode="&#xe9b2;" 
d="M847 686q-10 51 -34.5 95.5t-59.5 79.5t-79.5 59t-95.5 34q-76 14 -150.5 -4.5t-132.5 -67.5q-60 -49 -92 -118t-32 -145q0 -69 26 -132t76 -112q19 -19 39 -47t36 -63t26 -75t10 -84v-170h256v170q0 44 10 84t26 75t36 63t39 47q31 31 53 67.5t34.5 76t14.5 82t-6 85.5
v0zM512 469q-62 0 -105.5 44t-43.5 105q0 62 43.5 106t105.5 44t105.5 -44t43.5 -106q0 -61 -43.5 -105t-105.5 -44z" />
    <glyph glyph-name="uniE9B3" unicode="&#xe9b3;" 
d="M640 -64h-256v170q0 44 -10 84t-26 75t-36 63t-39 47q-50 49 -76 112t-26 132q0 70 26.5 132.5t73 108.5t108.5 73t133 27q16 0 33 -1.5t33 -4.5q51 -10 95.5 -34t79.5 -59t59.5 -80t34.5 -95q8 -43 6 -85.5t-14.5 -82t-34.5 -76t-53 -67.5q-19 -19 -39 -47t-36 -63
t-26 -75t-10 -84v-170v0zM469 21h86v85q0 54 12 102.5t31 91t43.5 77t49.5 58.5q47 47 66 108.5t6 126.5q-15 75 -70 130.5t-131 69.5q-12 2 -25 3.5t-25 1.5q-53 0 -99.5 -20t-81.5 -55t-55 -81.5t-20 -99.5q0 -52 20 -99t57 -85q25 -24 49.5 -58.5t43.5 -77t31 -91
t12 -102.5v-85v0zM512 448q-71 0 -121 50t-50 120q0 71 50 121t121 50t121 -50t50 -121q0 -70 -50 -120t-121 -50v0zM512 704q-35 0 -60 -25t-25 -61q0 -35 25 -60t60 -25t60 25t25 60q0 36 -25 61t-60 25v0z" />
    <glyph glyph-name="uniE9B4" unicode="&#xe9b4;" 
d="M521 960q-71 0 -134 -25t-114 -73t-76.5 -110.5t-25.5 -132.5q0 -71 27.5 -135.5t78.5 -112.5q36 -32 50 -66.5t14 -44.5v-42h342v42q0 10 18 45t50 70q51 52 76.5 117t25.5 135q-1 67 -28 127t-72.5 105t-105 72t-126.5 29v0z" />
    <glyph glyph-name="uniE9B5" unicode="&#xe9b5;" 
d="M512 -64q-71 0 -121 50t-50 121v112q0 43 -17 83t-48 70q-51 49 -78 112.5t-27 134.5q0 70 26.5 132.5t73 108.5t108.5 73t133 27h8q67 -2 126.5 -28.5t105 -71.5t72.5 -104.5t29 -126.5q2 -72 -24 -137.5t-77 -115.5q-34 -33 -51.5 -73.5t-17.5 -83.5v-112
q0 -71 -50 -121t-121 -50v0zM427 149v-42q0 -36 25 -61t60 -25t60 25t25 61v42h-170v0zM426 235h172q3 56 27 108t67 94q38 37 58 86t18 104q-2 50 -22.5 94.5t-54 78t-78.5 54t-95 21.5h-6q-53 0 -99.5 -20.5t-81.5 -55t-55 -81t-20 -99.5t20.5 -101t58.5 -84
q41 -39 64.5 -91t26.5 -108v0z" />
    <glyph glyph-name="uniE9B6" unicode="&#xe9b6;" 
d="M853 277q-31 0 -59 -10.5t-51 -29.5l-188 108v107q45 8 84 30.5t67.5 56t45 76t16.5 89.5q0 53 -20 99.5t-55 81.5t-81.5 55t-99.5 20t-99.5 -20t-81.5 -55t-55 -81.5t-20 -99.5q0 -47 16.5 -89.5t45 -76t67.5 -56t84 -30.5v-107l-189 -108q-22 18 -50 29t-59 11
q-71 0 -121 -50t-50 -120q0 -71 50 -121t121 -50q70 0 120 50t50 121q0 16 -3 31t-8 29l182 104l182 -104q-6 -14 -8.5 -29t-2.5 -31q0 -71 50 -121t120 -50q71 0 121 50t50 121q0 70 -50 120t-121 50v0z" />
    <glyph glyph-name="uniE9B7" unicode="&#xe9b7;" 
d="M853 -64q-70 0 -120 50t-50 121q0 16 2.5 31t8.5 29l-182 104l-182 -104q6 -14 8.5 -29t2.5 -31q0 -71 -50 -121t-120 -50q-71 0 -121 50t-50 121q0 70 50 120t121 50q31 0 59 -10.5t51 -29.5l188 108v107q-45 7 -84 29.5t-67.5 56t-45 76.5t-16.5 90q0 53 20 99.5
t55 81.5t81.5 55t99.5 20t99.5 -20t81.5 -55t55 -81.5t20 -99.5q0 -47 -16.5 -90t-45 -76.5t-67.5 -56t-84 -29.5v-107l188 -108q23 19 51 29.5t59 10.5q71 0 121 -50t50 -120q0 -71 -50 -121t-121 -50v0zM853 192q-35 0 -60 -25t-25 -60q0 -36 25 -61t60 -25q36 0 61 25
t25 61q0 35 -25 60t-61 25zM171 192q-36 0 -61 -25t-25 -60q0 -36 25 -61t61 -25q35 0 60 25t25 61q0 35 -25 60t-60 25zM512 875q-71 0 -121 -50t-50 -121t50 -121t121 -50t121 50t50 121t-50 121t-121 50z" />
    <glyph glyph-name="uniE9B8" unicode="&#xe9b8;" 
d="M849 933h-682q-60 0 -102 -42t-42 -101v-683q0 -59 42 -101t102 -42h682q60 0 102 42t42 101v683q0 59 -42 101t-102 42zM700 773q0 17 12.5 29.5t30.5 12.5h85q18 0 30.5 -12.5t12.5 -29.5v-86q0 -17 -12.5 -29.5t-30.5 -12.5h-85q-18 0 -30.5 12.5t-12.5 29.5v86z
M508 608q66 0 113 -46.5t47 -113.5q0 -66 -47 -113t-113 -47t-113 47t-47 113q0 67 47 113.5t113 46.5v0zM877 107q0 -11 -8 -19t-20 -8h-682q-11 0 -19 8t-8 19v427h116q-7 -20 -11 -41.5t-4 -44.5q0 -55 21 -103.5t57.5 -84.5t85 -57t103.5 -21t103.5 21t85 57t57.5 84.5
t21 103.5q0 23 -4 44.5t-11 41.5h117v-427v0z" />
    <glyph glyph-name="uniE9B9" unicode="&#xe9b9;" 
d="M511 -65l-381 232v228l-127 79l138 298l372 186l368 -181l140 -303l-130 -80v-227l-380 -232v0zM553 340v-279l253 154v126l-199 -122zM216 215l252 -154v277l-54 -120l-198 124v-127v0zM112 507l264 -165l79 174l-264 162l-79 -171v0zM568 517l77 -174l267 164l-82 176
l-262 -166v0zM260 736l250 -154l251 159l-247 122l-254 -127v0z" />
    <glyph glyph-name="uniE9BA" unicode="&#xe9ba;" 
d="M1024 21h-811v86h726v426h-726v86h811v-598zM811 277h-811v598h811v-86h-726v-426h726v-86z" />
    <glyph glyph-name="uniE9BB" unicode="&#xe9bb;" 
d="M85 576h-85v-640h640v85h-555v555zM256 747h-85v-642h640v85h-555v557zM341 960h683v-684h-683v684v0z" />
    <glyph glyph-name="uniE9BC" unicode="&#xe9bc;" 
d="M640 -64h-640v640h85v-555h555v-85zM811 106h-640v640h85v-555h555v-85zM1024 277h-683v683h683v-683zM427 363h512v512h-512v-512v0z" />
    <glyph glyph-name="uniE9BD" unicode="&#xe9bd;" 
d="M853 533q-23 0 -44.5 -6t-40.5 -17v109h-768v-299q0 -79 30 -149t82.5 -122.5t122.5 -82.5t149 -30q67 0 127.5 21.5t109 60t83.5 91.5t51 114q21 -14 46 -22.5t52 -8.5q71 0 121 50t50 121q0 70 -50 120t-121 50zM853 277q-35 0 -60 25t-25 61q0 35 25 60t60 25
q36 0 61 -25t25 -60q0 -36 -25 -61t-61 -25zM341 960h86v-256h-86v256v0zM469 875h86v-171h-86v171v0zM213 875h86v-171h-86v171z" />
    <glyph glyph-name="uniE9BE" unicode="&#xe9be;" 
d="M384 -64q-79 0 -149 30t-122.5 82.5t-82.5 122.5t-30 149v299h768v-109q19 11 40.5 17t44.5 6q71 0 121 -50t50 -120q0 -71 -50 -121t-121 -50q-27 0 -52 8t-45 23q-17 -62 -52 -114.5t-83.5 -91t-109 -60t-127.5 -21.5v0zM85 533v-213q0 -62 23.5 -116.5t64 -95t95 -64
t116.5 -23.5t116.5 23.5t95 64t64 95t23.5 116.5v213h-598v0zM768 363q0 -36 25 -61t60 -25q36 0 61 25t25 61q0 35 -25 60t-61 25q-35 0 -60 -25t-25 -60zM555 704h-86v171h86v-171zM427 704h-86v256h86v-256v0zM299 704h-86v171h86v-171z" />
    <glyph glyph-name="uniE9BF" unicode="&#xe9bf;" 
d="M512 -64q-106 0 -199 40.5t-162.5 110t-110 162.5t-40.5 199t40.5 199t110 162.5t162.5 110t199 40.5t199 -40.5t162.5 -110t110 -162.5t40.5 -199t-40.5 -199t-110 -162.5t-162.5 -110t-199 -40.5zM404 235q19 -100 50.5 -157t57.5 -57t57.5 57t50.5 157h-216v0z
M707 235q-9 -55 -24 -104t-35 -88q74 26 134.5 75.5t98.5 116.5h-174v0zM143 235q38 -67 98.5 -116.5t134.5 -75.5q-20 39 -35 88t-24 104h-174v0zM719 320h200q10 30 15 62.5t5 65.5t-5 65.5t-15 62.5h-200q3 -31 4.5 -63.5t1.5 -64.5t-1.5 -64.5t-4.5 -63.5zM391 320h242
q4 30 5.5 62t1.5 66t-1.5 66t-5.5 62h-242q-4 -30 -5.5 -62t-1.5 -66t1.5 -66t5.5 -62zM105 320h200q-3 31 -4.5 63.5t-1.5 64.5t1.5 64.5t4.5 63.5h-200q-10 -30 -15 -62.5t-5 -65.5t5 -65.5t15 -62.5v0zM707 661h174q-38 67 -98.5 116.5t-134.5 74.5q20 -38 35 -87
t24 -104zM404 661h216q-19 100 -50.5 157t-57.5 57t-57.5 -57t-50.5 -157v0zM143 661h174q9 55 24 104t35 87q-74 -25 -134.5 -74.5t-98.5 -116.5v0z" />
    <glyph glyph-name="uniE9C0" unicode="&#xe9c0;" 
d="M597 623q0 -35 -25 -60t-60 -25t-60 25t-25 60q0 36 25 60.5t60 24.5t60 -24.5t25 -60.5v0zM200 -64q-8 0 -16.5 2t-15.5 6q-18 10 -28.5 28.5t-10.5 40.5v154q0 41 12 73.5t35 55.5l87 90q-3 36 -4.5 73.5t-1.5 75.5q0 126 36.5 206.5t80.5 127.5t82.5 66t41.5 20l14 5
l14 -5q3 -1 41.5 -20t82.5 -66t80.5 -127.5t36.5 -206.5q0 -38 -1.5 -75.5t-4.5 -73.5l87 -91q24 -23 35.5 -55t11.5 -73v-154q0 -21 -9.5 -38t-26.5 -26t-38 -7.5t-40 13.5l-102 76l-59 -89h-216l-58 87l-100 -78q-11 -8 -22.5 -11.5t-23.5 -3.5v0zM450 27h124l29 43h-182
l29 -43v0zM512 869q-16 -8 -44.5 -29t-56.5 -60t-48.5 -98.5t-20.5 -146.5q0 -41 2 -81.5t5 -79.5l2 -19l-114 -119q-12 -12 -17.5 -28.5t-5.5 -40.5v-133l98 76q5 3 8.5 5.5t6.5 4.5q17 12 38 23.5t48 11.5h198q28 0 51 -12.5t42 -24.5l8 -6l98 -72v127q0 24 -5.5 40.5
t-16.5 27.5l-1 1l-114 119l2 19q3 39 5 79.5t2 81.5q0 86 -20.5 146t-48.5 99t-56.5 60t-44.5 29v0z" />
    <glyph glyph-name="uniE9C1" unicode="&#xe9c1;" 
d="M853 482h-529l226 253l-52 44l-293 -331l293 -328l52 45l-222 249h525v68z" />
    <glyph glyph-name="uniE9C2" unicode="&#xe9c2;" 
d="M591 600q3 15 4.5 30.5t1.5 30.5q0 62 -23.5 116.5t-64 95t-95 64t-115.5 23.5q-62 0 -116.5 -23.5t-95 -64t-64 -95t-23.5 -116.5q0 -61 23.5 -115.5t64 -95t95 -64t116.5 -23.5q22 0 43 3t42 9v-140h128v-128h128v-61l110 -110h274v231l-433 433v0zM256 597
q-44 0 -75.5 31.5t-31.5 75.5t31.5 75.5t75.5 31.5t75.5 -31.5t31.5 -75.5t-31.5 -75.5t-75.5 -31.5z" />
    <glyph glyph-name="uniE9C3" unicode="&#xe9c3;" 
d="M341 704q0 -35 -25 -60t-60 -25t-60 25t-25 60t25 60t60 25t60 -25t25 -60v0zM1024 -64h-274l-110 110v61h-128v128h-128v140q-21 -6 -42 -9t-43 -3q-62 0 -116.5 23.5t-95 64t-64 95t-23.5 115.5q0 62 23.5 116.5t64 95t95 64t116.5 23.5q61 0 115.5 -23.5t95 -64
t64 -95t23.5 -116.5q0 -15 -1.5 -30.5t-4.5 -30.5l433 -433v-231v0zM786 21h153v111l-444 443l8 25q4 14 6.5 29.5t2.5 31.5q0 44 -17 83t-46 68t-67.5 46t-82.5 17t-83 -17t-68 -46t-46 -68t-17 -83t17 -82.5t46 -67.5t68 -46t83 -17q22 0 44.5 5t42.5 14l27 12l56 -56
v-103h128v-128h128v-110l61 -61v0z" />
    <glyph glyph-name="uniE9C4" unicode="&#xe9c4;" 
d="M725 576v213q0 72 -48 121.5t-118 49.5h-132v-346q0 -34 -24.5 -57.5t-61.5 -23.5h-85v-597h597q71 0 121 50t50 121v469h-299v0zM0 533h171v-597h-171v597v0z" />
    <glyph glyph-name="uniE9C5" unicode="&#xe9c5;" 
d="M853 -64h-853v597h341q37 0 61.5 23.5t24.5 57.5v346h132q70 0 118 -49.5t48 -121.5v-213h299v-469q0 -71 -50 -121t-121 -50zM341 21h512q36 0 61 25t25 61v384h-299v298q0 37 -23 61.5t-58 24.5h-47v-261q0 -70 -49.5 -118t-121.5 -48v-427v0zM85 21h171v427h-171v-427
v0z" />
    <glyph glyph-name="uniE9C6" unicode="&#xe9c6;" 
d="M1024 21h-1023v86h1023v-86zM60 277l-60 60l342 342l213 -213l323 323h-195v86h341v-342h-85v196l-384 -384l-213 213l-282 -281v0z" />
    <glyph glyph-name="uniE9C7" unicode="&#xe9c7;" 
d="M247 -64q-24 0 -46 9t-40 27l-125 125q-18 17 -27 39t-9 47q0 24 9 46t27 40l195 195q35 34 86 34t86 -34l32 -32l93 93l-32 32q-17 17 -26.5 39.5t-9.5 46.5t9.5 46.5t26.5 39.5l196 195q35 36 85.5 36t85.5 -36l126 -125q35 -35 35 -85.5t-35 -86.5l-196 -195
q-17 -17 -39.5 -26.5t-46.5 -9.5v0q-24 0 -46 9.5t-40 26.5l-32 32l-93 -93l32 -32q17 -17 26.5 -39.5t9.5 -46.5t-9.5 -46.5t-26.5 -39.5l-195 -195q-18 -18 -40.5 -27t-45.5 -9v0zM221 32q11 -11 26 -11t25 11l196 195q5 6 7.5 12.5t2.5 13.5t-2.5 13.5t-7.5 11.5l-33 33
l-106 -106l-60 60l106 106l-33 33q-10 10 -25 10t-25 -10l-196 -196q-5 -5 -8 -11.5t-3 -13.5t3 -14t8 -12l125 -125v0zM649 525l33 -33q10 -10 25 -10t26 10v0l195 196q11 10 11 25t-11 26l-125 125q-11 11 -26 11t-25 -11l-196 -195q-5 -6 -7.5 -12.5t-2.5 -13.5
t2.5 -13.5t7.5 -11.5l33 -33l106 106l61 -60l-107 -106v0z" />
    <glyph glyph-name="uniE9C8" unicode="&#xe9c8;" 
d="M276 22h-177v569h177v-569zM188 669q-43 0 -73 30t-30 72q0 43 30 73t73 30q42 0 72 -30t30 -73q0 -42 -30 -72t-72 -30v0zM939 22h-177v277q0 49 -12 100t-80 51q-69 0 -87.5 -45.5t-18.5 -100.5v-282h-177v569h170v-78h2q18 34 60.5 63t107.5 29q67 0 108.5 -20.5
t64.5 -57t31 -86t8 -107.5v-312v0z" />
    <glyph glyph-name="uniE9C9" unicode="&#xe9c9;" 
d="M119 841h786v-786h-786v786v0z" />
    <glyph glyph-name="uniE9CA" unicode="&#xe9ca;" 
d="M512 960q-78 0 -147 -30t-120.5 -81.5t-81.5 -120.5t-30 -147q0 -118 53 -228t117.5 -195.5t120 -139.5t60.5 -58l28 -24l28 24q5 4 60.5 58t120 139.5t117.5 195.5t53 228q0 78 -30 147t-81.5 120.5t-120.5 81.5t-147 30zM512 434q-61 0 -104 43t-43 104t43 104t104 43
t104 -43t43 -104t-43 -104t-104 -43z" />
    <glyph glyph-name="uniE9CB" unicode="&#xe9cb;" 
d="M512 -64l-28 24q-5 4 -60.5 57.5t-120 139.5t-117.5 196t-53 228q0 78 30 147t81.5 120.5t120.5 81.5t147 30t147 -30t120.5 -81.5t81.5 -120.5t30 -147q0 -118 -53 -228t-117.5 -196t-120 -139.5t-60.5 -57.5l-28 -24v0zM512 876q-61 0 -114.5 -23.5t-93.5 -63.5
t-63.5 -93.5t-23.5 -114.5q0 -85 35 -168.5t83 -154.5t98 -126t79 -83q29 28 79 83t98 126.5t83 154.5t35 168q0 61 -23.5 114.5t-63.5 93.5t-93.5 63.5t-114.5 23.5v0zM512 413q-70 0 -119 49t-49 119t49 119t119 49t119 -49t49 -119t-49 -119t-119 -49zM512 665
q-35 0 -59.5 -24.5t-24.5 -59.5t24.5 -59.5t59.5 -24.5t59.5 24.5t24.5 59.5t-24.5 59.5t-59.5 24.5z" />
    <glyph glyph-name="uniE9CC" unicode="&#xe9cc;" 
d="M939 -64h-854v597h128v128q0 62 23.5 116.5t64 95t95 64t116.5 23.5t116.5 -23.5t95 -64t64 -95t23.5 -116.5v-128h128v-597v0zM171 21h682v427h-682v-427v0zM299 533h426v128q0 44 -16.5 83t-45.5 68t-68 46t-83 17t-83 -17t-68 -46t-45.5 -68t-16.5 -83v-128v0z
M555 149h-86v171h86v-171z" />
    <glyph glyph-name="uniE9CD" unicode="&#xe9cd;" 
d="M1024 -21h-640v341h85v-256h470v768h-470v-256h-85v341h640v-938v0zM627 205l-60 60l141 140h-665v86h665l-141 140l60 60l244 -243l-244 -244v1z" />
    <glyph glyph-name="uniE9CE" unicode="&#xe9ce;" 
d="M640 -21h-640v938h640v-341h-85v256h-470v-768h470v256h85v-341v0zM776 205l-61 60l141 140h-643v86h643l-141 140l61 60l243 -243l-243 -244v1z" />
    <glyph glyph-name="uniE9CF" unicode="&#xe9cf;" 
d="M1024 64h-1024v768h1024v-768zM85 149h854v465l-427 -349l-427 349v-465v0zM85 724l427 -349l427 349v23h-854v-23v0z" />
    <glyph glyph-name="uniE9D0" unicode="&#xe9d0;" 
d="M896 -64h-768v213q0 48 11 92.5t32 85t51 75t67 60.5q-35 40 -55.5 91t-20.5 108q0 62 23.5 116.5t64 95t95 64t116.5 23.5t116.5 -23.5t95 -64t64 -95t23.5 -116.5q0 -57 -20.5 -108t-55.5 -91q13 -9 25 -19.5t24 -21.5q54 -55 83 -125t29 -147v-213v0zM555 21h256v128
q0 56 -20 107.5t-57 92.5l-179 -215v-113zM213 21h256v113l-179 215q-37 -40 -57 -91.5t-20 -108.5v-128v0zM355 404l157 -188l157 188q-1 0 -1.5 0.5t-1.5 0.5q-34 -20 -73 -31t-81 -11t-81 11t-73 31l-1 -0.5t-2 -0.5v0zM316 577q25 -57 77.5 -93t118.5 -36
q67 0 120.5 37.5t77.5 96.5q-44 8 -84 29.5t-71 54.5q-42 -43 -97.5 -66.5t-116.5 -23.5q-6 0 -12.5 0.5t-12.5 0.5v0zM299 665q10 -2 20.5 -3t21.5 -1q54 0 101 25.5t77 70.5l36 54l35 -54q24 -36 59 -59.5t76 -31.5q-1 43 -18 81t-46 66.5t-67 45t-82 16.5t-82.5 -16.5
t-67 -45t-45.5 -66.5t-18 -82v0z" />
    <glyph glyph-name="uniE9D1" unicode="&#xe9d1;" 
d="M760 819q-38 63 -103.5 102t-144.5 39q-48 0 -91.5 -15t-79.5 -41.5t-63 -63.5t-41 -80l-237 94v-774l340 -140l343 123l341 -122v759l-264 119v0zM512 875q42 0 79 -16t64.5 -44t43.5 -65t16 -79q0 -54 -16.5 -99t-43.5 -83.5t-60 -71.5t-66 -64q-4 -4 -9 -8.5t-9 -8.5
q-28 26 -63.5 65t-66 84t-51.5 93t-21 93q0 42 16 79t43.5 65t64.5 44t79 16v0zM85 137v591l138 -54v-1.5v-1.5q0 -56 22 -111t54 -104v-407zM384 46v298q38 -43 67.5 -70t33.5 -29l30 -25l27 27q11 11 22.5 21.5t23.5 22.5t25.5 24.5t26.5 25.5v-202l-256 -93v0zM939 62
l-214 77v301q33 47 54.5 104t21.5 127q0 10 -1 19l-2 18l141 -63v-583v0zM597 661q0 -35 -25 -60t-60 -25t-60 25t-25 60q0 36 25 61t60 25t60 -25t25 -61v0z" />
    <glyph glyph-name="uniE9D2" unicode="&#xe9d2;" 
d="M356 -62l-356 140v880l355 -134l313 134l356 -152v-866l-354 122l-314 -124v0zM85 136l228 -89v701l-228 86v-698v0zM398 750v-703l228 89v711l-228 -97v0zM711 138l228 -78v690l-228 97v-709v0z" />
    <glyph glyph-name="uniE9D3" unicode="&#xe9d3;" 
d="M718 755h-0.5h-0.5q-59 0 -112 -21.5t-94 -59.5q-40 37 -92.5 58t-112.5 21h-0.5h-1.5q-63 0 -118.5 -24t-96.5 -65.5t-65 -97t-24 -119.5q0 -63 24 -119t65.5 -97.5t97.5 -65.5t119 -24q54 0 102.5 17.5t87.5 48.5v-0.5v-0.5l3 3q3 3 6.5 6t7.5 6v0v0v0v0v0
q41 -37 93 -58t112 -21q63 0 119 24t97.5 65.5t65.5 97.5t24 119v0q0 64 -24 119.5t-65.5 97.5t-97.5 66t-119 24v0zM718 184q-51 0 -96 18.5t-81 49.5l1.5 1.5l1.5 1.5h-6q-7 7 -14.5 15t-13.5 16h56q5 8 9.5 16t8.5 15h-95q-5 9 -9 17.5t-8 17.5h125q3 8 5.5 16.5
t4.5 17.5h-146q-2 8 -3 16l-2 16h155q1 7 1.5 14.5t0.5 15.5v2v2h-159q0 8 0.5 16t1.5 15h155q-1 8 -2.5 16t-2.5 15h-144q3 8 5.5 16t5.5 16h124q-3 7 -6.5 16.5t-6.5 17.5h-94q4 8 9.5 16t11.5 15h55q-5 8 -11 16t-13 15h-2q35 33 80.5 51.5t96.5 18.5h1q54 0 102 -21
t84 -56.5t56.5 -83.5t20.5 -103q0 -54 -20.5 -102t-56.5 -84t-84 -57t-102 -21v0z" />
    <glyph glyph-name="uniE9D4" unicode="&#xe9d4;" 
d="M1024 713h-40q-12 0 -24.5 -13t-12.5 -23v-503q0 -11 12.5 -22t23.5 -11h41v-120h-367v120h77v529h-4l-179 -649h-139l-177 649h-5v-529h77v-120h-307v120h39q12 0 25 11t13 22v503q0 10 -13 23t-25 13h-39v119h384l126 -469h4l127 469h383v-119v0z" />
    <glyph glyph-name="uniE9D5" unicode="&#xe9d5;" 
d="M1024 64h-1024v85h1024v-85zM1024 405h-1024v86h1024v-86zM1024 747h-1024v85h1024v-85z" />
    <glyph glyph-name="uniE9D6" unicode="&#xe9d6;" 
d="M514 277q43 0 82 17t67.5 45.5t45 67t16.5 82.5v259q0 44 -16.5 82.5t-45.5 67.5t-68.5 45.5t-84.5 16.5q-43 0 -82 -16.5t-67.5 -45.5t-45 -67.5t-16.5 -82.5v-259q0 -44 16.5 -82.5t45.5 -67t68.5 -45.5t84.5 -17zM811 576v-87q0 -61 -23.5 -115.5t-64 -94.5
t-95.5 -63.5t-118 -23.5q-61 0 -115 23.5t-94.5 63.5t-64 94.5t-23.5 115.5v87h-85v-87q0 -74 26 -139t72 -116t108.5 -83.5t134.5 -41.5v-173h86v173q72 8 134 40.5t108 83.5t72.5 116.5t26.5 139.5v87h-85v0z" />
    <glyph glyph-name="uniE9D7" unicode="&#xe9d7;" 
d="M555 -64h-86v173q-72 8 -134.5 41t-108.5 84t-72 116t-26 139v87h85v-87q0 -61 23.5 -115.5t64 -94.5t94.5 -63.5t115 -23.5q63 0 118 23.5t95.5 63.5t64 94.5t23.5 115.5v87h85v-87q0 -74 -26.5 -139.5t-72.5 -116.5t-108 -83.5t-134 -40.5v-173v0zM514 277
q-45 0 -84.5 17t-68.5 45.5t-45.5 67t-16.5 82.5v259q0 44 16.5 82.5t45 67.5t67.5 45.5t82 16.5q45 0 84.5 -16.5t68.5 -45.5t45.5 -67.5t16.5 -82.5v-259q0 -44 -16.5 -82.5t-45 -67t-67.5 -45.5t-82 -17v0zM514 875q-55 0 -92.5 -37t-37.5 -90v-259q0 -52 37 -89t89 -37
q55 0 92.5 37t37.5 89v259q0 53 -37 90t-89 37z" />
    <glyph glyph-name="uniE9D8" unicode="&#xe9d8;" 
d="M239 482h546v-68h-546v68z" />
    <glyph glyph-name="uniE9D9" unicode="&#xe9d9;" 
d="M939 -64h-854v1024h615l239 -238v-786v0zM171 21h682v598h-256v256h-426v-854v0zM683 704h153l-153 153v-153v0zM610 162l-98 98l-98 -98l-60 60l98 98l-98 98l60 60l98 -98l98 98l60 -60l-98 -98l98 -98z" />
    <glyph glyph-name="uniE9DA" unicode="&#xe9da;" 
d="M811 -21h-598v85h128v171h-341v682h1024v-682h-341v-171h128v-85v0zM427 64h170v171h-170v-171v0zM683 320h256v512h-854v-512h598z" />
    <glyph glyph-name="uniE9DB" unicode="&#xe9db;" 
d="M683 -64h-683v683h171v170h170v171h683v-683h-171v-170h-170v-171v0zM85 21h512v512h-512v-512v0zM683 192h85v512h-512v-85h427v-427v0zM853 363h86v512h-512v-86h426v-426v0z" />
    <glyph glyph-name="uniE9DC" unicode="&#xe9dc;" 
d="M640 -64h-256v512h-211l-171 171l171 170h211v42l128 128l128 -128v-127h211l171 -171l-171 -170h-211v-427v0zM469 21h86v775l-43 42l-43 -42v-775v0zM640 448h176l85 85l-85 86h-176v-171v0zM208 533h176v171h-176l-85 -85z" />
    <glyph glyph-name="uniE9DD" unicode="&#xe9dd;" 
d="M597 405h86v128h128v86h-128v128h-86v-128h-128v-86h128v-128zM256 960v-256h-256v-768h768v256h256v768h-768zM683 21h-598v598h171v-427h427v-171v0zM939 277h-598v598h598v-598z" />
    <glyph glyph-name="uniE9DE" unicode="&#xe9de;" 
d="M799 448l-543 388v-776z" />
    <glyph glyph-name="uniE9DF" unicode="&#xe9df;" 
d="M576 77l-60 60l268 268h-708v86h708l-268 268l60 60l371 -371z" />
    <glyph glyph-name="uniE9E0" unicode="&#xe9e0;" 
d="M292 -51l-60 60l439 439l-439 439l60 60l500 -499z" />
    <glyph glyph-name="uniE9E1" unicode="&#xe9e1;" 
d="M896 192v384q0 79 -30 149t-82.5 122.5t-122.5 82.5t-149 30t-149 -30t-122.5 -82.5t-82.5 -122.5t-30 -149v-384h-128v-85h341q0 -71 50 -121t121 -50t121 50t50 121h341v85h-128z" />
    <glyph glyph-name="uniE9E2" unicode="&#xe9e2;" 
d="M512 -64q-71 0 -121 50t-50 121h-341v85h128v384q0 79 30 149t82.5 122.5t122.5 82.5t149 30t149 -30t122.5 -82.5t82.5 -122.5t30 -149v-384h128v-85h-341q0 -71 -50 -121t-121 -50v0zM427 107q0 -36 25 -61t60 -25t60 25t25 61h-170v0zM213 192h598v384
q0 62 -23.5 116.5t-64 95t-95 64t-116.5 23.5t-116.5 -23.5t-95 -64t-64 -95t-23.5 -116.5v-384v0z" />
    <glyph glyph-name="uniE9E3" unicode="&#xe9e3;" 
d="M640 -64h-256v340h256v-340zM469 21h86v171h-86v-171v0zM299 -64h-256v255h256v-255zM128 21h85v86h-85v-86zM43 278v86q124 0 226.5 26.5t187 83t152 144t120.5 208.5l-183 -75l-32 79l319 130l127 -312l-80 -32l-72 178q-58 -133 -133.5 -230t-170 -160.5t-209.5 -94.5
t-252 -31v0zM725 491v-555h256v555h-256v0zM896 21h-85v384h85v-384z" />
    <glyph glyph-name="uniE9E4" unicode="&#xe9e4;" 
d="M1023 275q0 4 -0.5 8t-1.5 8v0v0q-1 6 -2 11.5t-2 10.5q-1 3 -1.5 5t-1.5 4q0 2 -1 4t-1 5l-165 501l-12 8q-4 2 -35.5 18.5t-74.5 16.5t-74 -16.5t-35 -18.5l-17 -12l-14 -168h-146l-14 168l-17 12q-4 2 -35 18.5t-74 16.5t-74.5 -16.5t-35.5 -18.5l-12 -8l-164 -501
q-1 -2 -2 -4.5t-1 -4.5q-1 -1 -1.5 -3.5t-1.5 -6.5l-2 -10l-2 -10v-1v-1q-1 -4 -1.5 -7.5t-0.5 -7.5q0 -5 -0.5 -9.5t-0.5 -9.5q0 -49 18.5 -91.5t50.5 -74.5t74.5 -50.5t91.5 -18.5q45 0 85.5 16.5t72 45t51.5 66.5t24 83h88q4 -45 24 -83t51.5 -66.5t72 -45t85.5 -16.5
q49 0 91.5 18.5t74.5 50.5t50.5 74.5t18.5 91.5q0 5 -0.5 9.5t-0.5 9.5v0zM725 789q15 0 28.5 -4.5t21.5 -8.5l99 -302q-19 8 -40.5 12.5t-44.5 4.5q-38 0 -72.5 -12t-63.5 -33l28 332q8 4 20 7.5t24 3.5v0zM578 575l-22 -258h-88l-22 258h132v0zM249 776q8 4 21.5 8.5
t28.5 4.5q12 0 24 -3.5t20 -7.5l28 -332q-29 21 -63.5 33t-72.5 12q-23 0 -44.5 -4.5t-40.5 -12.5l99 302v0zM235 107q-62 0 -106 43.5t-44 105.5q0 7 1 13.5t2 12.5q0 2 0.5 4t0.5 4q12 49 52.5 82t93.5 33q61 0 105 -43.5t44 -105.5t-44 -105.5t-105 -43.5v0zM789 107
q-61 0 -105 43.5t-44 105.5t44 105.5t105 43.5q53 0 93.5 -33t51.5 -82q1 -2 1.5 -4t0.5 -5q1 -6 2 -12.5t1 -12.5q0 -62 -44 -105.5t-106 -43.5v0z" />
    <glyph glyph-name="uniE9E5" unicode="&#xe9e5;" 
d="M823 649l-60 -60l98 -98h-306v306l98 -98l60 60l-201 201l-201 -201l60 -60l98 98v-306h-306l98 98l-60 60l-201 -201l201 -201l60 60l-98 98h306v-306l-98 98l-60 -60l201 -201l201 201l-60 60l-98 -98v306h306l-98 -97l60 -61l201 201l-201 201v0z" />
    <glyph glyph-name="uniE9E6" unicode="&#xe9e6;" 
d="M649 858h-478v-820h682v577l-204 243v0zM761 619h-147v170zM239 107v682h307v-239h239v-443h-546v0z" />
    <glyph glyph-name="uniE9E7" unicode="&#xe9e7;" 
d="M128 917h299v-938h-299v938zM597 917h299v-938h-299v938v0z" />
    <glyph glyph-name="uniE9E8" unicode="&#xe9e8;" 
d="M896 -21h-299v938h299v-938zM683 64h128v768h-128v-768zM427 -21h-299v938h299v-938zM213 64h128v768h-128v-768v0z" />
    <glyph glyph-name="uniE9E9" unicode="&#xe9e9;" 
d="M762 849q-32 36 -87 52t-127 16h-280q-15 0 -26 -9.5t-14 -23.5l-116 -740q-2 -11 5 -19.5t18 -8.5h173l44 276l-2 -9q3 15 14 24.5t26 9.5h82q61 0 114 13t95 43t72 79t44 120q1 4 1.5 8t1.5 8q8 53 -1 91t-37 70zM837 651v0q0 -4 -1 -8t-2 -9q-14 -71 -43.5 -119.5
t-72 -78.5t-95.5 -43.5t-113 -13.5h-83q-14 0 -25.5 -9.5t-13.5 -24.5l-42 -266l-12 -76q-2 -10 4.5 -17t16.5 -7h145q13 0 23 8t12 21l2 8l27 174l2 9q2 13 11.5 21.5t22.5 8.5h22q53 0 99.5 11.5t83.5 38t63 69t38 104.5q10 52 4 95t-33 73q-8 9 -18 17t-22 14v0z" />
    <glyph glyph-name="uniE9EA" unicode="&#xe9ea;" 
d="M1024 -21h-1024v298h85v640h854v-640h85v-298v0zM85 64h854v128h-854v-128v0zM171 277h682v555h-682v-555v0zM811 320h-598v469h598v-469zM299 405h426v299h-426v-299z" />
    <glyph glyph-name="uniE9EB" unicode="&#xe9eb;" 
d="M1011 478l-469 469l-61 -60l58 -58l-225 -225q-61 -4 -116 -29t-98 -68l-30 -30l205 -206l-262 -262l60 -61l262 263l206 -205l30 30q43 43 68 98t29 116l225 225l58 -58l60 61v0z" />
    <glyph glyph-name="uniE9EC" unicode="&#xe9ec;" 
d="M1011 478l-469 469l-61 -60l58 -58l-225 -225q-61 -4 -116 -29t-98 -68l-30 -30l205 -206l-262 -262l60 -61l262 263l206 -205l30 30q43 43 68 98t29 116l225 225l58 -58l60 61v0zM583 286v-17q0 -38 -11.5 -74t-33.5 -66l-345 345q30 22 66 33.5t74 11.5h17l250 250
l233 -233l-250 -250v0z" />
    <glyph glyph-name="uniE9ED" unicode="&#xe9ed;" 
d="M149 580q0 30 6 59.5t19 58.5q12 29 30 56t41 52t53.5 45t68.5 35q38 16 80 23.5t88 7.5q74 0 135.5 -23t108.5 -69q48 -46 72 -100t24 -116q0 -81 -20 -147t-61 -119q-41 -52 -93 -78t-117 -26q-21 0 -41 5t-38 15q-19 9 -32 21t-20 26l-38 -148q-2 -9 -5 -18t-7 -18
l-8 -18t-8 -17q-5 -9 -9.5 -17t-8.5 -15q-5 -8 -9 -15t-9 -13q-4 -7 -8 -12.5t-7 -9.5q-4 -5 -7 -9t-6 -7l-5 -7q-2 -2 -3.5 -3t-4.5 0q-2 0 -3.5 1.5t-1.5 4.5l-0.5 3.5t-1.5 9.5t-1.5 12.5t-1.5 12.5q0 7 -1 16t-1 20q-1 10 -1.5 20.5t0.5 20.5q0 10 0.5 21.5t1.5 23.5
q2 12 3.5 23.5t3.5 21.5q6 22 23 95.5t47 198.5q-4 7 -7 16t-5 20q-3 10 -4 19t-1 15l-1 14q0 30 7.5 55t23.5 45q15 20 33.5 30t39.5 10q18 0 31.5 -5.5t22.5 -17.5q10 -11 14.5 -25.5t4.5 -32.5q0 -10 -2 -23.5t-5 -29.5q-4 -15 -9.5 -33.5t-12.5 -38.5q-6 -20 -11 -36.5
t-7 -29.5q-5 -21 -1 -39.5t17 -33.5q13 -16 30 -23.5t39 -7.5q37 0 67.5 21t54.5 63q25 42 37 92.5t12 110.5q0 45 -15 82.5t-44 66.5q-30 29 -71 43t-94 14q-60 0 -108 -19t-84 -57q-37 -38 -55.5 -83.5t-18.5 -98.5q0 -31 9 -57.5t27 -48.5q6 -7 7.5 -14.5t-0.5 -15.5
q-1 -2 -2.5 -7.5t-3.5 -13.5q-1 -9 -2.5 -14.5t-2.5 -7.5q-1 -5 -3.5 -8.5t-6.5 -5.5q-3 -1 -7.5 -1t-8.5 2q-28 11 -49 30.5t-34 46.5q-14 28 -21 60t-7 68v0z" />
    <glyph glyph-name="uniE9EE" unicode="&#xe9ee;" 
d="M161 960v-1024l702 512z" />
    <glyph glyph-name="uniE9EF" unicode="&#xe9ef;" 
d="M156 -64v1024l712 -512l-712 -512v0zM241 792v-688l482 344l-482 344v0z" />
    <glyph glyph-name="uniE9F0" unicode="&#xe9f0;" 
d="M1024 512h-448v448h-128v-448h-448v-128h448v-448h128v448h448v128z" />
    <glyph glyph-name="uniE9F1" unicode="&#xe9f1;" 
d="M734 335q36 42 56.5 97.5t20.5 119.5v24h1l138 153l-19 28q-32 47 -77.5 84.5t-99.5 64t-115.5 40.5t-126.5 14t-126.5 -14t-115.5 -40.5t-99.5 -64t-77.5 -84.5l-19 -28l138 -153h1v-24q0 -64 20.5 -119.5t56.5 -97.5q-38 -27 -68 -61.5t-51 -74.5t-32 -85t-11 -93v-85
h768v85q0 77 -29 147t-83 125q-12 12 -24.5 22.5t-25.5 19.5v0zM183 735q28 32 64.5 58t78.5 44t89.5 28t96.5 10t96.5 -10t89.5 -28t78.5 -44t64.5 -58l-67 -74h-524l-67 74v0zM725 576v-24q0 -51 -16 -93.5t-44 -73t-67.5 -48t-85.5 -17.5t-85.5 17.5t-67.5 48t-44 73
t-16 93.5v24h426v0zM213 21q0 80 39 148t106 108q33 -20 72 -31t82 -11t82 11t72 31q16 -9 30 -20t27 -24q43 -43 65.5 -97.5t22.5 -114.5h-598v0zM512 704q64 0 74.5 64l10.5 64h-170l9.5 -64t75.5 -64v0z" />
    <glyph glyph-name="uniE9F2" unicode="&#xe9f2;" 
d="M512 -64q-97 0 -182 37t-148.5 100.5t-100.5 148.5t-37 182q0 73 21 140t60 124t94 101t123 71l31 -80q-56 -21 -100.5 -57.5t-76.5 -83t-49.5 -101.5t-17.5 -114q0 -79 30.5 -149t82.5 -121.5t121.5 -82t148.5 -30.5t148.5 30.5t121.5 82t82 121.5t30 149q0 59 -17 114
t-49 102t-76.5 83t-100.5 57l31 80q68 -27 123 -71t94 -101t60 -124t21 -140q0 -97 -37 -182t-100.5 -148.5t-148.5 -100.5t-182 -37v0zM555 533h-86v427h86v-427z" />
    <glyph glyph-name="uniE9F3" unicode="&#xe9f3;" 
d="M225 448l543 388v-776z" />
    <glyph glyph-name="uniE9F4" unicode="&#xe9f4;" 
d="M448 77l-371 371l371 371l60 -60l-268 -268h707v-86h-707l268 -268z" />
    <glyph glyph-name="uniE9F5" unicode="&#xe9f5;" 
d="M853 921v-946l-671 473zM768 139v618l-438 -309z" />
    <glyph glyph-name="uniE9F6" unicode="&#xe9f6;" 
d="M732 -51l-500 499l500 499l60 -60l-439 -439l439 -439z" />
    <glyph glyph-name="uniE9F7" unicode="&#xe9f7;" 
d="M811 -64h-598v171h-213v597h213v256h598v-256h213v-597h-213v-171zM299 21h426v256h-426v-256zM811 192h128v427h-854v-427h128v85h-42v86h682v-86h-42v-85zM299 704h426v171h-426v-171zM768 533h85v-85h-85v85v0z" />
    <glyph glyph-name="uniE9F8" unicode="&#xe9f8;" 
d="M789 21q-48 0 -91 18.5t-74.5 50.5t-50 74.5t-18.5 91.5v10.5t1 10.5h-1q0 18 -12.5 30.5t-30.5 12.5t-30.5 -12.5t-12.5 -30.5h-1q1 -5 1 -10.5v-10.5q0 -49 -18.5 -91.5t-50 -74.5t-74.5 -50.5t-91 -18.5q-49 0 -91.5 18.5t-74.5 50.5t-50.5 74.5t-18.5 91.5v10.5
t1 10.5h-1v342q0 53 20 99.5t55 81t81.5 55t99.5 20.5v-86q-71 0 -121 -50t-50 -120v-182q31 25 69 39.5t81 14.5q63 0 115.5 -31t83.5 -81q33 25 78 25t78 -25q31 50 83.5 81t115.5 31q43 0 81 -14.5t69 -39.5v182q0 70 -50 120t-121 50v86q53 0 99.5 -20.5t81.5 -55
t55 -81t20 -99.5l-1 -342q1 -5 1 -10.5v-10.5q0 -49 -18.5 -91.5t-50.5 -74.5t-74.5 -50.5t-91.5 -18.5v0zM789 405q-61 0 -105 -43.5t-44 -105.5t44 -105.5t105 -43.5q62 0 106 43.5t44 105.5t-44 105.5t-106 43.5zM235 405q-62 0 -106 -43.5t-44 -105.5t44 -105.5
t106 -43.5q61 0 105 43.5t44 105.5t-44 105.5t-105 43.5z" />
    <glyph glyph-name="uniE9F9" unicode="&#xe9f9;" 
d="M512 -64q-106 0 -199 40.5t-162.5 110t-110 162.5t-40.5 199t40.5 199t110 162.5t162.5 110t199 40.5t199 -40.5t162.5 -110t110 -162.5t40.5 -199t-40.5 -199t-110 -162.5t-162.5 -110t-199 -40.5zM512 875q-88 0 -165.5 -34t-135.5 -92t-92 -135.5t-34 -165.5
t34 -165.5t92 -135.5t135.5 -92t165.5 -34t165.5 34t135.5 92t92 135.5t34 165.5t-34 165.5t-92 135.5t-135.5 92t-165.5 34v0z" />
    <glyph glyph-name="uniE9FA" unicode="&#xe9fa;" 
d="M1024 459q0 48 -33 81.5t-80 33.5q-22 0 -41.5 -8t-35.5 -22q-55 39 -128 63t-156 29l50 167l153 -31q4 -39 32.5 -65.5t68.5 -26.5v0v0v0h1q42 0 71.5 30t29.5 73t-30 73t-72 30v0v0v0q-30 0 -54 -15.5t-36 -40.5l-205 42l-70 -235l-6 -1q-86 -3 -161.5 -28t-131.5 -64
q-16 14 -35.5 22t-41.5 8q-47 0 -80 -33.5t-33 -81.5q0 -33 17 -60.5t45 -41.5q-2 -8 -2.5 -16.5t-0.5 -17.5q0 -64 35.5 -121t97 -100t144 -67.5t176.5 -24.5t176.5 24.5t144 67.5t97 100t35.5 122q0 8 -1 16.5t-2 16.5q28 15 45 42t17 60v0zM78 414q-11 7 -18 19.5
t-7 27.5q0 24 16.5 40.5t40.5 16.5q9 0 18 -3t16 -8q-23 -21 -40 -44.5t-26 -48.5v0zM816 783q0 16 11 27t27 11q15 0 26 -11t11 -27t-11 -27t-26 -11q-16 0 -27 11t-11 27zM290 374q0 30 21 51.5t51 21.5t51.5 -21.5t21.5 -51.5t-21.5 -51t-51.5 -21t-51 21t-21 51z
M512 114q-90 1 -141.5 37t-54.5 38l32 32q1 0 43.5 -31t120.5 -31q77 0 120 31l43 31l32 -31q-2 -3 -53.5 -39t-141.5 -37zM663 302q-30 0 -51 21t-21 51t21 51.5t51 21.5t51.5 -21.5t21.5 -51.5t-21.5 -51t-51.5 -21zM946 413q-9 26 -26 50t-41 44q8 6 16.5 9t18.5 3
q24 0 40.5 -17t16.5 -41q0 -15 -6.5 -27.5t-18.5 -20.5v0z" />
    <glyph glyph-name="uniE9FB" unicode="&#xe9fb;" 
d="M512 -64q-106 0 -199 40.5t-162.5 110t-110 162.5t-40.5 199t40.5 199t110 162.5t162.5 110t199 40.5q65 0 126.5 -16t116.5 -45.5t101.5 -72t82.5 -95.5v186h85v-341h-341v85h199q-29 49 -68.5 88.5t-87.5 67.5t-102.5 43t-111.5 15q-88 0 -166 -34t-135.5 -91.5
t-91.5 -135.5t-34 -166t34 -166t91.5 -135.5t135.5 -91.5t166 -34t166 34t135.5 91.5t91.5 135.5t34 166h85q0 -106 -40.5 -199t-110 -162.5t-162.5 -110t-199 -40.5v0z" />
    <glyph glyph-name="uniE9FC" unicode="&#xe9fc;" 
d="M512 -17l-512 256l209 104l-209 105l209 105l-209 104l512 256l512 -256l-209 -104l209 -105l-209 -105l209 -104l-512 -256v0zM187 239l325 -163l325 163l-116 58l-209 -105l-209 105l-116 -58v0zM322 381l190 -95l190 95h0.5h0.5l134 67l-116 58l-209 -105l-209 105
l-116 -58l134 -67h0.5h0.5v0zM322 590l190 -95l190 95h0.5h0.5l134 67l-325 163l-325 -163l134 -67h0.5h0.5v0z" />
    <glyph glyph-name="uniE9FD" unicode="&#xe9fd;" 
d="M550 779l-52 -44l222 -253h-549v-68h549l-222 -249l52 -45l290 328z" />
    <glyph glyph-name="uniE9FE" unicode="&#xe9fe;" 
d="M512 576h128v-128h-128v128zM768 576h128v-128h-128v128zM768 832h128v-128h-128v128zM512 832h128v-128h-128v128zM384 960v-384h-384v-640h640v384h384v640h-640zM555 21h-470v470h299v-171h171v-299v0zM939 405h-470v470h470v-470zM384 192h128v-128h-128v128z
M128 448h128v-128h-128v128z" />
    <glyph glyph-name="uniE9FF" unicode="&#xe9ff;" 
d="M342 426h42q18 0 30.5 12.5t12.5 29.5v43q0 18 -12.5 30.5t-30.5 12.5h-42q-18 0 -30.5 -12.5t-12.5 -30.5v-43q0 -17 12.5 -29.5t30.5 -12.5zM640 426h42q18 0 30.5 12.5t12.5 29.5v43q0 18 -12.5 30.5t-30.5 12.5h-42q-18 0 -30.5 -12.5t-12.5 -30.5v-43
q0 -17 12.5 -29.5t30.5 -12.5zM555 764v35q19 11 30.5 30.5t11.5 43.5q0 36 -25.5 61.5t-61.5 25.5t-61.5 -25.5t-25.5 -61.5q0 -25 13 -45t33 -31v-33q-71 -8 -133.5 -40.5t-108.5 -83.5t-72 -117t-26 -140v-196l22 -12q39 -20 77 -34.5t74 -25.5q12 -76 71 -127.5
t139 -51.5t139 51.5t71 128.5q46 12 84 28t66 31l23 12v196q0 74 -26 140t-72 117t-108.5 83.5t-133.5 40.5v0zM512 681q58 0 109.5 -20.5t91.5 -57t65 -85.5t31 -106q-1 -13 -21.5 -26t-59 -23t-93 -16t-123.5 -6q-151 0 -223 24t-74 47q6 56 31 105.5t65 86t91.5 57
t109.5 20.5v0zM512 21q-38 0 -69.5 20.5t-46.5 53.5q74 -11 128.5 -9t103.5 9q-15 -33 -46.5 -53.5t-69.5 -20.5v0zM810 239q-52 -25 -127.5 -46t-170.5 -21q-55 0 -133 13t-165 54v63q29 -14 64 -23t74 -14t80 -7.5t80 -2.5t80 2.5t80 7.5t74 14t64 23v-63v0z" />
    <glyph glyph-name="uniEA00" unicode="&#xea00;" 
d="M192 -43q-71 0 -121 50t-50 121t50 121t121 50t121 -50t50 -121t-50 -121t-121 -50v0zM192 213q-35 0 -60 -25t-25 -60t25 -60t60 -25t60 25t25 60t-25 60t-60 25v0zM1003 128h-86q0 150 -57 282t-155.5 230.5t-230.5 155.5t-282 57v86q168 0 315.5 -64t257.5 -174
t174 -257.5t64 -315.5v0zM789 128h-85q0 106 -40.5 199t-110 162.5t-162.5 110t-199 40.5v85q124 0 232.5 -47t189.5 -128t128 -189.5t47 -232.5zM576 128h-85q0 62 -23.5 116.5t-64 95t-95 64t-116.5 23.5v85q79 0 149 -30t122.5 -82.5t82.5 -122.5t30 -149v0z" />
    <glyph glyph-name="uniEA01" unicode="&#xea01;" 
d="M1024 -64h-768v171h-256v768h171v85h85v-85h256v85h85v-85h171v-171h256v-768zM341 21h598v427h-171v-341h-427v-86v0zM85 192h598v427h-598v-427v0zM768 533h171v86h-171v-86zM85 704h598v85h-598v-85v0zM597 277h-256v86h256v-86zM256 277h-85v86h85v-86zM597 448h-256
v85h256v-85zM256 448h-85v85h85v-85z" />
    <glyph glyph-name="uniEA02" unicode="&#xea02;" 
d="M881 -56h-84v117l-100 -59l-42 73l100 58l-100 58l42 73l100 -58v116h84v-116l101 58l42 -73l-101 -58l101 -58l-42 -73l-101 59v-117zM546 112h-546v756h168v84h84v-84h252v84h84v-84h167v-504h-83v252h-588v-420h462v-84v0zM84 700h588v84h-588v-84v0zM588 280h-252v84
h252v-84zM252 280h-84v84h84v-84zM588 448h-252v84h252v-84zM252 448h-84v84h84v-84z" />
    <glyph glyph-name="uniEA03" unicode="&#xea03;" 
d="M747 -64q-44 0 -83.5 12.5t-72.5 35t-59 54t-41 69.5h-491v768h171v85h85v-85h256v85h85v-85h171v-385q54 -4 100.5 -27.5t81 -60.5t54.5 -85.5t20 -103.5q0 -57 -22 -107.5t-59.5 -88t-88 -59.5t-107.5 -22v0zM747 405q-80 0 -136 -56t-56 -136q0 -79 56 -135.5
t136 -56.5q79 0 135.5 56.5t56.5 135.5q0 80 -56.5 136t-135.5 56zM85 192h385q0 5 -0.5 10.5t-0.5 10.5q0 17 2 33t6 31h-136v86l171 -2q29 45 73 77t98 45v136h-598v-427v0zM85 704h598v85h-598v-85v0zM256 277h-85v86h85v-86zM597 448h-256v85h256v-85zM256 448h-85v85
h85v-85zM683 341l0.5 -40.5t0 -88t-0.5 -87.5v-40l213 128z" />
    <glyph glyph-name="uniEA04" unicode="&#xea04;" 
d="M341 405h512v-85h-512v85v0zM811 832v128h-86v-128h-426v128h-86v-128h-213v-896h1024v896h-213v0zM939 21h-854v512h854v-512zM939 619h-854v128h854v-128zM171 405h85v-85h-85v85zM171 235h85v-86h-85v86zM341 235h512v-86h-512v86v0z" />
    </font>
</defs>
</svg>
