<?xml version="1.0" encoding="utf-8"?>
<!-- Generator: Adobe Illustrator 20.1.0, SVG Export Plug-In . SVG Version: 6.00 Build 0)  -->
<!DOCTYPE svg PUBLIC "-//W3C//DTD SVG 1.1//EN" "http://www.w3.org/Graphics/SVG/1.1/DTD/svg11.dtd">
<svg version="1.1" id="Layer_1" xmlns="http://www.w3.org/2000/svg" xmlns:xlink="http://www.w3.org/1999/xlink" x="0px" y="0px"
	 viewBox="0 0 24 24" enable-background="new 0 0 24 24" xml:space="preserve">
<g>
	<path fill="#FFFFFF" d="M12.4,23.5c-0.2,0-0.3,0-0.5-0.1c-0.6-0.2-1.1-0.7-1.2-1.3l-0.6-3.3C10,18.4,9.8,18,9.5,17.7l-3.2-3.2
		C6,14.2,5.6,14,5.1,13.9l-3.2-0.6c-0.6-0.1-1.1-0.6-1.3-1.2c-0.2-0.6,0-1.3,0.4-1.7l2.5-2.5c0.8-0.8,1.8-1.2,2.9-1.2h3
		c0.6-0.8,1.2-1.4,1.9-2.1l0.5-0.5c5.4-5.4,10.5-3.1,10.7-3l0.3,0.1L23,1.5c0.1,0.2,2.3,5.2-3.1,10.7l-0.3,0.3
		c-0.8,0.8-1.5,1.5-2.4,2.2v3c0,1.2-0.4,2.2-1.1,2.9L13.6,23C13.3,23.3,12.8,23.5,12.4,23.5z M2.5,11.5l3,0.6
		c0.8,0.2,1.5,0.6,2.1,1.1l3.2,3.2c0.6,0.6,1,1.3,1.1,2.1l0.6,3l2.3-2.4c0.5-0.5,0.6-1.2,0.6-1.6v-3.9l0.4-0.3
		c0.9-0.6,1.6-1.3,2.5-2.2l0.3-0.3c3.8-3.8,3.2-7.2,2.9-8.3c-1-0.3-4.5-1-8.3,2.8l-0.5,0.5c-0.8,0.8-1.4,1.4-1.9,2.2l-0.3,0.4H6.5
		c-0.6,0-1.2,0.2-1.6,0.6L2.5,11.5z M2.4,23.5C2.4,23.5,2.4,23.5,2.4,23.5c-0.8,0-1.2-0.1-1.5-0.4c-0.2-0.2-0.6-0.6-0.3-2.9
		c0.1-1,0.5-2.5,1.3-3.2c1.4-1.4,3.8-1.4,5.2,0l0,0c0.7,0.7,1.1,1.6,1.1,2.6c0,1-0.4,1.9-1.1,2.6C6,23.2,3.5,23.5,2.4,23.5z
		 M2.4,22.1L2.4,22.1L2.4,22.1z M2.3,21.7c1,0,2.9-0.3,3.4-0.8c0.3-0.3,0.5-0.8,0.5-1.3c0-0.5-0.2-0.9-0.5-1.3l0,0
		c-0.7-0.7-1.9-0.7-2.6,0C2.6,18.8,2.3,20.7,2.3,21.7z"/>
	<circle fill="#FFFFFF" cx="16.8" cy="7.2" r="1.9"/>
</g>
</svg>
