<?xml version="1.0" encoding="UTF-8" standalone="no"?>
<svg
   xmlns:dc="http://purl.org/dc/elements/1.1/"
   xmlns:cc="http://creativecommons.org/ns#"
   xmlns:rdf="http://www.w3.org/1999/02/22-rdf-syntax-ns#"
   xmlns:svg="http://www.w3.org/2000/svg"
   xmlns="http://www.w3.org/2000/svg"
   version="1.1"
   width="168"
   height="168"
   viewBox="0 0 168 168"
   id="Ebene_1">
  <metadata
     id="metadata9">
    <rdf:RDF>
      <cc:Work
         rdf:about="">
        <dc:format>image/svg+xml</dc:format>
        <dc:type
           rdf:resource="http://purl.org/dc/dcmitype/StillImage" />
        <dc:title></dc:title>
      </cc:Work>
    </rdf:RDF>
  </metadata>
  <defs
     id="defs7" />
  <path
     d="m 83.793,0.294 c -46.195,0 -83.649,37.45 -83.649,83.648 0,46.199 37.455,83.65 83.649,83.65 46.193,0 83.648,-37.451 83.648,-83.65 0,-46.198 -37.455,-83.648 -83.648,-83.648 z m 0.4,11.584 c 39.803,0 72.096,32.267 72.096,72.064 0,39.803 -32.297,72.065 -72.096,72.065 -21.492,0 -40.777,-9.419 -53.979,-24.34 5.428,-4.214 14.51,-3.186 25.695,-1.911 5.36,0.61 11.471,1.309 17.777,1.449 17.62,0.102 36.579,-3.113 48.28,-8.227 7.564,-3.318 12.408,-5.502 15.436,-8.258 1.092,-0.895 1.664,-2.391 2.248,-3.943 l 0.4,-1.047 c 0.49,-1.254 1.195,-3.951 1.51,-5.423 0.141,-0.644 0.211,-1.337 -0.246,-1.694 l -1.633,0.308 C 134.546,106 121.72,111.863 109.702,112.103 94.811,112.415 64.8,97.112 61.67,95.497 l -0.308,-0.37 c -0.75,-1.791 -5.242,-12.453 -6.193,-14.696 21.603,14.226 39.513,22.1 53.24,23.323 15.262,1.356 27.166,-6.977 32.258,-10.537 0.994,-0.678 1.752,-1.21 2.064,-1.325 l 0.338,-0.555 c -0.844,-5.363 -8.852,-31.322 -14.881,-37.557 -1.672,-1.71 -3,-3.375 -5.699,-4.96 C 100.665,36.1 48.845,28.439 46.419,28.085 l -0.401,0.124 -0.154,0.339 c 0,0 -0.194,10.76 -0.216,11.954 C 43.87,39.914 38.356,38.108 30.459,35.942 40.765,23.191 56.557,11.878 84.193,11.878 z m 19.041,38.143 c 0.367,-0.006 0.738,-0.013 1.109,0 12.225,0.439 21.83,10.736 21.412,22.953 -0.217,5.91 -2.709,11.371 -7.025,15.405 -4.328,4.055 -9.953,6.169 -15.896,5.977 C 90.629,93.9 81.024,83.603 81.42,71.403 c 0.209,-5.919 2.714,-11.415 7.056,-15.436 4.053,-3.801 9.241,-5.863 14.758,-5.946 z m -0.586,6.532 c -3.561,0.217 -6.92,1.663 -9.551,4.129 -2.998,2.814 -4.768,6.625 -4.898,10.753 -0.283,8.528 6.391,15.705 14.912,16.021 4.141,0.127 8.066,-1.323 11.09,-4.129 3.016,-2.828 4.771,-6.673 4.9,-10.783 0.285,-8.542 -6.42,-15.692 -14.943,-15.991 -0.515,-0.019 -1.002,-0.031 -1.51,0 z m 4.067,7.733 c 3.787,0 6.84,2.058 6.84,4.591 0,2.521 -3.053,4.591 -6.84,4.591 -3.799,0 -6.871,-2.074 -6.871,-4.591 0,-2.533 3.072,-4.591 6.871,-4.591 z"
     id="path3" />
</svg>
