<svg xmlns="http://www.w3.org/2000/svg" xmlns:xlink="http://www.w3.org/1999/xlink" width="230" height="59" viewBox="0 0 230 59">
    <defs>
        <path id="a" d="M.18.285h23.675v28.303H.18z"/>
    </defs>
    <g fill="none" fill-rule="evenodd">
        <path fill="#0D2C40" d="M98.417 44.086v-.108c0-7.567 6.038-14.131 13.77-14.131 4.662 0 7.734 2.012 10.17 4.287.212.212.37.583.37.953 0 .74-.583 1.324-1.323 1.324-.319 0-.689-.106-.901-.319-2.172-2.064-4.714-3.81-8.368-3.81-6.144 0-10.91 5.134-10.91 11.592v.104c0 6.511 4.925 11.7 11.122 11.7 3.496 0 6.303-1.695 8.474-3.864.213-.213.477-.424.847-.424.636 0 1.272.635 1.272 1.27 0 .264-.106.582-.317.794-2.702 2.752-5.827 4.657-10.435 4.657-7.786 0-13.77-6.457-13.77-14.025M149.635 44.086v-.108c0-6.509-4.872-11.696-11.122-11.696-6.41 0-11.016 5.24-11.016 11.592v.104c0 6.511 4.872 11.7 11.122 11.7 6.409 0 11.016-5.24 11.016-11.592m-24.946 0v-.108c0-7.567 5.88-14.131 13.93-14.131 7.998 0 13.824 6.458 13.824 14.027v.104c0 7.57-5.88 14.133-13.93 14.133-7.998 0-13.824-6.457-13.824-14.025M156.431 31.594c0-.741.53-1.325 1.271-1.325.742 0 1.324.53 1.324 1.325v3.916c1.801-3.175 4.82-5.663 9.746-5.663 6.833 0 10.804 4.658 10.804 11.115v15.403c0 .794-.528 1.324-1.27 1.324s-1.325-.53-1.325-1.324V41.438c0-5.557-3.124-9.208-8.58-9.208-5.296 0-9.375 4.021-9.375 9.632v14.503c0 .794-.53 1.324-1.271 1.324-.742 0-1.324-.53-1.324-1.324V31.594z"/>
        <path fill="#02D35F" d="M228.132 19.633c-9.448-15.782-34.398-24.223-42.14-17.052-6.587 6.1-3.825 33.301 9.142 40.764 9.19 5.288 42.033-8.623 32.998-23.712"/>
        <path fill="#0D2C40" d="M12.3 41.262c-5.91-1.265-5.91-2.507-5.91-3.782 0-1.677 1.71-2.849 4.158-2.849 2.39 0 4.469.787 6.542 2.476a1.25 1.25 0 0 0 1.793-.217l1.67-2.213a1.253 1.253 0 0 0-.217-1.73c-2.928-2.348-5.924-3.396-9.715-3.396-5.475 0-9.604 3.518-9.604 8.255 0 5.7 4.574 7.48 9.526 8.555 5.614 1.183 5.614 2.467 5.614 3.674 0 1.834-1.772 3.065-4.41 3.065-3.024 0-5.306-.947-7.875-3.269a1.255 1.255 0 0 0-1.797.121l-1.78 2.105A1.252 1.252 0 0 0 .419 53.8c3.35 2.99 6.916 4.382 11.219 4.382 5.847 0 9.93-3.47 9.93-8.51 0-5.663-4.95-7.468-9.268-8.409"/>
        <g transform="translate(23.6 29.63)">
            <mask id="b" fill="#fff">
                <use xlink:href="#a"/>
            </mask>
            <path fill="#0D2C40" d="M22.602.285h-2.87c-.691 0-1.253.56-1.253 1.253v14.767c0 4.665-2.215 7.13-6.407 7.13-4.203 0-6.517-2.596-6.517-7.311V1.538c0-.693-.561-1.253-1.253-1.253H1.433C.74.285.18.845.18 1.538v14.767C.18 23.882 4.71 28.588 12 28.588c7.311 0 11.855-4.79 11.855-12.501V1.537c0-.692-.562-1.252-1.253-1.252" mask="url(#b)"/>
        </g>
        <path fill="#0D2C40" d="M61.64 41.262c-5.91-1.265-5.91-2.507-5.91-3.782 0-1.677 1.71-2.849 4.158-2.849 2.39 0 4.469.787 6.543 2.476a1.252 1.252 0 0 0 1.793-.217l1.669-2.213a1.253 1.253 0 0 0-.216-1.73c-2.929-2.348-5.924-3.396-9.716-3.396-5.475 0-9.604 3.518-9.604 8.255 0 5.7 4.575 7.48 9.527 8.555 5.614 1.183 5.614 2.467 5.614 3.674 0 1.834-1.773 3.065-4.412 3.065-3.023 0-5.305-.947-7.874-3.269a1.256 1.256 0 0 0-1.797.121l-1.78 2.105a1.252 1.252 0 0 0 .124 1.742c3.35 2.99 6.915 4.382 11.218 4.382 5.847 0 9.932-3.47 9.932-8.51 0-5.663-4.952-7.468-9.27-8.409M93.327 52.702H78.895v-6.387h12.617c.693 0 1.253-.56 1.253-1.252v-2.612c0-.691-.56-1.252-1.253-1.252H78.895V35.03h14.251c.692 0 1.253-.56 1.253-1.252v-2.611c0-.693-.56-1.253-1.253-1.253H74.773c-.692 0-1.253.56-1.253 1.253v25.398c0 .692.561 1.252 1.253 1.252h18.554c.692 0 1.253-.56 1.253-1.252v-2.611c0-.693-.561-1.252-1.253-1.252"/>
        <path fill="#FEFEFE" d="M190.816 17.352c.01.483-.417.881-.953.892-.536.012-.978-.368-.989-.849l-.534-2.366a1.475 1.475 0 1 1 2.95-.065l-.474 2.388zM198.044 29.845V17.393l-1.39.36c-.206.051-.49.103-.696.103-.926 0-1.725-.772-1.725-1.698 0-.798.515-1.467 1.313-1.699l2.55-.746c.746-.206 1.312-.334 1.853-.334h.052c1.08 0 1.956.875 1.956 1.955v14.511c0 1.081-.875 1.956-1.956 1.956a1.955 1.955 0 0 1-1.957-1.956zm14.021 2.11c-2.008 0-3.424-.463-4.763-1.286-.54-.335-.926-.9-.926-1.621 0-1.03.85-1.801 1.879-1.801.386 0 .72.128 1.03.309.927.54 1.75.797 2.883.797 2.215 0 3.399-1.672 3.656-4.09-.875.745-2.085 1.234-3.656 1.234-3.913 0-6.436-2.161-6.436-5.815v-.051c0-3.628 2.806-6.304 6.874-6.304 2.42 0 3.836.592 5.2 1.956 1.288 1.286 2.138 3.242 2.138 6.792v.052c0 5.84-2.755 9.828-7.879 9.828zm.747-9.751c1.957 0 3.09-1.132 3.09-2.676v-.051c0-1.596-1.185-2.753-3.167-2.753-1.957 0-3.064 1.132-3.064 2.727v.051c0 1.596 1.184 2.702 3.141 2.702z"/>
        <path fill="#0D2C40" d="M183.372 57.396v-2.664h-.997v-.357h2.396v.357h-1v2.664zM185.17 57.396v-3.02h.601l.716 2.138c.066.2.114.348.144.448.034-.11.088-.272.161-.485l.723-2.102h.539v3.021h-.386v-2.528l-.878 2.528h-.36l-.875-2.571v2.571h-.386z"/>
    </g>
</svg>
