<?xml version="1.0" encoding="UTF-8"?>
<!DOCTYPE svg PUBLIC "-//W3C//DTD SVG 1.1//EN" "http://www.w3.org/Graphics/SVG/1.1/DTD/svg11.dtd">
<svg version="1.1" xmlns="http://www.w3.org/2000/svg" xmlns:xlink="http://www.w3.org/1999/xlink" x="0" y="0" width="90" height="30" viewBox="0, 0, 90, 30">
  <g id="Layer_1">
    <g>
      <path d="M33.238,14.348 C33.06,14.466 32.821,14.466 32.643,14.348 C32.351,14.154 32.323,13.748 32.559,13.513 C32.768,13.296 33.114,13.296 33.323,13.513 C33.558,13.748 33.53,14.154 33.238,14.348 M33.936,13.378 C34.208,14.532 33.17,15.571 32.015,15.299 C31.428,15.161 30.961,14.695 30.823,14.107 C30.552,12.953 31.59,11.916 32.744,12.187 C33.331,12.324 33.798,12.79 33.936,13.378 M34.214,16.233 C33.789,16.195 33.805,15.69 34.33,15.743 C34.488,15.759 35.006,15.778 35.14,15.61 C35.201,15.534 35.192,15.387 35.19,15.351 C35.112,13.99 35.021,12.195 33.338,11.426 C32.082,10.852 30.199,9.962 29.404,9.593 C29.219,9.506 29.004,9.644 29.004,9.849 C29.004,10.344 29.027,10.881 29.027,11.57 C29.027,11.702 29.048,11.968 28.996,11.997 C28.947,12.024 28.874,11.822 28.694,11.671 C28.388,11.413 27.97,11.211 27.52,11.004 C26.964,10.749 26.391,10.533 25.808,10.352 C24.633,9.988 23.418,9.764 22.195,9.642 C20.81,9.504 19.4,9.57 18.034,9.852 C15.787,10.318 13.577,11.4 11.9,12.98 C10.87,13.951 10.062,15.329 10.007,16.729 C9.929,18.71 10.484,19.774 11.505,20.87 C13.131,22.617 16.632,22.862 18.05,20.79 C18.688,19.857 18.826,18.592 18.363,17.561 C17.9,16.531 16.836,15.786 15.708,15.748 C14.832,15.719 13.899,16.165 13.564,16.974 C13.307,17.592 13.453,18.356 13.919,18.837 C14.101,19.024 14.347,19.177 14.616,19.117 C14.774,19.082 14.906,18.963 14.93,18.802 C14.966,18.565 14.758,18.412 14.63,18.23 C14.4,17.901 14.447,17.408 14.735,17.129 C14.979,16.894 15.339,16.824 15.678,16.825 C15.993,16.825 16.315,16.882 16.587,17.041 C16.97,17.266 17.224,17.678 17.312,18.113 C17.574,19.414 16.517,20.471 15.082,20.555 C14.349,20.598 13.602,20.405 13.029,19.944 C11.579,18.778 11.224,16.393 12.881,15.12 C14.455,13.911 16.442,14.223 17.613,14.851 C18.55,15.353 19.249,16.175 19.778,17.084 C20.044,17.541 20.27,18.018 20.48,18.503 C20.682,18.97 20.871,19.44 21.276,19.781 C21.543,20.008 21.874,20 22.224,20 L24.226,20 C24.498,20 24.432,19.819 24.314,19.699 C24.049,19.427 23.668,19.366 23.314,19.269 C22.508,19.047 22.59,17.979 22.813,17.979 C23.535,17.979 23.558,18 24.189,17.992 C25.102,17.98 25.377,17.927 26.09,18.191 C26.472,18.332 26.838,18.705 27.077,19.045 C27.202,19.225 27.306,19.398 27.365,19.572 C27.406,19.695 27.459,19.858 27.581,19.923 C27.587,19.927 27.594,19.93 27.601,19.932 C27.824,20.014 28.398,20 28.398,20 L29.455,20 C29.545,20.001 30.339,19.999 30.319,19.91 C30.223,19.486 29.732,19.41 29.359,19.188 C29.014,18.983 28.688,18.75 28.539,18.35 C28.462,18.143 28.508,17.666 28.641,17.492 C28.738,17.367 28.881,17.284 29.035,17.25 C29.205,17.213 29.382,17.245 29.552,17.262 C29.762,17.284 29.969,17.322 30.178,17.348 C30.583,17.4 30.991,17.422 31.398,17.411 C32.07,17.392 32.744,17.284 33.382,17.067 C33.827,16.918 33.848,16.89 34.269,16.68 C34.909,16.36 34.434,16.253 34.214,16.233" fill="#30BA78"/>
      <path d="M74.969,19.927 C73.874,19.927 72.983,19.036 72.983,17.941 L72.983,12.055 C72.983,10.96 73.874,10.069 74.969,10.069 L79.488,10.069 C79.842,10.069 80.13,10.357 80.13,10.71 C80.13,11.064 79.842,11.352 79.488,11.352 L74.969,11.352 C74.582,11.352 74.267,11.667 74.267,12.055 L74.267,14.372 L78.698,14.372 C79.034,14.372 79.306,14.645 79.306,14.98 C79.306,15.315 79.034,15.588 78.698,15.588 L74.267,15.588 L74.267,17.941 C74.267,18.329 74.582,18.644 74.969,18.644 L79.488,18.644 C79.842,18.644 80.13,18.932 80.13,19.286 C80.13,19.64 79.842,19.927 79.488,19.927 z M54.709,20.057 C53.406,20.057 52.402,19.726 51.725,19.073 C51.049,18.422 50.707,17.442 50.707,16.16 L50.707,10.684 C50.707,10.274 51.04,9.94 51.45,9.94 C51.86,9.94 52.194,10.274 52.194,10.684 L52.194,15.964 C52.194,16.923 52.401,17.642 52.808,18.1 C53.218,18.561 53.857,18.795 54.709,18.795 C55.56,18.795 56.199,18.561 56.609,18.1 C57.016,17.642 57.223,16.923 57.223,15.964 L57.223,10.684 C57.223,10.274 57.557,9.94 57.967,9.94 C58.377,9.94 58.711,10.274 58.711,10.684 L58.711,16.16 C58.711,17.441 58.368,18.421 57.691,19.073 C57.015,19.726 56.012,20.057 54.709,20.057 M65.884,20.057 C64.206,20.057 62.928,19.58 62.086,18.64 C61.842,18.368 61.858,17.948 62.121,17.685 L62.124,17.682 L62.127,17.679 C62.26,17.547 62.438,17.474 62.626,17.474 C62.826,17.474 63.014,17.559 63.143,17.708 C63.378,17.979 63.646,18.2 63.942,18.364 C64.457,18.65 65.106,18.795 65.869,18.795 C66.594,18.795 67.172,18.667 67.587,18.415 C68.015,18.156 68.233,17.783 68.233,17.306 C68.233,16.92 68.036,16.605 67.648,16.371 C67.271,16.144 66.634,15.949 65.701,15.774 C64.795,15.605 64.065,15.394 63.53,15.146 C63.002,14.901 62.613,14.595 62.376,14.235 C62.138,13.878 62.018,13.434 62.018,12.917 C62.018,12.37 62.171,11.866 62.473,11.417 C62.776,10.968 63.221,10.606 63.794,10.341 C64.371,10.075 65.054,9.94 65.824,9.94 C66.724,9.94 67.502,10.105 68.137,10.43 C68.564,10.648 68.95,10.949 69.287,11.324 C69.543,11.611 69.519,12.055 69.232,12.314 C69.103,12.43 68.936,12.494 68.763,12.494 C68.543,12.494 68.34,12.394 68.206,12.221 C68.015,11.973 67.8,11.771 67.567,11.621 C67.135,11.343 66.554,11.202 65.839,11.202 C65.134,11.202 64.577,11.346 64.184,11.63 C63.784,11.919 63.581,12.297 63.581,12.751 C63.581,13.177 63.78,13.52 64.172,13.768 C64.553,14.011 65.213,14.214 66.188,14.389 C67.074,14.548 67.786,14.752 68.305,14.995 C68.818,15.234 69.197,15.535 69.431,15.89 C69.663,16.244 69.781,16.69 69.781,17.216 C69.781,17.781 69.618,18.285 69.297,18.713 C68.974,19.143 68.515,19.478 67.933,19.707 C67.346,19.939 66.657,20.057 65.884,20.057 M43.607,20.059 C41.929,20.059 40.651,19.582 39.809,18.642 C39.565,18.371 39.581,17.951 39.844,17.687 L39.848,17.683 C39.982,17.55 40.16,17.477 40.35,17.477 C40.55,17.477 40.738,17.562 40.866,17.711 C41.1,17.982 41.368,18.202 41.664,18.366 C42.18,18.653 42.829,18.798 43.592,18.798 C44.316,18.798 44.894,18.67 45.311,18.418 C45.739,18.159 45.956,17.786 45.956,17.309 C45.956,16.923 45.759,16.608 45.371,16.374 C44.993,16.147 44.356,15.951 43.424,15.776 C42.518,15.608 41.788,15.396 41.253,15.149 C40.725,14.904 40.336,14.597 40.098,14.238 C39.861,13.881 39.741,13.437 39.741,12.92 C39.741,12.373 39.894,11.869 40.196,11.421 C40.499,10.971 40.944,10.609 41.517,10.344 C42.093,10.078 42.776,9.943 43.547,9.943 C44.447,9.943 45.225,10.108 45.86,10.433 C46.287,10.652 46.674,10.952 47.009,11.327 C47.266,11.614 47.242,12.057 46.955,12.317 C46.826,12.433 46.659,12.497 46.485,12.497 C46.266,12.497 46.063,12.397 45.929,12.224 C45.739,11.976 45.523,11.774 45.29,11.623 C44.857,11.345 44.276,11.205 43.562,11.205 C42.856,11.205 42.3,11.349 41.906,11.633 C41.507,11.923 41.304,12.3 41.304,12.754 C41.304,13.18 41.503,13.522 41.895,13.771 C42.276,14.014 42.935,14.217 43.912,14.392 C44.796,14.551 45.508,14.754 46.029,14.997 C46.542,15.237 46.92,15.539 47.153,15.892 C47.386,16.246 47.504,16.692 47.504,17.219 C47.504,17.784 47.341,18.288 47.02,18.715 C46.697,19.146 46.238,19.481 45.655,19.71 C45.068,19.942 44.379,20.059 43.607,20.059" fill="#FFFFFF"/>
    </g>
  </g>
</svg>
