<svg width="70" height="70" xmlns="http://www.w3.org/2000/svg">
 <style type="text/css">.st0{fill:#996FAB;}
	.st1{fill:#7F4B96;}</style>

 <g>
  <title>background</title>
  <rect fill="none" id="canvas_background" height="72" width="72" y="-1" x="-1"/>
 </g>
 <g>
  <title>Layer 1</title>
  <g stroke="null" id="svg_1">
   <polygon stroke="null" id="svg_2" points="34.99999237060547,26.799999237060547 34.99999237060547,43.20000076293945 44.900001525878906,39.29999923706055 44.900001525878906,30.5 " class="st0"/>
   <path stroke="null" id="svg_3" d="m25.1,29.2l0,11.2l7.9,2.7l0,-16.3l-7.9,2.4zm1.8,10.6l-1.2,-0.4l0,-8.9l1.2,-0.4l0,9.7zm2.3,0.8l-1.8,-0.5l0,-10.2l1.8,-0.5l0,11.2zm2.7,1l-2.2,-0.7l0,-11.8l2.2,-0.7l0,13.2z" class="st1"/>
   <polygon stroke="null" id="svg_4" points="10.999992370605469,26.799999237060547 10.999992370605469,43.20000076293945 20.900001525878906,39.29999923706055 20.900001525878906,30.5 " class="st0"/>
   <path stroke="null" id="svg_5" d="m1.1,29.2l0,11.2l7.9,2.7l0,-16.3l-7.9,2.4zm1.8,10.6l-1.2,-0.4l0,-8.9l1.2,-0.4l0,9.7zm2.3,0.8l-1.8,-0.5l0,-10.2l1.8,-0.5l0,11.2zm2.8,1l-2.2,-0.7l0,-11.8l2.2,-0.7l0,13.2z" class="st1"/>
   <polygon stroke="null" id="svg_6" points="58.79999542236328,26.799999237060547 58.79999542236328,43.20000076293945 68.9000015258789,39.29999923706055 68.9000015258789,30.5 " class="st0"/>
   <path stroke="null" id="svg_7" d="m49.1,29.2l0,11.2l7.9,2.7l0,-16.3l-7.9,2.4zm1.8,10.6l-1.2,-0.4l0,-8.9l1.2,-0.4l0,9.7zm2.3,0.8l-1.8,-0.5l0,-10.2l1.8,-0.5l0,11.2zm2.7,1l-2.2,-0.7l0,-11.8l2.2,-0.7l0,13.2z" class="st1"/>
   <polygon stroke="null" id="svg_8" points="22.099998474121094,43.599998474121094 22.099998474121094,60 32.20000457763672,56.099998474121094 32.20000457763672,47.29999923706055 " class="st0"/>
   <path stroke="null" id="svg_9" d="m12.2,46l0,11.2l7.9,2.7l0,-16.3l-7.9,2.4zm1.9,10.6l-1.2,-0.4l0,-8.9l1.2,-0.4l0,9.7zm2.3,0.8l-1.8,-0.5l0,-10.2l1.8,-0.5l0,11.2zm2.7,1l-2.1,-0.7l0,-11.8l2.2,-0.7l0,13.2l-0.1,0z" class="st1"/>
   <polygon stroke="null" id="svg_10" points="46.50000762939453,43.599998474121094 46.50000762939453,60 56.50000762939453,56.099998474121094 56.50000762939453,47.29999923706055 " class="st0"/>
   <path stroke="null" id="svg_11" d="m36.6,46l0,11.2l7.9,2.7l0,-16.3l-7.9,2.4zm1.9,10.6l-1.2,-0.4l0,-8.9l1.2,-0.4l0,9.7zm2.2,0.8l-1.8,-0.5l0,-10.2l1.8,-0.5l0,11.2zm2.8,1l-2.2,-0.7l0,-11.8l2.2,-0.7l0,13.2z" class="st1"/>
   <polygon stroke="null" id="svg_12" points="22.099998474121094,10 22.099998474121094,26.400001525878906 32.20000457763672,22.5 32.20000457763672,13.700000762939453 " class="st0"/>
   <path stroke="null" id="svg_13" d="m12.2,12.4l0,11.2l7.9,2.7l0,-16.3l-7.9,2.4zm1.9,10.6l-1.2,-0.4l0,-8.9l1.2,-0.4l0,9.7zm2.3,0.8l-1.8,-0.5l0,-10.2l1.8,-0.5l0,11.2zm2.7,1l-2.1,-0.7l0,-11.8l2.2,-0.7l0,13.2l-0.1,0z" class="st1"/>
   <polygon stroke="null" id="svg_14" points="46.50000762939453,10 46.50000762939453,26.400001525878906 56.50000762939453,22.5 56.50000762939453,13.700000762939453 " class="st0"/>
   <path stroke="null" id="svg_15" d="m36.6,12.4l0,11.2l7.9,2.7l0,-16.3l-7.9,2.4zm1.9,10.6l-1.2,-0.4l0,-8.9l1.2,-0.4l0,9.7zm2.2,0.8l-1.8,-0.5l0,-10.2l1.8,-0.5l0,11.2zm2.8,1l-2.2,-0.7l0,-11.8l2.2,-0.7l0,13.2z" class="st1"/>
  </g>
 </g>
</svg>