<svg width="51" height="51" xmlns="http://www.w3.org/2000/svg">
 <style type="text/css">.st0{fill:#4052D7;}
	.st1{fill:#387EFA;}</style>

 <title>providers-resize</title>
 <g>
  <title>background</title>
  <rect fill="none" id="canvas_background" height="53" width="53" y="-1" x="-1"/>
 </g>
 <g>
  <title>Layer 1</title>
  <g id="svg_1">
   <polygon id="svg_2" points="37.29999923706055,29.599998474121094 47.5,36.099998474121094 47.5,12.400001525878906 27.5,0.8999996483325958 27.5,12.599998474121094 37.29999923706055,18.299999237060547 " class="st0"/>
   <polygon id="svg_3" points="35.099998474121094,33 25.400001525878906,38.70000076293945 13.599998474121094,31.799999237060547 13.599998474121094,18 23.400001525878906,12.299999237060547 23.400001525878906,0.5 3.5,12.099998474121094 3.5,37.70000076293945 25.400001525878906,50.5 44.69999694824219,39.20000076293945 " class="st1"/>
   <path id="svg_4" d="m30.4,31.7l-1.8,0l-4.8,-6.4l-1.4,1.2l0,5.2l-1.5,0l0,-13.2l1.5,0l0,6.5l6,-6.5l1.8,0l-5.3,5.7l5.5,7.5z" class="st0"/>
  </g>
 </g>
</svg>