<svg width="60" height="60" xmlns="http://www.w3.org/2000/svg">
 <style type="text/css">.st0{fill:#4489F2;}
	.st1{fill:#407FDD;}
	.st2{fill:#FFFFFF;}</style>

 <g>
  <title>background</title>
  <rect fill="none" id="canvas_background" height="62" width="62" y="-1" x="-1"/>
 </g>
 <g>
  <title>Layer 1</title>
  <g id="svg_1">
   <path id="svg_2" d="m18.3,23.6l11.7,-6.8l10.8,6.3l14.1,13.9l2.7,-4.8c0.7,-1.4 0.7,-2.9 0,-4.3l-11.8,-20.8c-0.8,-1.2 -2.1,-2 -3.7,-2.1l-24,0c-1.5,0.1 -2.8,0.9 -3.7,2.1l-12,20.8c-0.7,1.4 -0.7,2.9 0,4.3l11.9,20.7c0.8,1.2 2.1,2 3.7,2.1l18.6,0l-18.3,-18.2l0,-13.2z" class="st0"/>
   <path id="svg_3" d="m45.8,52.9l9.1,-15.9l-14,-14l-10.8,-6.3l-11.7,6.8l0,13.2l18.2,18.3l5.4,0c1.5,-0.1 2.9,-0.9 3.8,-2.1z" class="st1"/>
   <path id="svg_4" d="m40.7,22.9l-9.5,-5.5c-0.7,-0.5 -1.6,-0.5 -2.3,0l-9.5,5.5c-0.7,0.5 -1.1,1.1 -1.1,1.9l0,11c0,0.8 0.5,1.6 1.1,1.9l9.5,5.5c0.7,0.5 1.6,0.5 2.3,0l9.5,-5.5c0.7,-0.5 1.1,-1.1 1.1,-1.9l0,-10.9c0,-0.9 -0.4,-1.5 -1.1,-2zm-10.7,18.4l-9.1,-5.3l3.5,-2.1l5.2,2.7l0,-5.9l-5.6,-3l0,5.2l-3.4,2.1l0,-10.2l9,-5.2l0,4.4l-5.2,2.8l5.6,3.2l5.6,-3.2l-5,-2.8l0,-4.4l9,5.2l0,10.2l-3.5,-2.1l0,-5.1l-5.6,2.9l0,5.9l5.2,-2.7l3.5,2.1l-9.2,5.3z" class="st2"/>
  </g>
 </g>
</svg>