<?xml version="1.0" encoding="utf-8"?>
<!-- Generator: Adobe Illustrator 20.1.0, SVG Export Plug-In . SVG Version: 6.00 Build 0)  -->
<!DOCTYPE svg PUBLIC "-//W3C//DTD SVG 1.1//EN" "http://www.w3.org/Graphics/SVG/1.1/DTD/svg11.dtd">
<svg version="1.1" id="Layer_1" xmlns="http://www.w3.org/2000/svg" xmlns:xlink="http://www.w3.org/1999/xlink" x="0px" y="0px"
	 viewBox="0 0 24 24" style="enable-background:new 0 0 24 24;" xml:space="preserve">
<style type="text/css">
	.st0{fill:#01A982;}
</style>
<g>
	<path class="st0" d="M16.7,12.5c0,0.5-0.5,1-1,1h-2.9v2.8c0,0.5-0.5,1-1,1s-1-0.5-1-1v-2.8H8c-0.5,0-1-0.5-1-1c0-0.6,0.5-1,1-1h2.9
		V8.6c0-0.6,0.5-1,1-1s1,0.4,1,1v2.9h2.9C16.2,11.5,16.7,11.9,16.7,12.5z"/>
</g>
<path class="st0" d="M11.8,21.4c-5,0-9-4-9-9s4-9,9-9s9,4,9,9S16.8,21.4,11.8,21.4z M11.8,5.4c-3.9,0-7,3.1-7,7c0,3.9,3.1,7,7,7
	s7-3.1,7-7C18.8,8.6,15.7,5.4,11.8,5.4z"/>
</svg>
