<?xml version="1.0" encoding="utf-8"?>
<!-- Generator: Adobe Illustrator 20.1.0, SVG Export Plug-In . SVG Version: 6.00 Build 0)  -->
<!DOCTYPE svg PUBLIC "-//W3C//DTD SVG 1.1//EN" "http://www.w3.org/Graphics/SVG/1.1/DTD/svg11.dtd">
<svg version="1.1" id="Layer_1" xmlns="http://www.w3.org/2000/svg" xmlns:xlink="http://www.w3.org/1999/xlink" x="0px" y="0px"
	 viewBox="0 0 24 24" enable-background="new 0 0 24 24" xml:space="preserve">
<path fill="#333333" d="M23.6,13.4c0,3.1-2.7,5.6-6,5.6h-1.3v-2h1.3c2.2,0,4-1.6,4-3.6c0-2.2-1.3-3.6-3.5-3.6h-1V7.9
	c0-1.5-1.7-3.1-3.3-3.1h-2.9c-1.4,0-2.1,1.3-2.2,2.7h3.7v2H6.2c-2.1,0-3.8,1.7-3.8,3.8c0,2.1,1.7,3.7,3.7,3.7h0.5v2H6.2
	c-3.2,0-5.7-2.6-5.7-5.7c0-3.2,2.6-5.8,5.8-5.8h0.5c0.1-2.4,1.6-4.7,4.2-4.7h2.9c2.7,0,5.3,2.5,5.3,5.1v0
	C21.8,8.3,23.6,10.4,23.6,13.4z"/>
<g>
	<g>
		<polygon fill="#333333" points="12.9,18.2 16.2,21.5 14.8,22.9 11.5,19.6 8.2,22.9 7.5,22.2 6.8,21.5 10.1,18.2 6.8,14.9 
			8.2,13.5 11.5,16.7 14.8,13.5 15.5,14.2 16.2,14.9 		"/>
	</g>
</g>
</svg>
